<svg width="447" height="304" viewBox="0 0 447 304" fill="none" xmlns="http://www.w3.org/2000/svg">
<style>
    .reel-left {
      transform-origin: 128px 140px;
    }
    .reel-right {
      transform-origin: 318px 140px;
    }
  </style>
<path d="M22.9966 0.354089C24.3707 0.154401 25.889 0.193771 27.2816 0.18674L295.715 0.202211L381.958 0.20573L408.906 0.200809C413.828 0.200575 418.956 -0.093806 423.85 0.380803C428.024 0.786272 431.931 2.61252 434.922 5.55346C437.973 8.61276 439.703 12.4525 440.315 16.7001C441.217 22.9591 440.709 29.7742 440.702 36.1047L440.697 70.7749L440.706 191.503C442.877 192.909 444.606 194.594 446.397 196.453L446.355 248.133L446.418 259.423C446.432 261.605 446.652 264.033 446.209 266.18C445.567 269.283 443.162 271.022 440.666 272.623C440.732 279.771 441.592 287.409 437.704 293.798C434.545 298.99 429.808 301.692 424.028 303.07C422.123 303.469 420.191 303.518 418.253 303.537L156.26 303.523H66.7002L38.7234 303.52C34.0891 303.52 29.1801 303.846 24.5704 303.422C20.1632 303.016 15.6993 301.151 12.5472 298.01C5.56595 291.049 6.50101 281.925 6.4689 272.873C4.0235 271.469 2.16929 269.967 0.369385 267.797L0.376158 195.663C2.17738 193.547 4.4293 191.911 6.42638 189.987L6.40881 73.6853L6.40824 36.9698C6.40803 30.6042 5.97629 23.8666 6.58702 17.5361C6.91562 14.129 7.83296 10.9371 9.83851 8.13182C13.0734 3.60745 17.5731 1.21987 22.9966 0.354089Z" fill="#0B1316"/>
<path d="M26.8814 4.14754C27.5452 4.02839 28.217 4.01741 28.8897 3.99638C37.0903 3.73821 45.3853 3.98072 53.5931 3.98096L102.089 3.98236L248.421 3.97769L360.934 3.98002L397.192 3.97769C404.531 3.97278 411.926 3.75667 419.253 4.15362C423.095 4.36155 428.724 4.76551 431.599 7.60561C432.571 8.56516 433.942 10.8602 434.061 12.2251C434.279 14.7458 434.014 17.6618 433.963 20.2113C433.872 24.8854 433.836 29.5605 433.853 34.2358L433.843 88.3098L433.858 201.478C433.855 225.073 433.506 248.722 433.85 272.31C433.9 275.725 434.204 279.137 434.286 282.552C434.371 286.134 433.872 288.893 431.214 291.55C429.422 293.314 427.165 294.536 424.705 295.078C419.37 296.26 410.117 295.743 404.453 295.729L375.532 295.757C375.335 287.087 372.364 278.408 370.557 269.957C369.388 264.256 367.865 258.574 366.572 252.894C365.072 246.308 363.575 238.332 361.215 232.066C360.093 229.089 357.986 227.117 355.085 225.851C352.698 224.806 350.165 224.507 347.58 224.421C334.977 223.996 322.249 224.379 309.628 224.381L237.9 224.365L153.492 224.356C138.099 224.351 122.632 224.059 107.247 224.426C103.308 224.519 94.3112 224.339 90.9966 225.72C88.6794 226.683 87.1735 227.895 86.0359 230.122C83.54 235.005 81.5326 247.135 80.1447 253.193C77.7739 263.541 75.1482 273.861 73.0436 284.267C72.3102 287.893 72.4315 291.996 70.964 295.407C70.9235 295.503 70.8811 295.594 70.8396 295.687C62.8553 296.078 54.7129 295.741 46.7084 295.746C41.3674 295.783 36.0262 295.786 30.6853 295.753C27.4953 295.757 23.6342 296.218 20.5443 295.339C16.0757 294.068 14.7753 289.856 13.1133 289.361L13.322 290.608L13.0437 290.526L13.323 290.61C13.1311 290.529 13.0685 290.517 12.8916 290.358C10.5606 288.262 10.425 284.153 10.3919 281.267C10.1733 262.235 10.3926 243.18 10.3922 224.148L10.3865 109.392L10.3825 47.7086L10.376 27.8501C10.3758 24.2593 10.1942 20.5578 10.4676 16.981C10.6576 14.4995 12.2088 9.82003 14.0001 8.08106C17.3501 4.82906 22.4259 4.1174 26.8814 4.14754Z" fill="#262829"/>
<path d="M48.962 21.669C49.236 21.6522 49.5104 21.6383 49.7847 21.628C58.6562 21.3594 67.6461 21.6721 76.5311 21.6814L128.379 21.6606L295.359 21.654L368.605 21.665L388.37 21.6348C391.647 21.6306 395.462 21.2556 398.671 21.8579C401.376 22.3656 404.929 23.7168 406.225 26.3047C406.858 27.5673 407.221 28.9708 408.053 30.13C409.307 31.8791 411.262 33.1635 412.802 34.6621C415.987 37.7668 416.031 42.2314 416.073 46.4005L416.071 154.915L416.064 188.836C416.064 194.449 416.57 200.534 415.891 206.088C415.466 209.569 413.891 213.579 411.381 216.059C407.465 219.928 402.466 219.464 397.431 219.429L154.85 219.141L77.4892 219.415L55.9396 219.429C51.9088 219.438 47.6617 219.706 43.6527 219.3C39.6536 218.897 35.5928 216.089 32.3851 213.844C30.7361 212.691 29.9844 210.638 29.7322 208.711C29.4264 206.374 29.6052 203.852 29.608 201.495L29.6125 189.007L29.6153 145.917L29.6158 76.5911L29.6066 54.205C29.6061 50.0361 29.4381 45.7761 29.6861 41.6179C29.849 38.8881 30.1567 36.3435 31.8615 34.1155C33.4508 32.0385 35.7742 30.6154 37.7629 28.9539C41.5051 25.8271 43.738 22.3424 48.962 21.669Z" fill="#0B1316"/>
<path d="M50.2288 28.0327C50.8256 28.0081 51.4226 27.9929 52.0199 27.987L283.642 27.9924L359.136 27.9978L382.624 27.9772C386.978 27.9718 391.494 27.7314 395.826 28.1325C398.715 28.4001 400.606 29.8264 402.593 31.8146C404.857 34.0773 410.073 38.6419 410.678 41.6313C411.395 45.1651 410.919 51.8113 410.914 55.6683L410.9 85.7041L410.914 204.937C410.91 207.826 410.771 210.539 408.545 212.657C405.349 215.698 401.342 215.878 397.213 215.829L161.692 215.825L84.1543 215.827L59.1185 215.843C54.6085 215.848 50.046 215.998 45.5423 215.794C44.0433 215.726 42.8038 215.396 41.4559 214.745C39.2254 213.672 37.2222 212.09 36.4941 209.611C35.7483 207.076 36.2207 199.293 36.2218 196.358L36.235 167.494L36.2568 85.4923C36.2596 72.0626 35.9812 58.583 36.2436 45.1606C36.2788 43.3573 36.3711 41.4584 37.2768 39.8524C38.1859 38.2403 45.618 30.8163 47.3386 29.4701C48.2553 28.7527 49.1063 28.3272 50.2288 28.0327Z" fill="#FFEEDC"/>
<path d="M36.011 112.781C36.1344 112.714 36.2579 112.671 36.3814 112.653L70.2443 112.633L86.2214 112.648C88.7044 112.657 91.1988 111.936 93.6798 112.58C93.8113 112.615 93.9048 112.453 94 113.773C94.0004 115.315 93.9783 115.876 93.9163 117.133C92.4488 117.508 90.9765 117.16 89.5086 117.157L80.8658 117.146L48.572 118.011C47.3891 118.188 36.1804 118.836 36.0346 117.952C36.0086 117.795 35.9941 117.397 35.9739 117.119C35.9598 115.374 35.9755 114.42 36.011 112.781Z" fill="#FF5843"/>
<path d="M36.0045 138.563C36.1087 138.495 36.2131 138.452 36.3174 138.435L64.9285 138.415L78.4278 138.429C80.5257 138.439 82.6332 137.718 84.7295 138.361C84.8405 138.396 84.9196 138.235 85 139.554C85.0003 141.096 84.9816 141.658 84.9293 142.914C83.6894 143.289 82.4454 142.941 81.2052 142.938L73.9028 142.928L46.6174 143.792C45.618 143.969 36.1476 144.618 36.0244 143.733C36.0024 143.576 35.9902 143.178 35.9731 142.901C35.9612 141.155 35.9744 140.201 36.0045 138.563Z" fill="#4DC1C5"/>
<path d="M36.011 162.938C36.1344 162.87 36.2579 162.827 36.3814 162.81L70.2443 162.79L86.2214 162.804C88.7044 162.814 91.1988 162.093 93.6798 162.736C93.8113 162.771 93.9048 162.61 94 163.929C94.0004 165.471 93.9783 166.033 93.9163 167.289C92.4488 167.664 90.9765 167.316 89.5086 167.313L80.8658 167.303L48.572 168.167C47.3891 168.344 36.1804 168.993 36.0346 168.108C36.0086 167.951 35.9941 167.553 35.9739 167.276C35.9598 165.53 35.9755 164.576 36.011 162.938Z" fill="#FE9900"/>
<path d="M352.043 112.781C352.17 112.714 352.296 112.671 352.423 112.653L387.106 112.633L403.47 112.648C406.014 112.657 408.568 111.936 411.11 112.58C411.244 112.615 411.34 112.453 411.437 113.773C411.438 115.315 411.415 115.876 411.352 117.133C409.849 117.508 408.341 117.16 406.837 117.157L397.985 117.146L364.909 118.011C363.697 118.188 352.217 118.836 352.067 117.952C352.041 117.795 352.026 117.397 352.005 117.119C351.991 115.374 352.007 114.42 352.043 112.781Z" fill="#FF5843"/>
<path d="M362.036 138.563C362.141 138.495 362.246 138.452 362.352 138.435L391.2 138.415L404.811 138.429C406.926 138.439 409.051 137.718 411.165 138.361C411.277 138.396 411.356 138.235 411.437 139.554C411.438 141.096 411.419 141.658 411.366 142.914C410.116 143.289 408.862 142.941 407.611 142.938L400.248 142.928L372.737 143.792C371.729 143.969 362.18 144.618 362.056 143.733C362.034 143.576 362.022 143.178 362.004 142.901C361.992 141.155 362.006 140.201 362.036 138.563Z" fill="#4DC1C5"/>
<path d="M352.043 162.938C352.17 162.87 352.296 162.827 352.423 162.81L387.106 162.79L403.47 162.804C406.014 162.814 408.568 162.093 411.11 162.736C411.244 162.771 411.34 162.61 411.437 163.929C411.438 165.471 411.415 166.033 411.352 167.289C409.849 167.664 408.341 167.316 406.837 167.313L397.985 167.303L364.909 168.167C363.697 168.344 352.217 168.993 352.067 168.108C352.041 167.951 352.026 167.553 352.005 167.276C351.991 165.53 352.007 164.576 352.043 162.938Z" fill="#FE9900"/>
<path d="M122.871 96.9468C126.587 96.6446 130.437 97.0421 134.172 97.0691L155.951 97.0855L231.749 97.0841L293.273 97.0874C300.379 97.0562 307.481 96.8136 314.594 96.8181C317.821 96.8202 321.126 96.707 324.339 97.0489C331.502 97.8111 338.655 100.648 344.505 104.827C354.353 111.864 360.388 122.368 362.308 134.226C364.047 145.412 361.23 156.827 354.487 165.919C347.277 175.824 337.073 181.685 325.082 183.549C319.645 183.799 314.16 183.661 308.716 183.661L280.924 183.663L195.813 183.659L146.066 183.663L131.592 183.659C128.256 183.656 124.823 183.802 121.512 183.352C113.811 182.32 106.53 179.231 100.439 174.408C91.5181 167.342 85.7949 156.999 84.5438 145.685C83.1462 133.701 86.6241 121.657 94.1951 112.263C101.374 103.394 111.602 98.1627 122.871 96.9468Z" fill="#262829"/>
<path d="M169.831 168.605C169.676 167.855 169.535 167.102 169.455 166.34C169.16 163.547 169.336 160.601 169.334 157.788L169.331 141.831L169.327 125.288C169.328 122.275 169.141 119.09 169.476 116.099C169.641 114.618 170.034 113.064 171.021 111.905C172.541 110.12 174.506 109.452 176.774 109.358C183.129 109.093 189.599 109.362 195.967 109.365L235.359 109.359L258.986 109.363C263.301 109.333 268.026 108.884 272.303 109.402C273.927 109.598 274.928 110.556 276.072 111.618C276.105 113.58 275.992 115.68 276.395 117.603C276.4 116.646 276.33 115.834 276.838 114.988C277.178 114.764 277.223 114.617 277.645 114.693C277.989 114.755 278.158 114.831 278.444 115.012C279.084 126.244 278.816 137.515 278.894 148.76C278.929 154.045 279.501 161.918 279.011 166.908C278.913 167.913 278.538 168.888 278.024 169.753C276.89 171.368 275.345 172.472 273.377 172.802C269.552 173.442 265.314 173.107 261.44 173.093L242.608 173.069H198.217C191.138 173.067 184.04 173.196 176.964 173.069C175.77 173.046 173.807 173.076 172.785 172.462C172.543 172.317 172.569 172.326 172.551 172.04C172.515 171.469 172.667 170.925 172.791 170.374C171.933 169.558 170.889 169.092 169.831 168.605Z" fill="#0B1316"/>
<path d="M276.065 166.198C276.428 166.158 276.677 166.026 276.988 166.27C277.802 166.903 277.945 168.523 278.013 169.484C278.02 169.573 278.017 169.662 278.022 169.751C276.888 171.366 275.343 172.469 273.374 172.8C269.549 173.44 265.312 173.105 261.438 173.091L242.606 173.067H198.214C191.136 173.065 184.038 173.194 176.961 173.067C175.767 173.044 173.805 173.074 172.783 172.46C172.541 172.315 172.566 172.324 172.549 172.038C172.513 171.466 172.665 170.923 172.789 170.372C177.5 171.321 182.705 170.911 187.507 170.909L208.793 170.901L248.385 170.906C255.309 170.904 262.309 171.134 269.224 170.848C270.595 170.791 271.956 170.667 273.217 170.081C274.926 169.284 275.502 167.885 276.065 166.198Z" fill="#5E5E5E"/>
<path d="M276.395 117.599C276.4 116.641 276.33 115.83 276.838 114.983C277.178 114.76 277.223 114.613 277.644 114.689C277.989 114.75 278.158 114.826 278.444 115.007C279.084 126.239 278.816 137.511 278.894 148.755C278.929 154.041 279.501 161.913 279.011 166.903C278.912 167.909 278.537 168.884 278.024 169.748C278.019 169.659 278.022 169.57 278.015 169.481C277.947 168.52 277.804 166.901 276.991 166.268C276.679 166.024 276.43 166.155 276.067 166.195C276.96 161.503 276.435 154.647 276.435 149.7L276.395 117.599Z" fill="#3B4244"/>
<path d="M202.518 114.515C204.211 114.435 205.636 114.164 207.101 115.174L207.179 114.903C208.476 116.845 209.342 119.704 210.008 121.934C213.169 132.522 212.945 142.835 210.816 153.57C209.807 158.658 208.165 163.484 205.726 168.066C204.846 168.106 203.96 168.091 203.078 168.098C196.157 167.754 189.058 168.089 182.119 168.106L175.128 168.082C176.177 165.933 177.259 163.786 178.212 161.592C183.72 148.918 184.573 133.452 179.5 120.515C178.584 118.902 178.584 116.373 177.791 114.561C186.033 114.608 194.276 114.593 202.518 114.515Z" fill="#463125"/>
<path d="M243.884 115.094C242.191 115.013 240.766 114.743 239.301 115.752L239.223 115.482C237.926 117.424 237.06 120.282 236.394 122.513C233.232 133.1 233.457 143.413 235.586 154.149C236.595 159.236 238.237 164.062 240.676 168.644C241.556 168.684 242.442 168.67 243.324 168.677C250.244 168.333 257.344 168.668 264.283 168.684L271.273 168.661C270.225 166.511 269.143 164.365 268.19 162.171C262.682 149.497 261.828 134.031 266.902 121.094C267.818 119.48 267.818 116.952 268.61 115.139C260.368 115.187 252.126 115.172 243.884 115.094Z" fill="#463125"/>
<path d="M202.513 114.517C204.206 114.437 205.631 114.166 207.096 115.176L207.174 114.906C208.471 116.847 209.337 119.706 210.003 121.937C213.165 132.524 212.94 142.837 210.811 153.573C209.802 158.66 208.16 163.486 205.722 168.068C204.841 168.108 203.955 168.094 203.074 168.101C203.788 166.266 203.63 164.403 204.127 162.532C204.742 160.217 205.756 158.002 206.382 155.68C208.497 147.831 209.421 138.767 208.265 130.722C207.905 128.209 207.179 121.987 205.135 120.446C204.163 118.518 203.357 116.504 202.513 114.517Z" fill="url(#paint0_linear_154_179)"/>
<path d="M177.789 114.563C186.031 114.61 194.274 114.595 202.515 114.517C203.359 116.504 204.166 118.518 205.138 120.446C198.426 120.776 191.702 120.531 184.986 120.71C183.141 120.548 181.349 120.473 179.497 120.517C178.582 118.904 178.581 116.375 177.789 114.563Z" fill="#262829"/>
<path d="M269.349 115.046C259.901 115.093 250.453 115.078 241.006 115C240.039 116.987 239.114 119.001 238 120.929C245.694 121.259 253.401 121.014 261.099 121.192C263.214 121.031 265.268 120.955 267.39 121C268.44 119.387 268.44 116.858 269.349 115.046Z" fill="#262829"/>
<path d="M207.177 114.908C207.222 114.892 207.267 114.876 207.311 114.859C207.591 114.749 207.716 114.683 207.99 114.614C210.459 114.002 219.859 114.428 223.026 114.427C228.454 114.424 233.997 114.15 239.408 114.385C239.807 114.402 240.034 114.507 240.376 114.694C240.119 116.217 239.23 117.529 238.595 118.92C237.7 120.88 236.901 122.92 236.458 125.034C232.223 138.197 234.618 155.904 240.822 168.07C236.465 168.225 232.066 168.101 227.701 168.103L205.724 168.07C208.162 163.488 209.805 158.662 210.814 153.575C212.942 142.839 213.167 132.526 210.006 121.939C209.34 119.708 208.473 116.849 207.177 114.908Z" fill="#DAD6CA"/>
<path d="M273.564 117.256C273.747 124.656 273.637 132.078 273.637 139.482C273.634 147.473 273.728 155.479 273.595 163.469C272.038 161.14 271.021 157.425 270.243 154.748C266.652 142.392 267.278 128.673 273.564 117.256Z" fill="#DAD6CA"/>
<path d="M172.861 117.612L172.849 117.334C172.828 116.716 172.75 116.244 173.119 115.71C174.601 116.397 176.203 121.325 176.762 122.855C181.353 135.476 180.724 149.407 175.012 161.562C174.347 162.975 173.629 164.386 172.865 165.748C172.859 164.21 172.824 162.668 172.849 161.131C172.7 146.66 172.536 132.078 172.861 117.612Z" fill="#5E5E5E"/>
<path d="M172.863 117.612L172.851 117.334C172.83 116.716 172.753 116.244 173.122 115.71C174.603 116.397 176.205 121.325 176.764 122.855C181.356 135.476 180.726 149.407 175.015 161.562C174.35 162.975 173.631 164.386 172.868 165.748C172.861 164.21 172.826 162.668 172.851 161.131C173.126 160.559 173.541 160.05 173.877 159.511C178.872 151.474 179.815 138.495 177.537 129.48C176.99 127.312 174.601 118.646 172.863 117.612Z" fill="#92938F"/>
<path d="M124.767 112.38C138.233 110.641 151.031 118.727 155.242 131.635C159.453 144.542 153.886 158.621 141.985 165.157C130.085 171.692 115.218 168.839 106.584 158.36C100.047 150.426 98.3363 139.567 102.117 130.008C105.897 120.448 114.572 113.697 124.767 112.38Z" fill="#F6F3EA"/>
<path d="M126.391 116.181C126.509 116.166 126.627 116.15 126.745 116.136C131.081 115.637 136.631 116.485 140.118 119.136C139.369 119.307 138.542 119.456 137.836 119.752C136.869 120.158 136.053 121.234 135.713 122.181C135.334 123.237 135.44 124.39 135.96 125.382C136.83 127.041 138.151 127.55 139.88 128.064C140.497 127.901 141.149 127.749 141.727 127.48C143.171 126.806 143.944 125.511 144.402 124.07C144.559 123.578 144.671 123.192 144.966 122.756C145.55 122.937 145.777 123.224 146.176 123.673C148.668 126.479 152.972 133.313 152.758 136.969C152.166 137.611 148.865 136.508 147.285 137.11C146.44 137.432 145.881 138.052 145.58 138.878C145.127 140.12 145.066 142.03 145.708 143.225C147.162 145.927 150.28 144.111 152.423 144.827C152.923 145.436 153.065 145.819 152.975 146.608C152.477 150.976 148.374 156.496 144.928 159.193C144.404 158.023 143.818 156.659 142.76 155.847C141.766 155.083 140.537 154.699 139.275 154.868C138.032 155.034 136.861 155.684 136.165 156.714C135.571 157.592 135.383 158.673 135.646 159.693C136.143 161.661 137.566 162.423 139.228 163.37C135.793 165.243 132.306 165.886 128.408 166C125.077 166.012 121.342 165.002 118.435 163.428C119.397 162.629 120.456 161.724 121.05 160.616C121.561 159.665 121.784 158.527 121.432 157.487C121.094 156.484 120.297 155.707 119.315 155.289C118.152 154.793 116.869 154.843 115.712 155.323C113.798 156.117 112.408 157.796 111.674 159.651C110.991 159.121 110.343 158.55 109.733 157.942C105.844 154.049 103.266 148.944 103.318 143.459C104.477 144.163 105.566 144.772 106.839 145.266C107.27 145.144 107.697 145.01 108.12 144.867C109.387 144.428 110.451 143.552 110.994 142.334C111.419 141.375 111.425 140.289 111.009 139.327C110.567 138.312 109.715 137.521 108.655 137.14C106.563 136.383 104.847 137.274 103 138.157C103.466 133.785 105.402 129.73 108.038 126.2C108.96 124.966 110.555 122.576 112.234 122.424C112.342 122.414 112.472 122.359 112.559 122.423C112.745 122.559 113.381 126.015 114.85 127.16C115.752 127.862 116.733 127.966 117.844 127.781C119.08 127.574 120.327 127.099 121.019 126.019C121.602 125.109 121.67 123.972 121.433 122.944C120.968 120.93 119.845 119.888 118.133 118.816C120.802 117.198 123.298 116.59 126.391 116.181Z" fill="#111111" class="reel-left" />
<path d="M296.957 158.756C296.003 157.842 295.136 156.75 294.393 155.659C290.355 149.728 289.183 142.196 290.547 135.206C292.005 127.786 296.371 121.257 302.671 117.075C307.417 113.917 314.641 111.358 320.385 112.52C328.218 113.283 335.158 116.466 340.19 122.625C344.917 128.414 347.172 136.246 346.408 143.674C345.613 150.931 341.985 157.582 336.313 162.178C330.346 167.065 322.64 169.303 314.983 168.377C308.252 167.583 301.23 164.093 296.957 158.756Z" fill="#F6F3EA"/>
<path d="M300.637 121.233C301.061 121.298 301.354 121.333 301.741 121.526C299.622 123.84 297.679 126.052 296.022 128.733C296.076 128.315 296.106 128.155 295.97 127.744C295.619 128.211 295.398 128.719 294.822 128.872C296.104 125.949 298.298 123.368 300.637 121.233Z" fill="#F9F6F6"/>
<path d="M125.241 100.453C127.525 100.122 130.102 100.316 132.417 100.323L145.003 100.364L188.813 100.351L275.988 100.352L304.963 100.337C310.398 100.335 315.869 100.201 321.299 100.397C324.51 100.513 328.019 101.048 331.042 102.154C334.359 103.367 344.207 107.779 345.648 110.874C345.47 111.645 344.964 111.833 344.35 112.309L343.987 112.259C343.809 111.934 343.607 111.494 343.361 111.211C342.859 110.627 341.741 110.103 341.069 109.693C336.548 106.927 331.848 104.678 326.561 103.885C322.056 103.209 317.308 103.541 312.763 103.578L294.967 103.609L223.586 103.585L151.466 103.598C146.37 103.616 141.273 103.598 136.177 103.546C131.036 103.478 125.718 103.083 120.64 104.015C114.44 105.202 108.688 108.074 104.013 112.315C96.7012 118.833 91.5984 127.303 91.1046 137.253C90.7783 143.824 92.0461 149.72 94.6781 155.731C95.1265 156.755 95.5976 158.177 96.3593 159C96.7357 159.408 96.5756 159.15 96.7882 159.72L96.5233 159.799C93.9609 157.612 93.1256 150.116 91.293 149.075C90.9084 149.411 90.4901 149.683 90.0679 149.969C89.7541 151.618 91.5194 153.55 91.815 155.204C92.7851 160.636 98.0503 165.232 101.53 169.17L101.363 169.263C101.207 169.144 101.053 169.022 100.901 168.898C94.0938 163.284 89.584 153.58 88.6898 144.91C87.5707 134.059 89.9262 123.241 96.9637 114.711C104.445 105.643 113.771 101.593 125.241 100.453Z" fill="url(#paint1_linear_154_179)"/>
<path d="M14.4724 13.8563C15.6974 11.7376 16.7245 10.3386 18.851 9.06616C22.7899 6.70929 26.2565 6.86444 30.569 7.86569C34.2846 9.86655 36.2962 12.3034 37.8021 16.2305C38.2715 16.4694 38.3181 16.5333 38.4869 17.0635C39.1992 19.2987 38.7435 22.2992 37.6078 24.316C36.1059 26.9827 33.3456 29.2526 30.3585 29.9724C27.1525 30.7447 22.9464 30.1672 20.1396 28.3885C19.8993 28.2364 19.7165 28.0616 19.5149 27.8628L19.5745 27.455C17.5485 25.7068 15.9482 23.6208 14.2971 21.5307C14.2666 21.2433 14.2413 20.9544 14.2063 20.6673C13.9085 18.2262 14.2399 16.2641 14.4724 13.8563Z" fill="#0B1316"/>
<path d="M37.802 16.2354C38.2715 16.4742 38.3181 16.5382 38.4868 17.0683C39.1991 19.3036 38.7435 22.304 37.6077 24.3208C36.1058 26.9875 33.3456 29.2575 30.3585 29.9772C27.1525 30.7495 22.9464 30.172 20.1395 28.3933C19.8993 28.2412 19.7165 28.0664 19.5149 27.8676L19.5744 27.4598C21.8324 28.6216 24.1365 29.3838 26.7151 29.2795C29.9727 29.1541 33.0332 27.6869 35.1709 25.2257C37.4638 22.5618 38.1191 19.6432 37.802 16.2354Z" fill="#3B4244"/>
<path d="M24.9524 11.1096C27.1349 10.9059 29.316 11.1203 31.037 12.6171C32.5571 13.9396 33.2603 15.8791 33.3212 17.8593C33.3774 19.6947 32.8801 21.5697 31.5803 22.9134C30.3036 24.2329 28.8624 24.6269 27.0814 24.7049C25.168 24.4303 23.1231 24.1167 21.4372 23.1178C20.0202 22.2782 18.962 20.9845 18.5785 19.3671C18.2005 17.7731 18.5518 16.1097 19.4115 14.7311C20.7268 12.6224 22.6321 11.6695 24.9524 11.1096Z" fill="#3B4244"/>
<path d="M21.4177 17.7767C21.4151 16.6531 21.4615 15.6151 22.1095 14.6574C23.1464 13.1256 24.8984 12.8157 26.5906 12.5474C26.8081 12.6346 27.0263 12.7203 27.241 12.8148C28.5457 13.3876 29.4267 13.8374 29.9543 15.2066C30.4256 17.1381 30.9441 18.9031 29.7509 20.7121C29.0759 21.7356 27.9835 22.3124 26.7902 22.487C25.3524 22.6998 23.8894 22.322 22.7339 21.4398C22.0486 20.9061 21.4418 20.0155 21.3429 19.1347C21.2878 18.6425 21.3401 18.2593 21.4177 17.7767Z" fill="#0B1316"/>
<path d="M21.42 17.7792C21.4174 16.6556 21.4638 15.6175 22.1119 14.6599C23.1488 13.128 24.9007 12.8182 26.5929 12.5498C26.8104 12.637 27.0286 12.7228 27.2433 12.8172C28.5481 13.39 29.4291 13.8398 29.9567 15.209C29.562 15.0225 29.168 14.8394 28.7789 14.6411C27.5196 13.9996 25.7845 13.5672 24.3884 13.995C23.2772 14.3353 22.522 15.2435 22.0442 16.2621C21.8114 16.758 21.6115 17.2661 21.42 17.7792Z" fill="#262829"/>
<path d="M28.6943 271.535C30.4277 271.181 32.3034 271.819 33.7402 272.812C35.2125 273.832 35.891 274.741 36.2993 276.457C37.2155 278.395 37.7815 280.144 37.7048 282.328C37.587 285.677 36.3082 289.486 33.7652 291.743C31.3123 293.918 27.6879 294.677 24.4699 294.48C21.4043 294.29 18.8074 293.058 16.7941 290.716C13.7379 287.163 13.9533 283.233 14.2472 278.866C15.6349 276.944 16.676 275.001 18.6112 273.515C21.507 271.296 25.1998 271.008 28.6943 271.535Z" fill="#0B1316"/>
<path d="M25.6362 275.503C27.2663 275.292 28.9566 275.498 30.4339 276.246C31.7721 276.914 32.7818 278.095 33.2318 279.522C33.8989 281.646 33.5609 284.358 32.4474 286.277C31.1939 288.436 29.3846 289.394 27.0802 290.055C25.2746 290.151 23.7544 289.884 22.1996 288.916C20.4682 287.847 19.2652 286.101 18.8841 284.104C18.5389 282.215 18.9781 280.268 20.1 278.711C21.4503 276.822 23.3998 275.885 25.6362 275.503Z" fill="#3B4244"/>
<path d="M25.6382 277.35C25.9715 277.331 25.9752 277.324 26.3622 277.343C27.6993 277.409 29.0995 277.894 29.9995 278.92C31.3973 280.512 31.2852 282.424 31.1767 284.388C29.7114 286.446 28.4315 287.51 26.0055 288.356C25.4057 288.387 24.764 288.445 24.1689 288.352C22.2416 288.047 21.1398 286.238 20.1423 284.756C20.0819 283.184 20.1545 281.81 20.9591 280.416C22.015 278.585 23.7074 277.915 25.6382 277.35Z" fill="#0B1316"/>
<path d="M418.97 271.399C425.357 270.197 431.505 274.411 432.688 280.8C433.869 287.189 429.639 293.325 423.248 294.49C416.88 295.65 410.774 291.441 409.595 285.077C408.416 278.714 412.609 272.594 418.97 271.399Z" fill="#0B1316"/>
<path d="M414.517 286.463C413.526 284.93 413.141 283.043 413.533 281.234C413.976 279.199 415.387 277.575 417.144 276.523C419.041 275.367 421.33 275.049 423.468 275.646C425.219 276.12 426.883 277.13 427.806 278.733C428.777 280.416 428.854 282.748 428.308 284.585C427.734 286.514 426.198 288.174 424.41 289.062C422.849 289.838 420.958 289.983 419.324 289.352C418.18 288.912 417.114 288.183 416.505 287.105C416.336 286.999 416.134 286.934 415.952 286.859C415.919 287.248 415.848 287.538 415.708 287.904C415.138 287.609 414.852 286.988 414.517 286.463Z" fill="#3B4244"/>
<path d="M417.227 279.218C418.309 278.107 419.484 277.263 421.101 277.273C422.383 277.28 423.571 277.896 424.41 278.85C425.446 280.029 425.866 281.648 425.69 283.198C425.549 284.447 425.006 285.523 424.007 286.298C422.692 287.323 421.211 287.205 419.636 287.212C418.391 286.601 417.405 285.86 416.788 284.569C415.919 282.741 416.556 280.966 417.227 279.218Z" fill="#0B1316"/>
<path d="M417.224 279.22C416.554 280.969 415.916 282.743 416.786 284.571C417.402 285.862 418.389 286.603 419.634 287.215C418.565 287.391 417.524 286.601 416.498 286.317L416.507 287.102C416.338 286.997 416.137 286.931 415.954 286.856C415.921 287.245 415.851 287.536 415.71 287.901C415.141 287.606 414.855 286.985 414.52 286.46C415.323 285.002 414.726 283.317 415.164 281.695C415.457 280.603 416.303 279.804 417.224 279.22Z" fill="#262829"/>
<path d="M420.149 6.86172C425.847 6.22141 431.092 10.0248 432.257 15.6379C433.42 21.2507 430.117 26.8265 424.637 28.5039C419.155 30.1811 413.298 27.4077 411.121 22.1045C408.946 16.8013 411.166 10.7134 416.245 8.05633C417.461 7.42024 418.785 7.015 420.149 6.86172Z" fill="#0B1316"/>
<path d="M414.299 17.6698C414.601 15.6009 415.309 13.8258 417.053 12.5468C418.68 11.3691 420.721 10.9202 422.692 11.3081C424.6 11.6726 426.564 12.7324 427.614 14.4136C428.467 15.7781 428.655 17.3698 428.221 18.9122C427.682 20.8392 426.135 22.8063 424.377 23.7668C422.912 24.5665 421.316 24.6492 419.694 24.4366C417.923 24.0262 416.055 22.2785 415.058 20.8071C414.414 19.8581 414.048 18.8126 414.299 17.6698Z" fill="#0B1316"/>
<path d="M414.297 17.6698C414.599 15.6009 415.307 13.8258 417.051 12.5468C418.677 11.3691 420.719 10.9202 422.69 11.3081C424.598 11.6726 426.562 12.7324 427.612 14.4136C428.465 15.7781 428.652 17.3698 428.219 18.9122C427.68 20.8392 426.133 22.8063 424.375 23.7668C422.91 24.5665 421.314 24.6492 419.692 24.4366L419.767 23.6395C420.85 23.3519 421.952 23.0791 422.861 22.3933C424.091 21.4671 425.104 19.9957 425.277 18.4418C425.446 16.8937 425.008 15.7087 424.091 14.4909C422.034 13.7681 420.438 13.4538 418.298 14.1227L417.721 13.7988C415.975 15.034 415.403 16.125 414.548 18.0382L414.297 17.6698Z" fill="#3B4244"/>
<path d="M417.721 13.7939C419.067 13.0566 420.702 12.4964 422.242 12.907C422.962 13.0985 423.527 13.4433 423.892 14.1035C423.963 14.2291 424.026 14.3585 424.091 14.486C422.034 13.7632 420.438 13.4489 418.298 14.1178L417.721 13.7939Z" fill="#262829"/>
<path d="M417.721 13.7964L418.298 14.1203C416.481 15.9972 416.045 17.087 416.088 19.7284C416.088 20.0022 416.097 20.2759 416.113 20.5492C416.866 21.861 417.606 23.1379 419.184 23.5337C419.404 23.589 419.528 23.6005 419.767 23.6371L419.692 24.4342C417.92 24.0238 416.052 22.2761 415.056 20.8047C414.412 19.8557 414.046 18.8101 414.297 17.6673L414.548 18.0358C415.403 16.1226 415.975 15.0315 417.721 13.7964Z" fill="#262829"/>
<path d="M14.4699 13.8587C14.4542 13.6817 14.416 13.3878 14.4441 13.2048C14.5634 12.429 15.2909 11.5604 15.7463 10.9163C18.1728 7.48367 19.9702 6.82789 24.0924 6.6664C30.3263 6.42195 36.5382 6.78804 42.7644 6.79062L101.943 6.73015L406.682 6.77281C408.475 6.75945 417.93 6.84407 418.991 6.18641C419.814 5.67547 420.36 5.60023 421.333 5.65555C422.043 5.69609 424.286 5.67078 424.694 6.13437C423.18 6.20234 421.422 6.035 420.147 6.86164C418.783 7.01492 417.458 7.42016 416.242 8.05625C413.041 8.0136 409.898 7.46375 406.708 7.39719C390.505 7.1525 374.303 7.06883 358.101 7.14594C350.706 7.16281 343.232 7.20664 335.84 7.38852C334.232 7.42789 332.701 7.95172 331.096 7.9311C327.646 7.8868 324.217 7.35781 320.758 7.31774C258.524 6.88649 196.288 6.84547 134.054 7.19445C129.94 7.21461 125.802 6.97508 121.678 6.9643C109.941 6.93336 98.2114 7.21578 86.4741 7.16117C74.3764 7.10492 62.2712 6.82719 50.1685 6.9936C43.6109 7.0836 37.1094 7.75602 30.5666 7.86805C26.2541 6.8668 22.7874 6.71164 18.8485 9.06852C16.722 10.3409 15.695 11.7399 14.4699 13.8587Z" fill="#3B4244"/>
<path d="M69.4551 256.31C69.66 256.059 69.9858 255.944 70.3026 256.005C70.6195 256.069 70.8761 256.301 70.9706 256.61C71.0648 256.919 70.9819 257.255 70.754 257.484C70.4243 257.815 69.8918 257.831 69.5447 257.517C69.1976 257.203 69.1579 256.671 69.4551 256.31Z" fill="#242D30"/>
<path d="M89.5928 232.512C89.7104 232.142 89.8377 231.776 89.9746 231.41C90.3013 230.564 90.7522 229.953 91.6157 229.61C92.7639 229.153 94.258 229.097 95.4869 229.055C104.776 228.722 114.095 228.905 123.389 228.912L167.323 228.921L305.854 228.919L335.322 228.917C340.204 228.917 345.454 228.532 350.287 229.036C351.688 229.181 352.773 229.538 354.044 230.107C354.51 230.412 354.85 230.644 355.211 231.078L356.153 232.406L355.448 232.533C355.124 233.26 355.164 233.745 355.241 234.528L354.498 235.61C357.543 248.325 360.763 261.014 363.606 273.776C364.827 279.256 366.447 284.956 366.965 290.538C367.162 292.662 367.005 294.464 366.426 296.529C360.273 297.033 353.929 296.731 347.755 296.728L314.88 296.714L158.78 296.726L107.633 296.731C99.0854 296.726 90.4089 296.398 81.8788 296.719C81.1047 296.747 80.6111 296.986 79.9319 297.352C79.3762 297.652 78.8345 297.659 78.2347 297.436C77.8785 297.303 77.8907 297.251 77.6017 296.967C77.009 296.29 76.5346 295.542 76.0405 294.792C76.858 287.578 79.0462 280.2 80.605 273.106L89.5928 232.512Z" fill="#262829"/>
<path d="M89.5881 232.514C89.7058 232.144 89.8331 231.778 89.9699 231.412C90.2966 230.566 90.7476 229.954 91.611 229.612C92.7592 229.155 94.2534 229.099 95.4822 229.057C104.771 228.724 114.09 228.907 123.384 228.914L167.318 228.923L305.849 228.921L335.317 228.919C340.199 228.919 345.449 228.534 350.282 229.038C351.684 229.183 352.769 229.54 354.039 230.109L353.929 230.512C353.845 230.543 353.755 230.566 353.676 230.606C352.633 231.147 352.173 232.483 351.266 233.14C348.039 232.083 332.017 232.715 327.489 232.715L280.909 232.713L162.695 232.72C141.696 232.713 120.622 232.35 99.6295 232.788C97.6509 232.828 95.7801 232.983 93.9845 233.918C93.8088 234.009 93.6351 234.105 93.4635 234.206L93.1141 234.15L93.2299 234.002C92.0303 233.447 90.8594 232.891 89.5881 232.514Z" fill="#5E5E5E"/>
<path d="M89.5904 232.514C90.8616 232.892 92.0325 233.447 93.2321 234.002L93.1163 234.15L93.4657 234.206C93.1278 234.727 92.8039 235.259 92.6185 235.856C92.0665 237.631 91.83 239.604 91.4642 241.43C90.9003 244.167 90.3017 246.898 89.6684 249.619C86.787 262.399 84.1221 275.21 81.1142 287.96C80.689 289.763 80.8022 293.229 80.2875 294.551C79.9343 295.456 78.6666 296.356 77.9161 296.92L77.5993 296.97C77.0065 296.292 76.5321 295.545 76.0381 294.795C76.8556 287.581 79.0437 280.202 80.6025 273.108L89.5904 232.514Z" fill="#3B4244"/>
<path d="M354.037 230.112C354.503 230.417 354.843 230.649 355.204 231.082C354.445 232.32 353.943 233.445 353.488 234.825C352.785 234.305 351.859 233.77 351.264 233.142C352.171 232.486 352.631 231.15 353.674 230.609C353.753 230.569 353.842 230.545 353.927 230.515L354.037 230.112Z" fill="#3B4244"/>
<path d="M327.203 268.301C333.991 267.391 340.239 272.13 341.198 278.909C342.156 285.689 337.466 291.973 330.693 292.98C323.849 294 317.486 289.249 316.518 282.398C315.548 275.548 320.345 269.219 327.203 268.301Z" fill="#0B1316"/>
<path d="M327.296 273.161C331.554 272.291 335.71 275.04 336.577 279.297C337.447 283.555 334.697 287.711 330.439 288.578C326.183 289.445 322.027 286.698 321.16 282.442C320.293 278.183 323.04 274.03 327.296 273.161Z" fill="#F6F3EA"/>
<path d="M283.321 264.007C285.838 263.791 288.508 264.53 290.678 265.812C293.287 267.356 295.251 269.855 295.942 272.824C296.645 275.845 295.818 279.148 294.112 281.698C292.108 284.695 289.33 286.083 285.887 286.788C283.108 286.997 280.417 286.446 278.064 284.897C275.338 283.101 273.873 280.498 273.198 277.366C272.598 274.594 272.523 271.069 274.194 268.659C276.297 265.626 279.913 264.665 283.321 264.007Z" fill="#0B1316"/>
<path d="M283.751 268.179C285.555 267.82 287.564 267.961 289.155 268.962C290.594 269.871 291.544 271.334 291.9 272.988C292.331 275.053 291.919 277.205 290.751 278.963C289.758 280.442 288.251 281.482 286.476 281.756C285.553 281.899 284.791 281.747 283.896 281.541L283.521 281.456L283.296 281.405C282.635 281.25 282.014 281.086 281.426 280.737C279.836 279.792 278.651 278.346 278.208 276.539C277.781 274.788 278.001 272.796 278.967 271.256C280.083 269.478 281.782 268.678 283.751 268.179Z" fill="#F6F3EA"/>
<path d="M284.455 268.179C286.259 267.82 288.268 267.961 289.859 268.962C291.298 269.871 292.248 271.334 292.604 272.988C293.035 275.053 292.623 277.205 291.455 278.963C290.462 280.442 288.955 281.482 287.18 281.756C286.257 281.899 285.495 281.747 284.6 281.541L284.225 281.456L284 281.405C285.228 281.154 286.559 280.868 287.698 280.334C289.327 279.572 290.818 278.33 291.42 276.586C291.92 275.133 291.702 273.551 290.963 272.222C289.517 269.628 287.087 268.953 284.455 268.179Z" fill="#92938F"/>
<path d="M151.446 279.696C150.317 276.354 150.607 272.89 152.167 269.723C153.059 267.912 155.036 265.244 157.007 264.534C159.758 263.545 164.972 264.464 167.487 265.755C169.961 267.016 171.826 269.215 172.665 271.861C173.62 274.912 173.449 278.583 171.949 281.421C170.719 283.746 168.541 285.621 165.993 286.334C162.937 287.189 159.292 286.774 156.567 285.157C155.62 284.594 154.831 283.924 154.067 283.137C153.96 283.16 153.855 283.193 153.746 283.207C153.231 283.266 152.799 283.125 152.425 282.757C151.609 281.955 151.408 280.791 151.446 279.696Z" fill="#0B1316"/>
<path d="M151.443 279.698C152.372 280.809 153.16 282.014 154.065 283.139C153.958 283.162 153.852 283.195 153.743 283.209C153.229 283.268 152.796 283.127 152.422 282.759C151.606 281.958 151.406 280.793 151.443 279.698Z" fill="#242D30"/>
<path d="M161.255 268.024C162.904 267.933 164.335 268.066 165.748 269.006C168.043 270.53 168.66 273.127 169.144 275.658C168.593 277.188 167.995 278.7 166.838 279.884C165.226 281.534 163.217 281.801 161.031 281.829C159.193 281.353 157.858 280.139 156.585 278.775L156.407 278.58L156.936 279.448C156.151 278.902 155.56 277.945 155.269 277.045C154.793 275.573 154.964 273.933 155.665 272.564C156.722 270.499 159.082 268.704 161.255 268.024Z" fill="#F6F3EA"/>
<path d="M218.017 260.77C217.605 260.365 216.958 260.041 216.487 259.673C214.263 257.946 212.538 256.005 211.97 253.146C211.403 250.287 212.2 247.108 213.846 244.727C215.499 242.339 218.28 240.874 221.12 240.459C223.968 240.042 227.003 240.621 229.305 242.407C231.327 243.977 233.186 247.036 233.479 249.64C233.516 249.989 233.528 250.188 233.643 250.537C233.671 250.624 233.709 250.708 233.741 250.795L234.138 250.737C235.049 252.757 235.038 254.641 234.187 256.715C233.156 259.235 231.191 261.255 228.653 262.247C225.836 263.346 221.784 263.315 219.023 262.019C218.554 261.799 218.17 261.534 217.759 261.22L217.764 260.925L218.017 260.77Z" fill="#0B1316"/>
<path d="M233.741 250.795L234.137 250.737C235.049 252.757 235.037 254.642 234.187 256.716C233.155 259.235 231.191 261.256 228.653 262.247C225.836 263.346 221.783 263.316 219.023 262.02C218.554 261.799 218.169 261.534 217.759 261.22L217.764 260.925L218.017 260.77C219.564 261.527 221.033 261.989 222.77 262.006C225.646 262.029 228.768 260.775 230.805 258.738C232.898 256.643 233.8 253.699 233.741 250.795Z" fill="#3B4244"/>
<path d="M215.836 249.474C215.934 249.291 216.034 249.108 216.129 248.925C216.305 248.578 216.466 248.229 216.657 247.889C217.581 246.244 219.365 244.887 221.202 244.442C223.574 243.867 225.726 244.777 227.699 246.042C228.182 246.312 228.531 246.495 228.705 247.057C228.995 248.002 229.084 249.019 229.359 249.98C229.769 251.426 229.67 252.851 228.904 254.168C228.013 255.701 226.338 256.856 224.62 257.248C222.623 257.702 220.563 257.084 218.88 255.989C217.246 254.927 216.159 253.331 215.785 251.407C215.66 250.76 215.739 250.12 215.836 249.474Z" fill="#242D30"/>
<path d="M218.835 248.407C221.191 247.341 223.605 246.385 226.171 247.416C227.387 247.903 228.133 248.66 228.948 249.659C227.69 252.214 226.649 254.391 224.622 256.451C223.354 256.491 222.13 256.566 220.872 256.744C220.241 255.945 219.149 253.852 218.409 253.374C218.357 253.228 218.303 253.083 218.254 252.935C217.677 251.229 218.041 249.964 218.835 248.407Z" fill="#0B1316"/>
<path d="M215.832 249.471C215.929 249.288 216.029 249.106 216.124 248.923C216.3 248.576 216.461 248.227 216.652 247.887C217.576 246.241 219.36 244.884 221.198 244.439C223.569 243.865 225.721 244.774 227.694 246.04C227.547 246.056 227.399 246.075 227.251 246.089C224.701 246.326 221.603 245.056 219.543 247.291C219.203 247.657 219.039 247.966 218.83 248.407C218.036 249.963 217.673 251.229 218.249 252.935C218.298 253.083 218.352 253.228 218.404 253.373C218.019 253.519 218.23 253.502 217.766 253.338C216.823 252.223 215.84 250.99 215.832 249.471Z" fill="#3B4244"/>
<path d="M116.735 273.956C120.978 272.867 125.303 275.414 126.406 279.654C127.51 283.892 124.978 288.225 120.743 289.345C116.486 290.471 112.126 287.92 111.017 283.662C109.908 279.401 112.471 275.051 116.735 273.956Z" fill="#F6F3EA"/>
<path d="M129.801 278.124C130.045 278.149 130.56 278.163 130.806 278.267C131.313 278.48 131.456 279.007 131.591 279.492C132.473 282.68 131.503 286.62 129.783 289.378C127.945 292.329 124.879 294.549 121.479 295.303C118.498 295.964 115.59 295.484 113.014 293.864C111.961 293.194 111.068 292.425 110.142 291.595C112.46 292.678 114.724 293.552 117.321 293.613C120.347 293.684 122.937 292.758 125.129 290.658C128.767 287.17 129.673 282.987 129.801 278.124Z" fill="#3B4244"/>
<path d="M6.14811 195.469C6.39481 195.72 6.40203 195.966 6.43057 196.327C6.62529 198.785 6.43592 201.408 6.43545 203.887L6.43568 219.497L6.46943 266.538C6.46803 267.124 6.57022 267.809 6.17864 268.256L5.65983 267.78C5.24539 267.363 4.509 266.705 4.39179 266.105C3.99837 264.091 4.22796 261.548 4.22804 259.486L4.2439 246.579L4.18969 197.655L6.14811 195.469Z" fill="#262829"/>
<path d="M440.767 197.278C441.362 197.724 441.866 198.434 442.356 199.001C442.565 211.629 442.345 224.297 442.349 236.928C442.349 244.983 442.773 253.617 442.246 261.612C442.152 263.039 441.918 264.185 441.355 265.514C441.152 265.868 441.29 265.683 440.903 266.035C440.345 264.91 440.545 204.467 440.767 197.278Z" fill="#262829"/>
<path d="M316.391 116.181C316.509 116.166 316.627 116.15 316.745 116.136C321.081 115.637 326.631 116.485 330.118 119.136C329.369 119.307 328.542 119.456 327.836 119.752C326.869 120.158 326.053 121.234 325.713 122.181C325.334 123.237 325.44 124.39 325.96 125.382C326.83 127.041 328.151 127.55 329.88 128.064C330.497 127.901 331.149 127.749 331.727 127.48C333.171 126.806 333.944 125.511 334.402 124.07C334.559 123.578 334.671 123.192 334.966 122.756C335.55 122.937 335.777 123.224 336.176 123.673C338.668 126.479 342.972 133.313 342.758 136.969C342.166 137.611 338.865 136.508 337.285 137.11C336.44 137.432 335.881 138.052 335.58 138.878C335.127 140.12 335.066 142.03 335.708 143.225C337.162 145.927 340.28 144.111 342.423 144.827C342.923 145.436 343.065 145.819 342.975 146.608C342.477 150.976 338.374 156.496 334.928 159.193C334.404 158.023 333.818 156.659 332.76 155.847C331.766 155.083 330.537 154.699 329.275 154.868C328.032 155.034 326.861 155.684 326.165 156.714C325.571 157.592 325.383 158.673 325.646 159.693C326.143 161.661 327.566 162.423 329.228 163.37C325.793 165.243 322.306 165.886 318.408 166C315.077 166.012 311.342 165.002 308.435 163.428C309.397 162.629 310.456 161.724 311.05 160.616C311.561 159.665 311.784 158.527 311.432 157.487C311.094 156.484 310.297 155.707 309.315 155.289C308.152 154.793 306.869 154.843 305.712 155.323C303.798 156.117 302.408 157.796 301.674 159.651C300.991 159.121 300.343 158.55 299.733 157.942C295.844 154.049 293.266 148.944 293.318 143.459C294.477 144.163 295.566 144.772 296.839 145.266C297.27 145.144 297.697 145.01 298.12 144.867C299.387 144.428 300.451 143.552 300.994 142.334C301.419 141.375 301.425 140.289 301.009 139.327C300.567 138.312 299.715 137.521 298.655 137.14C296.563 136.383 294.847 137.274 293 138.157C293.466 133.785 295.402 129.73 298.038 126.2C298.96 124.966 300.555 122.576 302.234 122.424C302.342 122.414 302.472 122.359 302.559 122.423C302.745 122.559 303.381 126.015 304.85 127.16C305.752 127.862 306.733 127.966 307.844 127.781C309.08 127.574 310.327 127.099 311.019 126.019C311.602 125.109 311.67 123.972 311.433 122.944C310.968 120.93 309.845 119.888 308.133 118.816C310.802 117.198 313.298 116.59 316.391 116.181Z" fill="#111111" class="reel-right"/>
<!-- SIDE右侧的A字母 -->
    <text x="246" y="280" text-anchor="middle" dominant-baseline="middle"
        font-family="Arial, sans-serif" font-size="16" font-weight="bold"
        fill="#FFFFFF">{{SIDE_LETTER}}</text>
<path d="M213.625 275.18H210.57V274.242C210.57 273.805 210.531 273.526 210.453 273.406C210.375 273.286 210.245 273.227 210.062 273.227C209.865 273.227 209.714 273.307 209.609 273.469C209.51 273.63 209.461 273.875 209.461 274.203C209.461 274.625 209.518 274.943 209.633 275.156C209.742 275.37 210.052 275.628 210.562 275.93C212.026 276.799 212.948 277.513 213.328 278.07C213.708 278.628 213.898 279.526 213.898 280.766C213.898 281.667 213.792 282.331 213.578 282.758C213.37 283.185 212.964 283.544 212.359 283.836C211.755 284.122 211.052 284.266 210.25 284.266C209.37 284.266 208.617 284.099 207.992 283.766C207.372 283.432 206.966 283.008 206.773 282.492C206.581 281.977 206.484 281.245 206.484 280.297V279.469H209.539V281.008C209.539 281.482 209.581 281.786 209.664 281.922C209.753 282.057 209.906 282.125 210.125 282.125C210.344 282.125 210.505 282.039 210.609 281.867C210.719 281.695 210.773 281.44 210.773 281.102C210.773 280.357 210.672 279.87 210.469 279.641C210.26 279.411 209.747 279.029 208.93 278.492C208.112 277.951 207.57 277.557 207.305 277.312C207.039 277.068 206.818 276.729 206.641 276.297C206.469 275.865 206.383 275.312 206.383 274.641C206.383 273.672 206.505 272.964 206.75 272.516C207 272.068 207.401 271.719 207.953 271.469C208.505 271.214 209.172 271.086 209.953 271.086C210.807 271.086 211.534 271.224 212.133 271.5C212.737 271.776 213.135 272.125 213.328 272.547C213.526 272.964 213.625 273.674 213.625 274.68V275.18ZM218.227 271.352V284H214.938V271.352H218.227ZM219.547 271.352H222.008C223.596 271.352 224.669 271.424 225.227 271.57C225.789 271.716 226.216 271.956 226.508 272.289C226.799 272.622 226.982 272.995 227.055 273.406C227.128 273.812 227.164 274.615 227.164 275.812V280.242C227.164 281.378 227.109 282.138 227 282.523C226.896 282.904 226.711 283.203 226.445 283.422C226.18 283.635 225.852 283.786 225.461 283.875C225.07 283.958 224.482 284 223.695 284H219.547V271.352ZM222.836 273.516V281.836C223.31 281.836 223.602 281.742 223.711 281.555C223.82 281.362 223.875 280.844 223.875 280V275.086C223.875 274.513 223.857 274.146 223.82 273.984C223.784 273.823 223.701 273.706 223.57 273.633C223.44 273.555 223.195 273.516 222.836 273.516ZM228.391 271.352H233.875V273.883H231.68V276.281H233.734V278.688H231.68V281.469H234.094V284H228.391V271.352Z" fill="#FFFFFF"/>
<path d="M119.984 54.0273H123.477C125.805 54.0273 127.379 54.1172 128.199 54.2969C129.027 54.4766 129.699 54.9375 130.215 55.6797C130.738 56.4141 131 57.5898 131 59.207C131 60.6836 130.816 61.6758 130.449 62.1836C130.082 62.6914 129.359 62.9961 128.281 63.0977C129.258 63.3398 129.914 63.6641 130.25 64.0703C130.586 64.4766 130.793 64.8516 130.871 65.1953C130.957 65.5312 131 66.4648 131 67.9961V73H126.418V66.6953C126.418 65.6797 126.336 65.0508 126.172 64.8086C126.016 64.5664 125.598 64.4453 124.918 64.4453V73H119.984V54.0273ZM124.918 57.2734V61.4922C125.473 61.4922 125.859 61.418 126.078 61.2695C126.305 61.1133 126.418 60.6172 126.418 59.7812V58.7383C126.418 58.1367 126.309 57.7422 126.09 57.5547C125.879 57.3672 125.488 57.2734 124.918 57.2734ZM145.438 65.793V68.9922L144.102 69.8359L145.766 73H141.395L140.82 71.9453C139.352 72.9141 137.961 73.3984 136.648 73.3984C135.273 73.3984 134.215 72.9414 133.473 72.0273C132.73 71.1133 132.359 70.0117 132.359 68.7227C132.359 67.6914 132.578 66.8828 133.016 66.2969C133.453 65.7109 134.109 65.2344 134.984 64.8672C133.734 63.9688 133.109 62.7539 133.109 61.2227C133.109 59.9023 133.555 58.8398 134.445 58.0352C135.336 57.2305 136.562 56.8281 138.125 56.8281C139.531 56.8281 140.637 57.2227 141.441 58.0117C142.254 58.8008 142.66 59.8047 142.66 61.0234C142.66 62.3047 142.168 63.4414 141.184 64.4336L142.859 67.457L145.438 65.793ZM138.137 62.4648C138.668 61.7695 138.934 61.1055 138.934 60.4727C138.934 60.1992 138.855 59.9492 138.699 59.7227C138.543 59.4961 138.324 59.3828 138.043 59.3828C137.785 59.3828 137.59 59.4688 137.457 59.6406C137.324 59.8125 137.258 60.0742 137.258 60.4258C137.258 61.1602 137.551 61.8398 138.137 62.4648ZM139.203 69.8008L137.668 67.2461C137.082 67.7773 136.789 68.3516 136.789 68.9688C136.789 69.4141 136.879 69.75 137.059 69.9766C137.246 70.1953 137.52 70.3047 137.879 70.3047C138.262 70.3047 138.703 70.1367 139.203 69.8008ZM146.75 54.0273H151.672C153.227 54.0273 154.402 54.1484 155.199 54.3906C156.004 54.6328 156.652 55.125 157.145 55.8672C157.637 56.6016 157.883 57.7891 157.883 59.4297C157.883 60.5391 157.707 61.3125 157.355 61.75C157.012 62.1875 156.328 62.5234 155.305 62.7578C156.445 63.0156 157.219 63.4453 157.625 64.0469C158.031 64.6406 158.234 65.5547 158.234 66.7891V68.5469C158.234 69.8281 158.086 70.7773 157.789 71.3945C157.5 72.0117 157.035 72.4336 156.395 72.6602C155.754 72.8867 154.441 73 152.457 73H146.75V54.0273ZM151.684 57.2734V61.4922C151.895 61.4844 152.059 61.4805 152.176 61.4805C152.66 61.4805 152.969 61.3633 153.102 61.1289C153.234 60.8867 153.301 60.2031 153.301 59.0781C153.301 58.4844 153.246 58.0703 153.137 57.8359C153.027 57.5938 152.883 57.4414 152.703 57.3789C152.531 57.3164 152.191 57.2812 151.684 57.2734ZM151.684 64.4453V69.7539C152.379 69.7305 152.82 69.6211 153.008 69.4258C153.203 69.2305 153.301 68.75 153.301 67.9844V66.2148C153.301 65.4023 153.215 64.9102 153.043 64.7383C152.871 64.5664 152.418 64.4688 151.684 64.4453ZM179.48 54.0273V73H175.168V60.1914L173.445 73H170.387L168.57 60.4844V73H164.258V54.0273H170.645C170.832 55.168 171.031 56.5117 171.242 58.0586L171.922 62.8867L173.047 54.0273H179.48ZM192.16 57.4492V73H187.344L187.426 71.7109C187.098 72.2344 186.691 72.6289 186.207 72.8945C185.73 73.1523 185.18 73.2812 184.555 73.2812C183.844 73.2812 183.254 73.1562 182.785 72.9062C182.316 72.6562 181.969 72.3242 181.742 71.9102C181.523 71.4961 181.387 71.0664 181.332 70.6211C181.277 70.168 181.25 69.2734 181.25 67.9375V57.4492H185.984V68.0312C185.984 69.2422 186.02 69.9609 186.09 70.1875C186.168 70.4141 186.371 70.5273 186.699 70.5273C187.051 70.5273 187.258 70.4102 187.32 70.1758C187.391 69.9414 187.426 69.1875 187.426 67.9141V57.4492H192.16ZM203.527 62.418H199.332V61.5742C199.332 60.8555 199.289 60.4023 199.203 60.2148C199.125 60.0195 198.922 59.9219 198.594 59.9219C198.328 59.9219 198.129 60.0117 197.996 60.1914C197.863 60.3633 197.797 60.625 197.797 60.9766C197.797 61.4531 197.828 61.8047 197.891 62.0312C197.961 62.25 198.16 62.4922 198.488 62.7578C198.824 63.0234 199.508 63.4102 200.539 63.918C201.914 64.5898 202.816 65.2227 203.246 65.8164C203.676 66.4102 203.891 67.2734 203.891 68.4062C203.891 69.6719 203.727 70.6289 203.398 71.2773C203.07 71.918 202.52 72.4141 201.746 72.7656C200.98 73.1094 200.055 73.2812 198.969 73.2812C197.766 73.2812 196.734 73.0938 195.875 72.7188C195.023 72.3438 194.438 71.8359 194.117 71.1953C193.797 70.5547 193.637 69.5859 193.637 68.2891V67.5391H197.832V68.5234C197.832 69.3594 197.883 69.9023 197.984 70.1523C198.094 70.4023 198.305 70.5273 198.617 70.5273C198.953 70.5273 199.188 70.4453 199.32 70.2812C199.453 70.1094 199.52 69.7539 199.52 69.2148C199.52 68.4727 199.434 68.0078 199.262 67.8203C199.082 67.6328 198.164 67.0781 196.508 66.1562C195.117 65.375 194.27 64.668 193.965 64.0352C193.66 63.3945 193.508 62.6367 193.508 61.7617C193.508 60.5195 193.672 59.6055 194 59.0195C194.328 58.4258 194.883 57.9688 195.664 57.6484C196.453 57.3281 197.367 57.168 198.406 57.168C199.438 57.168 200.312 57.3008 201.031 57.5664C201.758 57.8242 202.312 58.168 202.695 58.5977C203.086 59.0273 203.32 59.4258 203.398 59.793C203.484 60.1602 203.527 60.7344 203.527 61.5156V62.418ZM210.031 54.0273V56.5H205.156V54.0273H210.031ZM210.031 57.4492V73H205.156V57.4492H210.031ZM222.207 63.3203H217.742V61.5273C217.742 60.9023 217.691 60.4805 217.59 60.2617C217.488 60.0352 217.301 59.9219 217.027 59.9219C216.754 59.9219 216.57 60.0195 216.477 60.2148C216.383 60.4102 216.336 60.8477 216.336 61.5273V68.8633C216.336 69.418 216.406 69.8359 216.547 70.1172C216.688 70.3906 216.895 70.5273 217.168 70.5273C217.488 70.5273 217.703 70.3828 217.812 70.0938C217.93 69.8047 217.988 69.2578 217.988 68.4531V66.6016H222.207C222.199 67.8438 222.152 68.7773 222.066 69.4023C221.988 70.0195 221.727 70.6562 221.281 71.3125C220.844 71.9609 220.27 72.4531 219.559 72.7891C218.848 73.1172 217.969 73.2812 216.922 73.2812C215.586 73.2812 214.527 73.0547 213.746 72.6016C212.965 72.1406 212.41 71.5 212.082 70.6797C211.762 69.8516 211.602 68.6797 211.602 67.1641V62.7461C211.602 61.4258 211.734 60.4297 212 59.7578C212.266 59.0859 212.832 58.4883 213.699 57.9648C214.566 57.4336 215.621 57.168 216.863 57.168C218.098 57.168 219.152 57.4297 220.027 57.9531C220.902 58.4766 221.484 59.1367 221.773 59.9336C222.062 60.7305 222.207 61.8594 222.207 63.3203ZM239.328 61.0117H234.395V59.2891C234.395 58.2031 234.348 57.5234 234.254 57.25C234.16 56.9766 233.938 56.8398 233.586 56.8398C233.281 56.8398 233.074 56.957 232.965 57.1914C232.855 57.4258 232.801 58.0273 232.801 58.9961V68.1016C232.801 68.9531 232.855 69.5156 232.965 69.7891C233.074 70.0547 233.293 70.1875 233.621 70.1875C233.98 70.1875 234.223 70.0352 234.348 69.7305C234.48 69.4258 234.547 68.832 234.547 67.9492V65.6992H233.551V62.8164H239.328V73H236.223L235.766 71.6406C235.43 72.2266 235.004 72.668 234.488 72.9648C233.98 73.2539 233.379 73.3984 232.684 73.3984C231.855 73.3984 231.078 73.1992 230.352 72.8008C229.633 72.3945 229.086 71.8945 228.711 71.3008C228.336 70.707 228.102 70.0859 228.008 69.4375C227.914 68.7812 227.867 67.8008 227.867 66.4961V60.8594C227.867 59.0469 227.965 57.7305 228.16 56.9102C228.355 56.0898 228.914 55.3398 229.836 54.6602C230.766 53.9727 231.965 53.6289 233.434 53.6289C234.879 53.6289 236.078 53.9258 237.031 54.5195C237.984 55.1133 238.605 55.8203 238.895 56.6406C239.184 57.4531 239.328 58.6367 239.328 60.1914V61.0117ZM251.832 65.5H245.703V68.8633C245.703 69.5664 245.754 70.0195 245.855 70.2227C245.957 70.4258 246.152 70.5273 246.441 70.5273C246.801 70.5273 247.039 70.3945 247.156 70.1289C247.281 69.8555 247.344 69.332 247.344 68.5586V66.5078H251.832V67.6562C251.832 68.6172 251.77 69.3555 251.645 69.8711C251.527 70.3867 251.246 70.9375 250.801 71.5234C250.355 72.1094 249.789 72.5508 249.102 72.8477C248.422 73.1367 247.566 73.2812 246.535 73.2812C245.535 73.2812 244.652 73.1367 243.887 72.8477C243.121 72.5586 242.523 72.1641 242.094 71.6641C241.672 71.1562 241.379 70.6016 241.215 70C241.051 69.3906 240.969 68.5078 240.969 67.3516V62.8164C240.969 61.457 241.152 60.3867 241.52 59.6055C241.887 58.8164 242.488 58.2148 243.324 57.8008C244.16 57.3789 245.121 57.168 246.207 57.168C247.535 57.168 248.629 57.4219 249.488 57.9297C250.355 58.4297 250.961 59.0977 251.305 59.9336C251.656 60.7617 251.832 61.9297 251.832 63.4375V65.5ZM247.086 62.9688V61.832C247.086 61.0273 247.043 60.5078 246.957 60.2734C246.871 60.0391 246.695 59.9219 246.43 59.9219C246.102 59.9219 245.898 60.0234 245.82 60.2266C245.742 60.4219 245.703 60.957 245.703 61.832V62.9688H247.086ZM258.207 57.4492L258.125 58.8789C258.469 58.3086 258.887 57.8828 259.379 57.6016C259.879 57.3125 260.453 57.168 261.102 57.168C261.914 57.168 262.578 57.3594 263.094 57.7422C263.609 58.125 263.941 58.6094 264.09 59.1953C264.238 59.7734 264.312 60.7422 264.312 62.1016V73H259.578V62.2305C259.578 61.1602 259.543 60.5078 259.473 60.2734C259.402 60.0391 259.207 59.9219 258.887 59.9219C258.551 59.9219 258.34 60.0586 258.254 60.332C258.168 60.5977 258.125 61.3164 258.125 62.4883V73H253.391V57.4492H258.207ZM276.676 65.5H270.547V68.8633C270.547 69.5664 270.598 70.0195 270.699 70.2227C270.801 70.4258 270.996 70.5273 271.285 70.5273C271.645 70.5273 271.883 70.3945 272 70.1289C272.125 69.8555 272.188 69.332 272.188 68.5586V66.5078H276.676V67.6562C276.676 68.6172 276.613 69.3555 276.488 69.8711C276.371 70.3867 276.09 70.9375 275.645 71.5234C275.199 72.1094 274.633 72.5508 273.945 72.8477C273.266 73.1367 272.41 73.2812 271.379 73.2812C270.379 73.2812 269.496 73.1367 268.73 72.8477C267.965 72.5586 267.367 72.1641 266.938 71.6641C266.516 71.1562 266.223 70.6016 266.059 70C265.895 69.3906 265.812 68.5078 265.812 67.3516V62.8164C265.812 61.457 265.996 60.3867 266.363 59.6055C266.73 58.8164 267.332 58.2148 268.168 57.8008C269.004 57.3789 269.965 57.168 271.051 57.168C272.379 57.168 273.473 57.4219 274.332 57.9297C275.199 58.4297 275.805 59.0977 276.148 59.9336C276.5 60.7617 276.676 61.9297 276.676 63.4375V65.5ZM271.93 62.9688V61.832C271.93 61.0273 271.887 60.5078 271.801 60.2734C271.715 60.0391 271.539 59.9219 271.273 59.9219C270.945 59.9219 270.742 60.0234 270.664 60.2266C270.586 60.4219 270.547 60.957 270.547 61.832V62.9688H271.93ZM282.969 57.4492L282.781 59.4883C283.469 58.0273 284.465 57.2539 285.77 57.168V62.6406C284.902 62.6406 284.266 62.7578 283.859 62.9922C283.453 63.2266 283.203 63.5547 283.109 63.9766C283.016 64.3906 282.969 65.3516 282.969 66.8594V73H278.234V57.4492H282.969ZM291.066 63.4727H286.625V62.4297C286.625 61.2266 286.762 60.3008 287.035 59.6523C287.316 58.9961 287.875 58.418 288.711 57.918C289.547 57.418 290.633 57.168 291.969 57.168C293.57 57.168 294.777 57.4531 295.59 58.0234C296.402 58.5859 296.891 59.2812 297.055 60.1094C297.219 60.9297 297.301 62.625 297.301 65.1953V73H292.695V71.6172C292.406 72.1719 292.031 72.5898 291.57 72.8711C291.117 73.1445 290.574 73.2812 289.941 73.2812C289.113 73.2812 288.352 73.0508 287.656 72.5898C286.969 72.1211 286.625 71.1016 286.625 69.5312V68.2539C286.625 67.0898 286.809 66.2969 287.176 65.875C287.543 65.4531 288.453 64.9609 289.906 64.3984C291.461 63.7891 292.293 63.3789 292.402 63.168C292.512 62.957 292.566 62.5273 292.566 61.8789C292.566 61.0664 292.504 60.5391 292.379 60.2969C292.262 60.0469 292.062 59.9219 291.781 59.9219C291.461 59.9219 291.262 60.0273 291.184 60.2383C291.105 60.4414 291.066 60.9766 291.066 61.8438V63.4727ZM292.566 65.6055C291.809 66.1602 291.367 66.625 291.242 67C291.125 67.375 291.066 67.9141 291.066 68.6172C291.066 69.4219 291.117 69.9414 291.219 70.1758C291.328 70.4102 291.539 70.5273 291.852 70.5273C292.148 70.5273 292.34 70.4375 292.426 70.2578C292.52 70.0703 292.566 69.5859 292.566 68.8047V65.6055ZM303.922 55.375V57.8242H305.199V60.2852H303.922V68.6055C303.922 69.6289 303.973 70.1992 304.074 70.3164C304.184 70.4336 304.625 70.4922 305.398 70.4922V73H303.488C302.41 73 301.641 72.957 301.18 72.8711C300.719 72.7773 300.312 72.5703 299.961 72.25C299.609 71.9219 299.391 71.5508 299.305 71.1367C299.219 70.7148 299.176 69.7305 299.176 68.1836V60.2852H298.156V57.8242H299.176V55.375H303.922ZM316.953 62.9102V66.7188C316.953 68.1172 316.883 69.1445 316.742 69.8008C316.602 70.4492 316.301 71.0586 315.84 71.6289C315.379 72.1914 314.785 72.6094 314.059 72.8828C313.34 73.1484 312.512 73.2812 311.574 73.2812C310.527 73.2812 309.641 73.168 308.914 72.9414C308.188 72.707 307.621 72.3594 307.215 71.8984C306.816 71.4297 306.531 70.8672 306.359 70.2109C306.188 69.5469 306.102 68.5547 306.102 67.2344V63.25C306.102 61.8047 306.258 60.6758 306.57 59.8633C306.883 59.0508 307.445 58.3984 308.258 57.9062C309.07 57.4141 310.109 57.168 311.375 57.168C312.438 57.168 313.348 57.3281 314.105 57.6484C314.871 57.9609 315.461 58.3711 315.875 58.8789C316.289 59.3867 316.57 59.9102 316.719 60.4492C316.875 60.9883 316.953 61.8086 316.953 62.9102ZM312.219 61.7383C312.219 60.9414 312.176 60.4414 312.09 60.2383C312.004 60.0273 311.82 59.9219 311.539 59.9219C311.258 59.9219 311.07 60.0273 310.977 60.2383C310.883 60.4414 310.836 60.9414 310.836 61.7383V68.7578C310.836 69.4922 310.883 69.9727 310.977 70.1992C311.07 70.418 311.254 70.5273 311.527 70.5273C311.809 70.5273 311.992 70.4258 312.078 70.2227C312.172 70.0195 312.219 69.582 312.219 68.9102V61.7383ZM323.258 57.4492L323.07 59.4883C323.758 58.0273 324.754 57.2539 326.059 57.168V62.6406C325.191 62.6406 324.555 62.7578 324.148 62.9922C323.742 63.2266 323.492 63.5547 323.398 63.9766C323.305 64.3906 323.258 65.3516 323.258 66.8594V73H318.523V57.4492H323.258Z" fill="black"/>
<path d="M77.2031 198.008H73.9141V196.859C73.9141 196.135 73.8828 195.682 73.8203 195.5C73.7578 195.318 73.6094 195.227 73.375 195.227C73.1719 195.227 73.0339 195.305 72.9609 195.461C72.888 195.617 72.8516 196.018 72.8516 196.664V202.734C72.8516 203.302 72.888 203.677 72.9609 203.859C73.0339 204.036 73.1797 204.125 73.3984 204.125C73.638 204.125 73.7995 204.023 73.8828 203.82C73.9714 203.617 74.0156 203.221 74.0156 202.633V201.133H73.3516V199.211H77.2031V206H75.1328L74.8281 205.094C74.6042 205.484 74.3203 205.779 73.9766 205.977C73.638 206.169 73.237 206.266 72.7734 206.266C72.2214 206.266 71.7031 206.133 71.2188 205.867C70.7396 205.596 70.375 205.263 70.125 204.867C69.875 204.471 69.7188 204.057 69.6562 203.625C69.5938 203.188 69.5625 202.534 69.5625 201.664V197.906C69.5625 196.698 69.6276 195.82 69.7578 195.273C69.888 194.727 70.2604 194.227 70.875 193.773C71.4948 193.315 72.2943 193.086 73.2734 193.086C74.237 193.086 75.0365 193.284 75.6719 193.68C76.3073 194.076 76.7214 194.547 76.9141 195.094C77.1068 195.635 77.2031 196.424 77.2031 197.461V198.008ZM85.5391 201H81.4531V203.242C81.4531 203.711 81.487 204.013 81.5547 204.148C81.6224 204.284 81.7526 204.352 81.9453 204.352C82.1849 204.352 82.3438 204.263 82.4219 204.086C82.5052 203.904 82.5469 203.555 82.5469 203.039V201.672H85.5391V202.438C85.5391 203.078 85.4974 203.57 85.4141 203.914C85.3359 204.258 85.1484 204.625 84.8516 205.016C84.5547 205.406 84.1771 205.701 83.7188 205.898C83.2656 206.091 82.6953 206.188 82.0078 206.188C81.3411 206.188 80.7526 206.091 80.2422 205.898C79.7318 205.706 79.3333 205.443 79.0469 205.109C78.7656 204.771 78.5703 204.401 78.4609 204C78.3516 203.594 78.2969 203.005 78.2969 202.234V199.211C78.2969 198.305 78.4193 197.591 78.6641 197.07C78.9089 196.544 79.3099 196.143 79.8672 195.867C80.4245 195.586 81.0651 195.445 81.7891 195.445C82.6745 195.445 83.4036 195.615 83.9766 195.953C84.5547 196.286 84.9583 196.732 85.1875 197.289C85.4219 197.841 85.5391 198.62 85.5391 199.625V201ZM82.375 199.312V198.555C82.375 198.018 82.3464 197.672 82.2891 197.516C82.2318 197.359 82.1146 197.281 81.9375 197.281C81.7188 197.281 81.5833 197.349 81.5312 197.484C81.4792 197.615 81.4531 197.971 81.4531 198.555V199.312H82.375ZM89.7891 195.633L89.7344 196.586C89.9635 196.206 90.2422 195.922 90.5703 195.734C90.9036 195.542 91.2865 195.445 91.7188 195.445C92.2604 195.445 92.7031 195.573 93.0469 195.828C93.3906 196.083 93.612 196.406 93.7109 196.797C93.8099 197.182 93.8594 197.828 93.8594 198.734V206H90.7031V198.82C90.7031 198.107 90.6797 197.672 90.6328 197.516C90.5859 197.359 90.4557 197.281 90.2422 197.281C90.0182 197.281 89.8776 197.372 89.8203 197.555C89.763 197.732 89.7344 198.211 89.7344 198.992V206H86.5781V195.633H89.7891ZM102.102 201H98.0156V203.242C98.0156 203.711 98.0495 204.013 98.1172 204.148C98.1849 204.284 98.3151 204.352 98.5078 204.352C98.7474 204.352 98.9062 204.263 98.9844 204.086C99.0677 203.904 99.1094 203.555 99.1094 203.039V201.672H102.102V202.438C102.102 203.078 102.06 203.57 101.977 203.914C101.898 204.258 101.711 204.625 101.414 205.016C101.117 205.406 100.74 205.701 100.281 205.898C99.8281 206.091 99.2578 206.188 98.5703 206.188C97.9036 206.188 97.3151 206.091 96.8047 205.898C96.2943 205.706 95.8958 205.443 95.6094 205.109C95.3281 204.771 95.1328 204.401 95.0234 204C94.9141 203.594 94.8594 203.005 94.8594 202.234V199.211C94.8594 198.305 94.9818 197.591 95.2266 197.07C95.4714 196.544 95.8724 196.143 96.4297 195.867C96.987 195.586 97.6276 195.445 98.3516 195.445C99.237 195.445 99.9661 195.615 100.539 195.953C101.117 196.286 101.521 196.732 101.75 197.289C101.984 197.841 102.102 198.62 102.102 199.625V201ZM98.9375 199.312V198.555C98.9375 198.018 98.9089 197.672 98.8516 197.516C98.7943 197.359 98.6771 197.281 98.5 197.281C98.2812 197.281 98.1458 197.349 98.0938 197.484C98.0417 197.615 98.0156 197.971 98.0156 198.555V199.312H98.9375ZM106.297 195.633L106.172 196.992C106.63 196.018 107.294 195.503 108.164 195.445V199.094C107.586 199.094 107.161 199.172 106.891 199.328C106.62 199.484 106.453 199.703 106.391 199.984C106.328 200.26 106.297 200.901 106.297 201.906V206H103.141V195.633H106.297ZM111.695 199.648H108.734V198.953C108.734 198.151 108.826 197.534 109.008 197.102C109.195 196.664 109.568 196.279 110.125 195.945C110.682 195.612 111.406 195.445 112.297 195.445C113.365 195.445 114.169 195.635 114.711 196.016C115.253 196.391 115.578 196.854 115.688 197.406C115.797 197.953 115.852 199.083 115.852 200.797V206H112.781V205.078C112.589 205.448 112.339 205.727 112.031 205.914C111.729 206.096 111.367 206.188 110.945 206.188C110.393 206.188 109.885 206.034 109.422 205.727C108.964 205.414 108.734 204.734 108.734 203.688V202.836C108.734 202.06 108.857 201.531 109.102 201.25C109.346 200.969 109.953 200.641 110.922 200.266C111.958 199.859 112.513 199.586 112.586 199.445C112.659 199.305 112.695 199.018 112.695 198.586C112.695 198.044 112.654 197.693 112.57 197.531C112.492 197.365 112.359 197.281 112.172 197.281C111.958 197.281 111.826 197.352 111.773 197.492C111.721 197.628 111.695 197.984 111.695 198.562V199.648ZM112.695 201.07C112.19 201.44 111.896 201.75 111.812 202C111.734 202.25 111.695 202.609 111.695 203.078C111.695 203.615 111.729 203.961 111.797 204.117C111.87 204.273 112.01 204.352 112.219 204.352C112.417 204.352 112.544 204.292 112.602 204.172C112.664 204.047 112.695 203.724 112.695 203.203V201.07ZM120.266 194.25V195.883H121.117V197.523H120.266V203.07C120.266 203.753 120.299 204.133 120.367 204.211C120.44 204.289 120.734 204.328 121.25 204.328V206H119.977C119.258 206 118.745 205.971 118.438 205.914C118.13 205.852 117.859 205.714 117.625 205.5C117.391 205.281 117.245 205.034 117.188 204.758C117.13 204.477 117.102 203.82 117.102 202.789V197.523H116.422V195.883H117.102V194.25H120.266ZM125.062 193.352V195H121.812V193.352H125.062ZM125.062 195.633V206H121.812V195.633H125.062ZM129.414 195.633L129.359 196.586C129.589 196.206 129.867 195.922 130.195 195.734C130.529 195.542 130.911 195.445 131.344 195.445C131.885 195.445 132.328 195.573 132.672 195.828C133.016 196.083 133.237 196.406 133.336 196.797C133.435 197.182 133.484 197.828 133.484 198.734V206H130.328V198.82C130.328 198.107 130.305 197.672 130.258 197.516C130.211 197.359 130.081 197.281 129.867 197.281C129.643 197.281 129.503 197.372 129.445 197.555C129.388 197.732 129.359 198.211 129.359 198.992V206H126.203V195.633H129.414ZM141.75 195.633V203.617C141.75 204.695 141.724 205.393 141.672 205.711C141.625 206.023 141.451 206.354 141.148 206.703C140.846 207.057 140.424 207.326 139.883 207.508C139.346 207.695 138.669 207.789 137.852 207.789C136.846 207.789 136.039 207.617 135.43 207.273C134.82 206.935 134.505 206.266 134.484 205.266H137.547C137.547 205.724 137.714 205.953 138.047 205.953C138.286 205.953 138.445 205.883 138.523 205.742C138.602 205.602 138.641 205.307 138.641 204.859V204.078C138.37 204.323 138.083 204.508 137.781 204.633C137.484 204.758 137.172 204.82 136.844 204.82C136.276 204.82 135.807 204.706 135.438 204.477C135.073 204.247 134.823 203.948 134.688 203.578C134.552 203.203 134.484 202.672 134.484 201.984V198.219C134.484 197.234 134.661 196.526 135.016 196.094C135.37 195.661 135.909 195.445 136.633 195.445C137.029 195.445 137.388 195.526 137.711 195.688C138.039 195.849 138.331 196.091 138.586 196.414L138.812 195.633H141.75ZM138.586 198.383C138.586 197.909 138.557 197.607 138.5 197.477C138.448 197.346 138.328 197.281 138.141 197.281C137.958 197.281 137.828 197.357 137.75 197.508C137.677 197.654 137.641 197.945 137.641 198.383V201.867C137.641 202.331 137.669 202.633 137.727 202.773C137.784 202.909 137.904 202.977 138.086 202.977C138.294 202.977 138.43 202.893 138.492 202.727C138.555 202.56 138.586 202.182 138.586 201.594V198.383ZM152.312 195.633L151.406 203.133C151.266 204.32 151.146 205.13 151.047 205.562C150.953 205.995 150.794 206.352 150.57 206.633C150.346 206.914 150.034 207.12 149.633 207.25C149.237 207.385 148.602 207.453 147.727 207.453H145.812V205.797C146.302 205.797 146.617 205.773 146.758 205.727C146.898 205.674 146.969 205.562 146.969 205.391C146.969 205.307 146.904 204.945 146.773 204.305L145.047 195.633H147.914L148.945 202.625L149.445 195.633H152.312ZM160.016 199.273V201.812C160.016 202.745 159.969 203.43 159.875 203.867C159.781 204.299 159.581 204.706 159.273 205.086C158.966 205.461 158.57 205.74 158.086 205.922C157.607 206.099 157.055 206.188 156.43 206.188C155.732 206.188 155.141 206.112 154.656 205.961C154.172 205.805 153.794 205.573 153.523 205.266C153.258 204.953 153.068 204.578 152.953 204.141C152.839 203.698 152.781 203.036 152.781 202.156V199.5C152.781 198.536 152.885 197.784 153.094 197.242C153.302 196.701 153.677 196.266 154.219 195.938C154.76 195.609 155.453 195.445 156.297 195.445C157.005 195.445 157.612 195.552 158.117 195.766C158.628 195.974 159.021 196.247 159.297 196.586C159.573 196.924 159.76 197.273 159.859 197.633C159.964 197.992 160.016 198.539 160.016 199.273ZM156.859 198.492C156.859 197.961 156.831 197.628 156.773 197.492C156.716 197.352 156.594 197.281 156.406 197.281C156.219 197.281 156.094 197.352 156.031 197.492C155.969 197.628 155.938 197.961 155.938 198.492V203.172C155.938 203.661 155.969 203.982 156.031 204.133C156.094 204.279 156.216 204.352 156.398 204.352C156.586 204.352 156.708 204.284 156.766 204.148C156.828 204.013 156.859 203.721 156.859 203.273V198.492ZM168.289 195.633V206H165.078L165.133 205.141C164.914 205.49 164.643 205.753 164.32 205.93C164.003 206.102 163.635 206.188 163.219 206.188C162.745 206.188 162.352 206.104 162.039 205.938C161.727 205.771 161.495 205.549 161.344 205.273C161.198 204.997 161.107 204.711 161.07 204.414C161.034 204.112 161.016 203.516 161.016 202.625V195.633H164.172V202.688C164.172 203.495 164.195 203.974 164.242 204.125C164.294 204.276 164.43 204.352 164.648 204.352C164.883 204.352 165.021 204.273 165.062 204.117C165.109 203.961 165.133 203.458 165.133 202.609V195.633H168.289ZM172.578 195.633L172.453 196.992C172.911 196.018 173.576 195.503 174.445 195.445V199.094C173.867 199.094 173.443 199.172 173.172 199.328C172.901 199.484 172.734 199.703 172.672 199.984C172.609 200.26 172.578 200.901 172.578 201.906V206H169.422V195.633H172.578ZM181.312 194.25V195.883H182.164V197.523H181.312V203.07C181.312 203.753 181.346 204.133 181.414 204.211C181.487 204.289 181.781 204.328 182.297 204.328V206H181.023C180.305 206 179.792 205.971 179.484 205.914C179.177 205.852 178.906 205.714 178.672 205.5C178.438 205.281 178.292 205.034 178.234 204.758C178.177 204.477 178.148 203.82 178.148 202.789V197.523H177.469V195.883H178.148V194.25H181.312ZM186.016 195.633L185.891 196.992C186.349 196.018 187.013 195.503 187.883 195.445V199.094C187.305 199.094 186.88 199.172 186.609 199.328C186.339 199.484 186.172 199.703 186.109 199.984C186.047 200.26 186.016 200.901 186.016 201.906V206H182.859V195.633H186.016ZM191.414 199.648H188.453V198.953C188.453 198.151 188.544 197.534 188.727 197.102C188.914 196.664 189.286 196.279 189.844 195.945C190.401 195.612 191.125 195.445 192.016 195.445C193.083 195.445 193.888 195.635 194.43 196.016C194.971 196.391 195.297 196.854 195.406 197.406C195.516 197.953 195.57 199.083 195.57 200.797V206H192.5V205.078C192.307 205.448 192.057 205.727 191.75 205.914C191.448 206.096 191.086 206.188 190.664 206.188C190.112 206.188 189.604 206.034 189.141 205.727C188.682 205.414 188.453 204.734 188.453 203.688V202.836C188.453 202.06 188.576 201.531 188.82 201.25C189.065 200.969 189.672 200.641 190.641 200.266C191.677 199.859 192.232 199.586 192.305 199.445C192.378 199.305 192.414 199.018 192.414 198.586C192.414 198.044 192.372 197.693 192.289 197.531C192.211 197.365 192.078 197.281 191.891 197.281C191.677 197.281 191.544 197.352 191.492 197.492C191.44 197.628 191.414 197.984 191.414 198.562V199.648ZM192.414 201.07C191.909 201.44 191.615 201.75 191.531 202C191.453 202.25 191.414 202.609 191.414 203.078C191.414 203.615 191.448 203.961 191.516 204.117C191.589 204.273 191.729 204.352 191.938 204.352C192.135 204.352 192.263 204.292 192.32 204.172C192.383 204.047 192.414 203.724 192.414 203.203V201.07ZM203.633 199.547H200.656V198.352C200.656 197.935 200.622 197.654 200.555 197.508C200.487 197.357 200.362 197.281 200.18 197.281C199.997 197.281 199.875 197.346 199.812 197.477C199.75 197.607 199.719 197.898 199.719 198.352V203.242C199.719 203.612 199.766 203.891 199.859 204.078C199.953 204.26 200.091 204.352 200.273 204.352C200.487 204.352 200.63 204.255 200.703 204.062C200.781 203.87 200.82 203.505 200.82 202.969V201.734H203.633C203.628 202.562 203.596 203.185 203.539 203.602C203.487 204.013 203.312 204.438 203.016 204.875C202.724 205.307 202.341 205.635 201.867 205.859C201.393 206.078 200.807 206.188 200.109 206.188C199.219 206.188 198.513 206.036 197.992 205.734C197.471 205.427 197.102 205 196.883 204.453C196.669 203.901 196.562 203.12 196.562 202.109V199.164C196.562 198.284 196.651 197.62 196.828 197.172C197.005 196.724 197.383 196.326 197.961 195.977C198.539 195.622 199.242 195.445 200.07 195.445C200.893 195.445 201.596 195.62 202.18 195.969C202.763 196.318 203.151 196.758 203.344 197.289C203.536 197.82 203.633 198.573 203.633 199.547ZM211.375 195.633L210.094 199.766L211.758 206H208.719L207.734 201.484V206H204.578V193.352H207.734V198.664L208.719 195.633H211.375ZM218.68 198.945H215.883V198.383C215.883 197.904 215.854 197.602 215.797 197.477C215.745 197.346 215.609 197.281 215.391 197.281C215.214 197.281 215.081 197.341 214.992 197.461C214.904 197.576 214.859 197.75 214.859 197.984C214.859 198.302 214.88 198.536 214.922 198.688C214.969 198.833 215.102 198.995 215.32 199.172C215.544 199.349 216 199.607 216.688 199.945C217.604 200.393 218.206 200.815 218.492 201.211C218.779 201.607 218.922 202.182 218.922 202.938C218.922 203.781 218.812 204.419 218.594 204.852C218.375 205.279 218.008 205.609 217.492 205.844C216.982 206.073 216.365 206.188 215.641 206.188C214.839 206.188 214.151 206.062 213.578 205.812C213.01 205.562 212.62 205.224 212.406 204.797C212.193 204.37 212.086 203.724 212.086 202.859V202.359H214.883V203.016C214.883 203.573 214.917 203.935 214.984 204.102C215.057 204.268 215.198 204.352 215.406 204.352C215.63 204.352 215.786 204.297 215.875 204.188C215.964 204.073 216.008 203.836 216.008 203.477C216.008 202.982 215.951 202.672 215.836 202.547C215.716 202.422 215.104 202.052 214 201.438C213.073 200.917 212.508 200.445 212.305 200.023C212.102 199.596 212 199.091 212 198.508C212 197.68 212.109 197.07 212.328 196.68C212.547 196.284 212.917 195.979 213.438 195.766C213.964 195.552 214.573 195.445 215.266 195.445C215.953 195.445 216.536 195.534 217.016 195.711C217.5 195.883 217.87 196.112 218.125 196.398C218.385 196.685 218.542 196.951 218.594 197.195C218.651 197.44 218.68 197.823 218.68 198.344V198.945ZM221.867 203.422V206H219.484V203.422H221.867ZM224.82 203.422V206H222.438V203.422H224.82ZM227.773 203.422V206H225.391V203.422H227.773ZM231.547 193.352H234.859C235.755 193.352 236.443 193.422 236.922 193.562C237.406 193.703 237.768 193.906 238.008 194.172C238.253 194.438 238.417 194.76 238.5 195.141C238.589 195.516 238.633 196.099 238.633 196.891V197.992C238.633 198.799 238.549 199.388 238.383 199.758C238.216 200.128 237.909 200.411 237.461 200.609C237.018 200.807 236.438 200.906 235.719 200.906H234.836V206H231.547V193.352ZM234.836 195.516V198.734C234.93 198.74 235.01 198.742 235.078 198.742C235.38 198.742 235.589 198.669 235.703 198.523C235.823 198.372 235.883 198.062 235.883 197.594V196.555C235.883 196.122 235.815 195.841 235.68 195.711C235.544 195.581 235.263 195.516 234.836 195.516ZM242.641 195.633L242.516 196.992C242.974 196.018 243.638 195.503 244.508 195.445V199.094C243.93 199.094 243.505 199.172 243.234 199.328C242.964 199.484 242.797 199.703 242.734 199.984C242.672 200.26 242.641 200.901 242.641 201.906V206H239.484V195.633H242.641ZM252.367 201H248.281V203.242C248.281 203.711 248.315 204.013 248.383 204.148C248.451 204.284 248.581 204.352 248.773 204.352C249.013 204.352 249.172 204.263 249.25 204.086C249.333 203.904 249.375 203.555 249.375 203.039V201.672H252.367V202.438C252.367 203.078 252.326 203.57 252.242 203.914C252.164 204.258 251.977 204.625 251.68 205.016C251.383 205.406 251.005 205.701 250.547 205.898C250.094 206.091 249.523 206.188 248.836 206.188C248.169 206.188 247.581 206.091 247.07 205.898C246.56 205.706 246.161 205.443 245.875 205.109C245.594 204.771 245.398 204.401 245.289 204C245.18 203.594 245.125 203.005 245.125 202.234V199.211C245.125 198.305 245.247 197.591 245.492 197.07C245.737 196.544 246.138 196.143 246.695 195.867C247.253 195.586 247.893 195.445 248.617 195.445C249.503 195.445 250.232 195.615 250.805 195.953C251.383 196.286 251.786 196.732 252.016 197.289C252.25 197.841 252.367 198.62 252.367 199.625V201ZM249.203 199.312V198.555C249.203 198.018 249.174 197.672 249.117 197.516C249.06 197.359 248.943 197.281 248.766 197.281C248.547 197.281 248.411 197.349 248.359 197.484C248.307 197.615 248.281 197.971 248.281 198.555V199.312H249.203ZM259.93 195.633L258.453 206H254.336L252.75 195.633H255.57L256.453 203.195C256.521 202.643 256.635 201.289 256.797 199.133C256.891 197.93 256.995 196.763 257.109 195.633H259.93ZM263.656 193.352V195H260.406V193.352H263.656ZM263.656 195.633V206H260.406V195.633H263.656ZM271.945 201H267.859V203.242C267.859 203.711 267.893 204.013 267.961 204.148C268.029 204.284 268.159 204.352 268.352 204.352C268.591 204.352 268.75 204.263 268.828 204.086C268.911 203.904 268.953 203.555 268.953 203.039V201.672H271.945V202.438C271.945 203.078 271.904 203.57 271.82 203.914C271.742 204.258 271.555 204.625 271.258 205.016C270.961 205.406 270.583 205.701 270.125 205.898C269.672 206.091 269.102 206.188 268.414 206.188C267.747 206.188 267.159 206.091 266.648 205.898C266.138 205.706 265.74 205.443 265.453 205.109C265.172 204.771 264.977 204.401 264.867 204C264.758 203.594 264.703 203.005 264.703 202.234V199.211C264.703 198.305 264.826 197.591 265.07 197.07C265.315 196.544 265.716 196.143 266.273 195.867C266.831 195.586 267.471 195.445 268.195 195.445C269.081 195.445 269.81 195.615 270.383 195.953C270.961 196.286 271.365 196.732 271.594 197.289C271.828 197.841 271.945 198.62 271.945 199.625V201ZM268.781 199.312V198.555C268.781 198.018 268.753 197.672 268.695 197.516C268.638 197.359 268.521 197.281 268.344 197.281C268.125 197.281 267.99 197.349 267.938 197.484C267.885 197.615 267.859 197.971 267.859 198.555V199.312H268.781ZM283.18 195.633L281.922 206H278.492C278.305 204.734 278.089 203.068 277.844 201C277.76 201.906 277.643 202.823 277.492 203.75L277.141 206H273.711L272.375 195.633H275.094C275.115 195.904 275.344 197.88 275.781 201.562C275.812 201.188 276.047 199.211 276.484 195.633H279.102L279.742 201.562C279.841 199.833 280.081 197.857 280.461 195.633H283.18ZM289.352 199.648H286.391V198.953C286.391 198.151 286.482 197.534 286.664 197.102C286.852 196.664 287.224 196.279 287.781 195.945C288.339 195.612 289.062 195.445 289.953 195.445C291.021 195.445 291.826 195.635 292.367 196.016C292.909 196.391 293.234 196.854 293.344 197.406C293.453 197.953 293.508 199.083 293.508 200.797V206H290.438V205.078C290.245 205.448 289.995 205.727 289.688 205.914C289.385 206.096 289.023 206.188 288.602 206.188C288.049 206.188 287.542 206.034 287.078 205.727C286.62 205.414 286.391 204.734 286.391 203.688V202.836C286.391 202.06 286.513 201.531 286.758 201.25C287.003 200.969 287.609 200.641 288.578 200.266C289.615 199.859 290.169 199.586 290.242 199.445C290.315 199.305 290.352 199.018 290.352 198.586C290.352 198.044 290.31 197.693 290.227 197.531C290.148 197.365 290.016 197.281 289.828 197.281C289.615 197.281 289.482 197.352 289.43 197.492C289.378 197.628 289.352 197.984 289.352 198.562V199.648ZM290.352 201.07C289.846 201.44 289.552 201.75 289.469 202C289.391 202.25 289.352 202.609 289.352 203.078C289.352 203.615 289.385 203.961 289.453 204.117C289.526 204.273 289.667 204.352 289.875 204.352C290.073 204.352 290.201 204.292 290.258 204.172C290.32 204.047 290.352 203.724 290.352 203.203V201.07ZM301.117 195.633L299.641 206H295.523L293.938 195.633H296.758L297.641 203.195C297.708 202.643 297.823 201.289 297.984 199.133C298.078 197.93 298.182 196.763 298.297 195.633H301.117ZM304.414 199.648H301.453V198.953C301.453 198.151 301.544 197.534 301.727 197.102C301.914 196.664 302.286 196.279 302.844 195.945C303.401 195.612 304.125 195.445 305.016 195.445C306.083 195.445 306.888 195.635 307.43 196.016C307.971 196.391 308.297 196.854 308.406 197.406C308.516 197.953 308.57 199.083 308.57 200.797V206H305.5V205.078C305.307 205.448 305.057 205.727 304.75 205.914C304.448 206.096 304.086 206.188 303.664 206.188C303.112 206.188 302.604 206.034 302.141 205.727C301.682 205.414 301.453 204.734 301.453 203.688V202.836C301.453 202.06 301.576 201.531 301.82 201.25C302.065 200.969 302.672 200.641 303.641 200.266C304.677 199.859 305.232 199.586 305.305 199.445C305.378 199.305 305.414 199.018 305.414 198.586C305.414 198.044 305.372 197.693 305.289 197.531C305.211 197.365 305.078 197.281 304.891 197.281C304.677 197.281 304.544 197.352 304.492 197.492C304.44 197.628 304.414 197.984 304.414 198.562V199.648ZM305.414 201.07C304.909 201.44 304.615 201.75 304.531 202C304.453 202.25 304.414 202.609 304.414 203.078C304.414 203.615 304.448 203.961 304.516 204.117C304.589 204.273 304.729 204.352 304.938 204.352C305.135 204.352 305.263 204.292 305.32 204.172C305.383 204.047 305.414 203.724 305.414 203.203V201.07ZM312.906 193.352V195H309.656V193.352H312.906ZM312.906 195.633V206H309.656V195.633H312.906ZM317.297 193.352V206H314.047V193.352H317.297ZM321.258 199.648H318.297V198.953C318.297 198.151 318.388 197.534 318.57 197.102C318.758 196.664 319.13 196.279 319.688 195.945C320.245 195.612 320.969 195.445 321.859 195.445C322.927 195.445 323.732 195.635 324.273 196.016C324.815 196.391 325.141 196.854 325.25 197.406C325.359 197.953 325.414 199.083 325.414 200.797V206H322.344V205.078C322.151 205.448 321.901 205.727 321.594 205.914C321.292 206.096 320.93 206.188 320.508 206.188C319.956 206.188 319.448 206.034 318.984 205.727C318.526 205.414 318.297 204.734 318.297 203.688V202.836C318.297 202.06 318.419 201.531 318.664 201.25C318.909 200.969 319.516 200.641 320.484 200.266C321.521 199.859 322.076 199.586 322.148 199.445C322.221 199.305 322.258 199.018 322.258 198.586C322.258 198.044 322.216 197.693 322.133 197.531C322.055 197.365 321.922 197.281 321.734 197.281C321.521 197.281 321.388 197.352 321.336 197.492C321.284 197.628 321.258 197.984 321.258 198.562V199.648ZM322.258 201.07C321.753 201.44 321.458 201.75 321.375 202C321.297 202.25 321.258 202.609 321.258 203.078C321.258 203.615 321.292 203.961 321.359 204.117C321.432 204.273 321.573 204.352 321.781 204.352C321.979 204.352 322.107 204.292 322.164 204.172C322.227 204.047 322.258 203.724 322.258 203.203V201.07ZM329.656 193.352V196.344C329.917 196.042 330.206 195.818 330.523 195.672C330.846 195.521 331.195 195.445 331.57 195.445C332.003 195.445 332.378 195.513 332.695 195.648C333.013 195.784 333.255 195.974 333.422 196.219C333.589 196.464 333.688 196.703 333.719 196.938C333.755 197.172 333.773 197.672 333.773 198.438V203.109C333.773 203.87 333.721 204.438 333.617 204.812C333.518 205.182 333.281 205.505 332.906 205.781C332.531 206.052 332.086 206.188 331.57 206.188C331.201 206.188 330.854 206.107 330.531 205.945C330.214 205.784 329.922 205.542 329.656 205.219L329.453 206H326.5V193.352H329.656ZM330.617 198.578C330.617 198.042 330.583 197.693 330.516 197.531C330.448 197.365 330.315 197.281 330.117 197.281C329.924 197.281 329.799 197.354 329.742 197.5C329.685 197.641 329.656 198 329.656 198.578V203.047C329.656 203.604 329.688 203.961 329.75 204.117C329.818 204.273 329.948 204.352 330.141 204.352C330.339 204.352 330.466 204.271 330.523 204.109C330.586 203.948 330.617 203.56 330.617 202.945V198.578ZM338.062 193.352V206H334.812V193.352H338.062ZM346.352 201H342.266V203.242C342.266 203.711 342.299 204.013 342.367 204.148C342.435 204.284 342.565 204.352 342.758 204.352C342.997 204.352 343.156 204.263 343.234 204.086C343.318 203.904 343.359 203.555 343.359 203.039V201.672H346.352V202.438C346.352 203.078 346.31 203.57 346.227 203.914C346.148 204.258 345.961 204.625 345.664 205.016C345.367 205.406 344.99 205.701 344.531 205.898C344.078 206.091 343.508 206.188 342.82 206.188C342.154 206.188 341.565 206.091 341.055 205.898C340.544 205.706 340.146 205.443 339.859 205.109C339.578 204.771 339.383 204.401 339.273 204C339.164 203.594 339.109 203.005 339.109 202.234V199.211C339.109 198.305 339.232 197.591 339.477 197.07C339.721 196.544 340.122 196.143 340.68 195.867C341.237 195.586 341.878 195.445 342.602 195.445C343.487 195.445 344.216 195.615 344.789 195.953C345.367 196.286 345.771 196.732 346 197.289C346.234 197.841 346.352 198.62 346.352 199.625V201ZM343.188 199.312V198.555C343.188 198.018 343.159 197.672 343.102 197.516C343.044 197.359 342.927 197.281 342.75 197.281C342.531 197.281 342.396 197.349 342.344 197.484C342.292 197.615 342.266 197.971 342.266 198.555V199.312H343.188ZM353.43 195.633L353.375 196.586C353.604 196.206 353.883 195.922 354.211 195.734C354.544 195.542 354.927 195.445 355.359 195.445C355.901 195.445 356.344 195.573 356.688 195.828C357.031 196.083 357.253 196.406 357.352 196.797C357.451 197.182 357.5 197.828 357.5 198.734V206H354.344V198.82C354.344 198.107 354.32 197.672 354.273 197.516C354.227 197.359 354.096 197.281 353.883 197.281C353.659 197.281 353.518 197.372 353.461 197.555C353.404 197.732 353.375 198.211 353.375 198.992V206H350.219V195.633H353.43ZM365.734 199.273V201.812C365.734 202.745 365.688 203.43 365.594 203.867C365.5 204.299 365.299 204.706 364.992 205.086C364.685 205.461 364.289 205.74 363.805 205.922C363.326 206.099 362.773 206.188 362.148 206.188C361.451 206.188 360.859 206.112 360.375 205.961C359.891 205.805 359.513 205.573 359.242 205.266C358.977 204.953 358.786 204.578 358.672 204.141C358.557 203.698 358.5 203.036 358.5 202.156V199.5C358.5 198.536 358.604 197.784 358.812 197.242C359.021 196.701 359.396 196.266 359.938 195.938C360.479 195.609 361.172 195.445 362.016 195.445C362.724 195.445 363.331 195.552 363.836 195.766C364.346 195.974 364.74 196.247 365.016 196.586C365.292 196.924 365.479 197.273 365.578 197.633C365.682 197.992 365.734 198.539 365.734 199.273ZM362.578 198.492C362.578 197.961 362.549 197.628 362.492 197.492C362.435 197.352 362.312 197.281 362.125 197.281C361.938 197.281 361.812 197.352 361.75 197.492C361.688 197.628 361.656 197.961 361.656 198.492V203.172C361.656 203.661 361.688 203.982 361.75 204.133C361.812 204.279 361.935 204.352 362.117 204.352C362.305 204.352 362.427 204.284 362.484 204.148C362.547 204.013 362.578 203.721 362.578 203.273V198.492ZM376.977 195.633L375.719 206H372.289C372.102 204.734 371.885 203.068 371.641 201C371.557 201.906 371.44 202.823 371.289 203.75L370.938 206H367.508L366.172 195.633H368.891C368.911 195.904 369.141 197.88 369.578 201.562C369.609 201.188 369.844 199.211 370.281 195.633H372.898L373.539 201.562C373.638 199.833 373.878 197.857 374.258 195.633H376.977Z" fill="black"/>
<defs>
<linearGradient id="paint0_linear_154_179" x1="197.456" y1="139.492" x2="212.648" y2="142.787" gradientUnits="userSpaceOnUse">
<stop stop-color="#07080B"/>
<stop offset="1" stop-color="#35271C"/>
</linearGradient>
<linearGradient id="paint1_linear_154_179" x1="217.158" y1="149.045" x2="216.862" y2="100.041" gradientUnits="userSpaceOnUse">
<stop stop-color="#353D40"/>
<stop offset="1" stop-color="#636161"/>
</linearGradient>
</defs>
</svg>
