<svg width="447" height="304" viewBox="0 0 447 304" fill="none" xmlns="http://www.w3.org/2000/svg">
<defs>
  <style>
    .reel-left {
      transform-origin: 128px 140px;
    }
    .reel-right {
      transform-origin: 318px 140px;
    }
  </style>
</defs>
<path d="M22.9966 0.354089C24.3707 0.154401 25.889 0.193771 27.2816 0.18674L295.715 0.202211L381.958 0.20573L408.906 0.200809C413.828 0.200575 418.956 -0.093806 423.85 0.380803C428.024 0.786272 431.931 2.61252 434.922 5.55346C437.973 8.61276 439.703 12.4525 440.315 16.7001C441.217 22.9591 440.709 29.7742 440.702 36.1047L440.697 70.7749L440.706 191.503C442.877 192.909 444.606 194.594 446.397 196.453L446.355 248.133L446.418 259.423C446.432 261.605 446.652 264.033 446.209 266.18C445.567 269.283 443.162 271.022 440.666 272.623C440.732 279.771 441.592 287.409 437.704 293.798C434.545 298.99 429.808 301.692 424.028 303.07C422.123 303.469 420.191 303.518 418.253 303.537L156.26 303.523H66.7002L38.7234 303.52C34.0891 303.52 29.1801 303.846 24.5704 303.422C20.1632 303.016 15.6993 301.151 12.5472 298.01C5.56595 291.049 6.50101 281.925 6.4689 272.873C4.0235 271.469 2.16929 269.967 0.369385 267.797L0.376158 195.663C2.17738 193.547 4.4293 191.911 6.42638 189.987L6.40881 73.6853L6.40824 36.9698C6.40803 30.6042 5.97629 23.8666 6.58702 17.5361C6.91562 14.129 7.83296 10.9371 9.83851 8.13182C13.0734 3.60745 17.5731 1.21987 22.9966 0.354089Z" fill="#0B1316"/>
<path d="M26.8814 4.14754C27.5452 4.02839 28.217 4.01741 28.8897 3.99638C37.0903 3.73821 45.3853 3.98072 53.5931 3.98096L102.089 3.98236L248.421 3.97769L360.934 3.98002L397.192 3.97769C404.531 3.97278 411.926 3.75667 419.253 4.15362C423.095 4.36155 428.724 4.76551 431.599 7.60561C432.571 8.56516 433.942 10.8602 434.061 12.2251C434.279 14.7458 434.014 17.6618 433.963 20.2113C433.872 24.8854 433.836 29.5605 433.853 34.2358L433.843 88.3098L433.858 201.478C433.855 225.073 433.506 248.722 433.85 272.31C433.9 275.725 434.204 279.137 434.286 282.552C434.371 286.134 433.872 288.893 431.214 291.55C429.422 293.314 427.165 294.536 424.705 295.078C419.37 296.26 410.117 295.743 404.453 295.729L375.532 295.757C375.335 287.087 372.364 278.408 370.557 269.957C369.388 264.256 367.865 258.574 366.572 252.894C365.072 246.308 363.575 238.332 361.215 232.066C360.093 229.089 357.986 227.117 355.085 225.851C352.698 224.806 350.165 224.507 347.58 224.421C334.977 223.996 322.249 224.379 309.628 224.381L237.9 224.365L153.492 224.356C138.099 224.351 122.632 224.059 107.247 224.426C103.308 224.519 94.3112 224.339 90.9966 225.72C88.6794 226.683 87.1735 227.895 86.0359 230.122C83.54 235.005 81.5326 247.135 80.1447 253.193C77.7739 263.541 75.1482 273.861 73.0436 284.267C72.3102 287.893 72.4315 291.996 70.964 295.407C70.9235 295.503 70.8811 295.594 70.8396 295.687C62.8553 296.078 54.7129 295.741 46.7084 295.746C41.3674 295.783 36.0262 295.786 30.6853 295.753C27.4953 295.757 23.6342 296.218 20.5443 295.339C16.0757 294.068 14.7753 289.856 13.1133 289.361L13.322 290.608L13.0437 290.526L13.323 290.61C13.1311 290.529 13.0685 290.517 12.8916 290.358C10.5606 288.262 10.425 284.153 10.3919 281.267C10.1733 262.235 10.3926 243.18 10.3922 224.148L10.3865 109.392L10.3825 47.7086L10.376 27.8501C10.3758 24.2593 10.1942 20.5578 10.4676 16.981C10.6576 14.4995 12.2088 9.82003 14.0001 8.08106C17.3501 4.82906 22.4259 4.1174 26.8814 4.14754Z" fill="#262829"/>
<path d="M48.962 21.669C49.236 21.6522 49.5104 21.6383 49.7847 21.628C58.6562 21.3594 67.6461 21.6721 76.5311 21.6814L128.379 21.6606L295.359 21.654L368.605 21.665L388.37 21.6348C391.647 21.6306 395.462 21.2556 398.671 21.8579C401.376 22.3656 404.929 23.7168 406.225 26.3047C406.858 27.5673 407.221 28.9708 408.053 30.13C409.307 31.8791 411.262 33.1635 412.802 34.6621C415.987 37.7668 416.031 42.2314 416.073 46.4005L416.071 154.915L416.064 188.836C416.064 194.449 416.57 200.534 415.891 206.088C415.466 209.569 413.891 213.579 411.381 216.059C407.465 219.928 402.466 219.464 397.431 219.429L154.85 219.141L77.4892 219.415L55.9396 219.429C51.9088 219.438 47.6617 219.706 43.6527 219.3C39.6536 218.897 35.5928 216.089 32.3851 213.844C30.7361 212.691 29.9844 210.638 29.7322 208.711C29.4264 206.374 29.6052 203.852 29.608 201.495L29.6125 189.007L29.6153 145.917L29.6158 76.5911L29.6066 54.205C29.6061 50.0361 29.4381 45.7761 29.6861 41.6179C29.849 38.8881 30.1567 36.3435 31.8615 34.1155C33.4508 32.0385 35.7742 30.6154 37.7629 28.9539C41.5051 25.8271 43.738 22.3424 48.962 21.669Z" fill="#0B1316"/>
<path d="M50.2288 28.0327C50.8256 28.0081 51.4226 27.9929 52.0199 27.987L283.642 27.9924L359.136 27.9978L382.624 27.9772C386.978 27.9718 391.494 27.7314 395.826 28.1325C398.715 28.4001 400.606 29.8264 402.593 31.8146C404.857 34.0773 410.073 38.6419 410.678 41.6313C411.395 45.1651 410.919 51.8113 410.914 55.6683L410.9 85.7041L410.914 204.937C410.91 207.826 410.771 210.539 408.545 212.657C405.349 215.698 401.342 215.878 397.213 215.829L161.692 215.825L84.1543 215.827L59.1185 215.843C54.6085 215.848 50.046 215.998 45.5423 215.794C44.0433 215.726 42.8038 215.396 41.4559 214.745C39.2254 213.672 37.2222 212.09 36.4941 209.611C35.7483 207.076 36.2207 199.293 36.2218 196.358L36.235 167.494L36.2568 85.4923C36.2596 72.0626 35.9812 58.583 36.2436 45.1606C36.2788 43.3573 36.3711 41.4584 37.2768 39.8524C38.1859 38.2403 45.618 30.8163 47.3386 29.4701C48.2553 28.7527 49.1063 28.3272 50.2288 28.0327Z" fill="#FFEEDC"/>
<path d="M36.011 112.781C36.1344 112.714 36.2579 112.671 36.3814 112.653L70.2443 112.633L86.2214 112.648C88.7044 112.657 91.1988 111.936 93.6798 112.58C93.8113 112.615 93.9048 112.453 94 113.773C94.0004 115.315 93.9783 115.876 93.9163 117.133C92.4488 117.508 90.9765 117.16 89.5086 117.157L80.8658 117.146L48.572 118.011C47.3891 118.188 36.1804 118.836 36.0346 117.952C36.0086 117.795 35.9941 117.397 35.9739 117.119C35.9598 115.374 35.9755 114.42 36.011 112.781Z" fill="#FF5843"/>
<path d="M36.0045 138.563C36.1087 138.495 36.2131 138.452 36.3174 138.435L64.9285 138.415L78.4278 138.429C80.5257 138.439 82.6332 137.718 84.7295 138.361C84.8405 138.396 84.9196 138.235 85 139.554C85.0003 141.096 84.9816 141.658 84.9293 142.914C83.6894 143.289 82.4454 142.941 81.2052 142.938L73.9028 142.928L46.6174 143.792C45.618 143.969 36.1476 144.618 36.0244 143.733C36.0024 143.576 35.9902 143.178 35.9731 142.901C35.9612 141.155 35.9744 140.201 36.0045 138.563Z" fill="#4DC1C5"/>
<path d="M36.011 162.938C36.1344 162.87 36.2579 162.827 36.3814 162.81L70.2443 162.79L86.2214 162.804C88.7044 162.814 91.1988 162.093 93.6798 162.736C93.8113 162.771 93.9048 162.61 94 163.929C94.0004 165.471 93.9783 166.033 93.9163 167.289C92.4488 167.664 90.9765 167.316 89.5086 167.313L80.8658 167.303L48.572 168.167C47.3891 168.344 36.1804 168.993 36.0346 168.108C36.0086 167.951 35.9941 167.553 35.9739 167.276C35.9598 165.53 35.9755 164.576 36.011 162.938Z" fill="#FE9900"/>
<path d="M352.043 112.781C352.17 112.714 352.296 112.671 352.423 112.653L387.106 112.633L403.47 112.648C406.014 112.657 408.568 111.936 411.11 112.58C411.244 112.615 411.34 112.453 411.437 113.773C411.438 115.315 411.415 115.876 411.352 117.133C409.849 117.508 408.341 117.16 406.837 117.157L397.985 117.146L364.909 118.011C363.697 118.188 352.217 118.836 352.067 117.952C352.041 117.795 352.026 117.397 352.005 117.119C351.991 115.374 352.007 114.42 352.043 112.781Z" fill="#FF5843"/>
<path d="M362.036 138.563C362.141 138.495 362.246 138.452 362.352 138.435L391.2 138.415L404.811 138.429C406.926 138.439 409.051 137.718 411.165 138.361C411.277 138.396 411.356 138.235 411.437 139.554C411.438 141.096 411.419 141.658 411.366 142.914C410.116 143.289 408.862 142.941 407.611 142.938L400.248 142.928L372.737 143.792C371.729 143.969 362.18 144.618 362.056 143.733C362.034 143.576 362.022 143.178 362.004 142.901C361.992 141.155 362.006 140.201 362.036 138.563Z" fill="#4DC1C5"/>
<path d="M352.043 162.938C352.17 162.87 352.296 162.827 352.423 162.81L387.106 162.79L403.47 162.804C406.014 162.814 408.568 162.093 411.11 162.736C411.244 162.771 411.34 162.61 411.437 163.929C411.438 165.471 411.415 166.033 411.352 167.289C409.849 167.664 408.341 167.316 406.837 167.313L397.985 167.303L364.909 168.167C363.697 168.344 352.217 168.993 352.067 168.108C352.041 167.951 352.026 167.553 352.005 167.276C351.991 165.53 352.007 164.576 352.043 162.938Z" fill="#FE9900"/>
<path d="M122.871 96.9468C126.587 96.6446 130.437 97.0421 134.172 97.0691L155.951 97.0855L231.749 97.0841L293.273 97.0874C300.379 97.0562 307.481 96.8136 314.594 96.8181C317.821 96.8202 321.126 96.707 324.339 97.0489C331.502 97.8111 338.655 100.648 344.505 104.827C354.353 111.864 360.388 122.368 362.308 134.226C364.047 145.412 361.23 156.827 354.487 165.919C347.277 175.824 337.073 181.685 325.082 183.549C319.645 183.799 314.16 183.661 308.716 183.661L280.924 183.663L195.813 183.659L146.066 183.663L131.592 183.659C128.256 183.656 124.823 183.802 121.512 183.352C113.811 182.32 106.53 179.231 100.439 174.408C91.5181 167.342 85.7949 156.999 84.5438 145.685C83.1462 133.701 86.6241 121.657 94.1951 112.263C101.374 103.394 111.602 98.1627 122.871 96.9468Z" fill="#262829"/>
<path d="M169.831 168.605C169.676 167.855 169.535 167.102 169.455 166.34C169.16 163.547 169.336 160.601 169.334 157.788L169.331 141.831L169.327 125.288C169.328 122.275 169.141 119.09 169.476 116.099C169.641 114.618 170.034 113.064 171.021 111.905C172.541 110.12 174.506 109.452 176.774 109.358C183.129 109.093 189.599 109.362 195.967 109.365L235.359 109.359L258.986 109.363C263.301 109.333 268.026 108.884 272.303 109.402C273.927 109.598 274.928 110.556 276.072 111.618C276.105 113.58 275.992 115.68 276.395 117.603C276.4 116.646 276.33 115.834 276.838 114.988C277.178 114.764 277.223 114.617 277.645 114.693C277.989 114.755 278.158 114.831 278.444 115.012C279.084 126.244 278.816 137.515 278.894 148.76C278.929 154.045 279.501 161.918 279.011 166.908C278.913 167.913 278.538 168.888 278.024 169.753C276.89 171.368 275.345 172.472 273.377 172.802C269.552 173.442 265.314 173.107 261.44 173.093L242.608 173.069H198.217C191.138 173.067 184.04 173.196 176.964 173.069C175.77 173.046 173.807 173.076 172.785 172.462C172.543 172.317 172.569 172.326 172.551 172.04C172.515 171.469 172.667 170.925 172.791 170.374C171.933 169.558 170.889 169.092 169.831 168.605Z" fill="#0B1316"/>
<path d="M276.065 166.198C276.428 166.158 276.677 166.026 276.988 166.27C277.802 166.903 277.945 168.523 278.013 169.484C278.02 169.573 278.017 169.662 278.022 169.751C276.888 171.366 275.343 172.469 273.374 172.8C269.549 173.44 265.312 173.105 261.438 173.091L242.606 173.067H198.214C191.136 173.065 184.038 173.194 176.961 173.067C175.767 173.044 173.805 173.074 172.783 172.46C172.541 172.315 172.566 172.324 172.549 172.038C172.513 171.466 172.665 170.923 172.789 170.372C177.5 171.321 182.705 170.911 187.507 170.909L208.793 170.901L248.385 170.906C255.309 170.904 262.309 171.134 269.224 170.848C270.595 170.791 271.956 170.667 273.217 170.081C274.926 169.284 275.502 167.885 276.065 166.198Z" fill="#5E5E5E"/>
<path d="M276.395 117.599C276.4 116.641 276.33 115.83 276.838 114.983C277.178 114.76 277.223 114.613 277.644 114.689C277.989 114.75 278.158 114.826 278.444 115.007C279.084 126.239 278.816 137.511 278.894 148.755C278.929 154.041 279.501 161.913 279.011 166.903C278.912 167.909 278.537 168.884 278.024 169.748C278.019 169.659 278.022 169.57 278.015 169.481C277.947 168.52 277.804 166.901 276.991 166.268C276.679 166.024 276.43 166.155 276.067 166.195C276.96 161.503 276.435 154.647 276.435 149.7L276.395 117.599Z" fill="#3B4244"/>
<path d="M202.518 114.515C204.211 114.435 205.636 114.164 207.101 115.174L207.179 114.903C208.476 116.845 209.342 119.704 210.008 121.934C213.169 132.522 212.945 142.835 210.816 153.57C209.807 158.658 208.165 163.484 205.726 168.066C204.846 168.106 203.96 168.091 203.078 168.098C196.157 167.754 189.058 168.089 182.119 168.106L175.128 168.082C176.177 165.933 177.259 163.786 178.212 161.592C183.72 148.918 184.573 133.452 179.5 120.515C178.584 118.902 178.584 116.373 177.791 114.561C186.033 114.608 194.276 114.593 202.518 114.515Z" fill="#463125"/>
<path d="M243.884 115.094C242.191 115.013 240.766 114.743 239.301 115.752L239.223 115.482C237.926 117.424 237.06 120.282 236.394 122.513C233.232 133.1 233.457 143.413 235.586 154.149C236.595 159.236 238.237 164.062 240.676 168.644C241.556 168.684 242.442 168.67 243.324 168.677C250.244 168.333 257.344 168.668 264.283 168.684L271.273 168.661C270.225 166.511 269.143 164.365 268.19 162.171C262.682 149.497 261.828 134.031 266.902 121.094C267.818 119.48 267.818 116.952 268.61 115.139C260.368 115.187 252.126 115.172 243.884 115.094Z" fill="#463125"/>
<path d="M202.513 114.517C204.206 114.437 205.631 114.166 207.096 115.176L207.174 114.906C208.471 116.847 209.337 119.706 210.003 121.937C213.165 132.524 212.94 142.837 210.811 153.573C209.802 158.66 208.16 163.486 205.722 168.068C204.841 168.108 203.955 168.094 203.074 168.101C203.788 166.266 203.63 164.403 204.127 162.532C204.742 160.217 205.756 158.002 206.382 155.68C208.497 147.831 209.421 138.767 208.265 130.722C207.905 128.209 207.179 121.987 205.135 120.446C204.163 118.518 203.357 116.504 202.513 114.517Z" fill="url(#paint0_linear_154_179)"/>
<path d="M177.789 114.563C186.031 114.61 194.274 114.595 202.515 114.517C203.359 116.504 204.166 118.518 205.138 120.446C198.426 120.776 191.702 120.531 184.986 120.71C183.141 120.548 181.349 120.473 179.497 120.517C178.582 118.904 178.581 116.375 177.789 114.563Z" fill="#262829"/>
<path d="M269.349 115.046C259.901 115.093 250.453 115.078 241.006 115C240.039 116.987 239.114 119.001 238 120.929C245.694 121.259 253.401 121.014 261.099 121.192C263.214 121.031 265.268 120.955 267.39 121C268.44 119.387 268.44 116.858 269.349 115.046Z" fill="#262829"/>
<path d="M207.177 114.908C207.222 114.892 207.267 114.876 207.311 114.859C207.591 114.749 207.716 114.683 207.99 114.614C210.459 114.002 219.859 114.428 223.026 114.427C228.454 114.424 233.997 114.15 239.408 114.385C239.807 114.402 240.034 114.507 240.376 114.694C240.119 116.217 239.23 117.529 238.595 118.92C237.7 120.88 236.901 122.92 236.458 125.034C232.223 138.197 234.618 155.904 240.822 168.07C236.465 168.225 232.066 168.101 227.701 168.103L205.724 168.07C208.162 163.488 209.805 158.662 210.814 153.575C212.942 142.839 213.167 132.526 210.006 121.939C209.34 119.708 208.473 116.849 207.177 114.908Z" fill="#DAD6CA"/>
<path d="M273.564 117.256C273.747 124.656 273.637 132.078 273.637 139.482C273.634 147.473 273.728 155.479 273.595 163.469C272.038 161.14 271.021 157.425 270.243 154.748C266.652 142.392 267.278 128.673 273.564 117.256Z" fill="#DAD6CA"/>
<path d="M172.861 117.612L172.849 117.334C172.828 116.716 172.75 116.244 173.119 115.71C174.601 116.397 176.203 121.325 176.762 122.855C181.353 135.476 180.724 149.407 175.012 161.562C174.347 162.975 173.629 164.386 172.865 165.748C172.859 164.21 172.824 162.668 172.849 161.131C172.7 146.66 172.536 132.078 172.861 117.612Z" fill="#5E5E5E"/>
<path d="M172.863 117.612L172.851 117.334C172.83 116.716 172.753 116.244 173.122 115.71C174.603 116.397 176.205 121.325 176.764 122.855C181.356 135.476 180.726 149.407 175.015 161.562C174.35 162.975 173.631 164.386 172.868 165.748C172.861 164.21 172.826 162.668 172.851 161.131C173.126 160.559 173.541 160.05 173.877 159.511C178.872 151.474 179.815 138.495 177.537 129.48C176.99 127.312 174.601 118.646 172.863 117.612Z" fill="#92938F"/>
<path d="M124.767 112.38C138.233 110.641 151.031 118.727 155.242 131.635C159.453 144.542 153.886 158.621 141.985 165.157C130.085 171.692 115.218 168.839 106.584 158.36C100.047 150.426 98.3363 139.567 102.117 130.008C105.897 120.448 114.572 113.697 124.767 112.38Z" fill="#F6F3EA"/>
<path d="M126.391 116.181C126.509 116.166 126.627 116.15 126.745 116.136C131.081 115.637 136.631 116.485 140.118 119.136C139.369 119.307 138.542 119.456 137.836 119.752C136.869 120.158 136.053 121.234 135.713 122.181C135.334 123.237 135.44 124.39 135.96 125.382C136.83 127.041 138.151 127.55 139.88 128.064C140.497 127.901 141.149 127.749 141.727 127.48C143.171 126.806 143.944 125.511 144.402 124.07C144.559 123.578 144.671 123.192 144.966 122.756C145.55 122.937 145.777 123.224 146.176 123.673C148.668 126.479 152.972 133.313 152.758 136.969C152.166 137.611 148.865 136.508 147.285 137.11C146.44 137.432 145.881 138.052 145.58 138.878C145.127 140.12 145.066 142.03 145.708 143.225C147.162 145.927 150.28 144.111 152.423 144.827C152.923 145.436 153.065 145.819 152.975 146.608C152.477 150.976 148.374 156.496 144.928 159.193C144.404 158.023 143.818 156.659 142.76 155.847C141.766 155.083 140.537 154.699 139.275 154.868C138.032 155.034 136.861 155.684 136.165 156.714C135.571 157.592 135.383 158.673 135.646 159.693C136.143 161.661 137.566 162.423 139.228 163.37C135.793 165.243 132.306 165.886 128.408 166C125.077 166.012 121.342 165.002 118.435 163.428C119.397 162.629 120.456 161.724 121.05 160.616C121.561 159.665 121.784 158.527 121.432 157.487C121.094 156.484 120.297 155.707 119.315 155.289C118.152 154.793 116.869 154.843 115.712 155.323C113.798 156.117 112.408 157.796 111.674 159.651C110.991 159.121 110.343 158.55 109.733 157.942C105.844 154.049 103.266 148.944 103.318 143.459C104.477 144.163 105.566 144.772 106.839 145.266C107.27 145.144 107.697 145.01 108.12 144.867C109.387 144.428 110.451 143.552 110.994 142.334C111.419 141.375 111.425 140.289 111.009 139.327C110.567 138.312 109.715 137.521 108.655 137.14C106.563 136.383 104.847 137.274 103 138.157C103.466 133.785 105.402 129.73 108.038 126.2C108.96 124.966 110.555 122.576 112.234 122.424C112.342 122.414 112.472 122.359 112.559 122.423C112.745 122.559 113.381 126.015 114.85 127.16C115.752 127.862 116.733 127.966 117.844 127.781C119.08 127.574 120.327 127.099 121.019 126.019C121.602 125.109 121.67 123.972 121.433 122.944C120.968 120.93 119.845 119.888 118.133 118.816C120.802 117.198 123.298 116.59 126.391 116.181Z" fill="#111111" class="reel-left" />
<path d="M296.957 158.756C296.003 157.842 295.136 156.75 294.393 155.659C290.355 149.728 289.183 142.196 290.547 135.206C292.005 127.786 296.371 121.257 302.671 117.075C307.417 113.917 314.641 111.358 320.385 112.52C328.218 113.283 335.158 116.466 340.19 122.625C344.917 128.414 347.172 136.246 346.408 143.674C345.613 150.931 341.985 157.582 336.313 162.178C330.346 167.065 322.64 169.303 314.983 168.377C308.252 167.583 301.23 164.093 296.957 158.756Z" fill="#F6F3EA"/>
<path d="M300.637 121.233C301.061 121.298 301.354 121.333 301.741 121.526C299.622 123.84 297.679 126.052 296.022 128.733C296.076 128.315 296.106 128.155 295.97 127.744C295.619 128.211 295.398 128.719 294.822 128.872C296.104 125.949 298.298 123.368 300.637 121.233Z" fill="#F9F6F6"/>
<path d="M125.241 100.453C127.525 100.122 130.102 100.316 132.417 100.323L145.003 100.364L188.813 100.351L275.988 100.352L304.963 100.337C310.398 100.335 315.869 100.201 321.299 100.397C324.51 100.513 328.019 101.048 331.042 102.154C334.359 103.367 344.207 107.779 345.648 110.874C345.47 111.645 344.964 111.833 344.35 112.309L343.987 112.259C343.809 111.934 343.607 111.494 343.361 111.211C342.859 110.627 341.741 110.103 341.069 109.693C336.548 106.927 331.848 104.678 326.561 103.885C322.056 103.209 317.308 103.541 312.763 103.578L294.967 103.609L223.586 103.585L151.466 103.598C146.37 103.616 141.273 103.598 136.177 103.546C131.036 103.478 125.718 103.083 120.64 104.015C114.44 105.202 108.688 108.074 104.013 112.315C96.7012 118.833 91.5984 127.303 91.1046 137.253C90.7783 143.824 92.0461 149.72 94.6781 155.731C95.1265 156.755 95.5976 158.177 96.3593 159C96.7357 159.408 96.5756 159.15 96.7882 159.72L96.5233 159.799C93.9609 157.612 93.1256 150.116 91.293 149.075C90.9084 149.411 90.4901 149.683 90.0679 149.969C89.7541 151.618 91.5194 153.55 91.815 155.204C92.7851 160.636 98.0503 165.232 101.53 169.17L101.363 169.263C101.207 169.144 101.053 169.022 100.901 168.898C94.0938 163.284 89.584 153.58 88.6898 144.91C87.5707 134.059 89.9262 123.241 96.9637 114.711C104.445 105.643 113.771 101.593 125.241 100.453Z" fill="url(#paint1_linear_154_179)"/>
<path d="M14.4724 13.8563C15.6974 11.7376 16.7245 10.3386 18.851 9.06616C22.7899 6.70929 26.2565 6.86444 30.569 7.86569C34.2846 9.86655 36.2962 12.3034 37.8021 16.2305C38.2715 16.4694 38.3181 16.5333 38.4869 17.0635C39.1992 19.2987 38.7435 22.2992 37.6078 24.316C36.1059 26.9827 33.3456 29.2526 30.3585 29.9724C27.1525 30.7447 22.9464 30.1672 20.1396 28.3885C19.8993 28.2364 19.7165 28.0616 19.5149 27.8628L19.5745 27.455C17.5485 25.7068 15.9482 23.6208 14.2971 21.5307C14.2666 21.2433 14.2413 20.9544 14.2063 20.6673C13.9085 18.2262 14.2399 16.2641 14.4724 13.8563Z" fill="#0B1316"/>
<path d="M37.802 16.2354C38.2715 16.4742 38.3181 16.5382 38.4868 17.0683C39.1991 19.3036 38.7435 22.304 37.6077 24.3208C36.1058 26.9875 33.3456 29.2575 30.3585 29.9772C27.1525 30.7495 22.9464 30.172 20.1395 28.3933C19.8993 28.2412 19.7165 28.0664 19.5149 27.8676L19.5744 27.4598C21.8324 28.6216 24.1365 29.3838 26.7151 29.2795C29.9727 29.1541 33.0332 27.6869 35.1709 25.2257C37.4638 22.5618 38.1191 19.6432 37.802 16.2354Z" fill="#3B4244"/>
<path d="M24.9524 11.1096C27.1349 10.9059 29.316 11.1203 31.037 12.6171C32.5571 13.9396 33.2603 15.8791 33.3212 17.8593C33.3774 19.6947 32.8801 21.5697 31.5803 22.9134C30.3036 24.2329 28.8624 24.6269 27.0814 24.7049C25.168 24.4303 23.1231 24.1167 21.4372 23.1178C20.0202 22.2782 18.962 20.9845 18.5785 19.3671C18.2005 17.7731 18.5518 16.1097 19.4115 14.7311C20.7268 12.6224 22.6321 11.6695 24.9524 11.1096Z" fill="#3B4244"/>
<path d="M21.4177 17.7767C21.4151 16.6531 21.4615 15.6151 22.1095 14.6574C23.1464 13.1256 24.8984 12.8157 26.5906 12.5474C26.8081 12.6346 27.0263 12.7203 27.241 12.8148C28.5457 13.3876 29.4267 13.8374 29.9543 15.2066C30.4256 17.1381 30.9441 18.9031 29.7509 20.7121C29.0759 21.7356 27.9835 22.3124 26.7902 22.487C25.3524 22.6998 23.8894 22.322 22.7339 21.4398C22.0486 20.9061 21.4418 20.0155 21.3429 19.1347C21.2878 18.6425 21.3401 18.2593 21.4177 17.7767Z" fill="#0B1316"/>
<path d="M21.42 17.7792C21.4174 16.6556 21.4638 15.6175 22.1119 14.6599C23.1488 13.128 24.9007 12.8182 26.5929 12.5498C26.8104 12.637 27.0286 12.7228 27.2433 12.8172C28.5481 13.39 29.4291 13.8398 29.9567 15.209C29.562 15.0225 29.168 14.8394 28.7789 14.6411C27.5196 13.9996 25.7845 13.5672 24.3884 13.995C23.2772 14.3353 22.522 15.2435 22.0442 16.2621C21.8114 16.758 21.6115 17.2661 21.42 17.7792Z" fill="#262829"/>
<path d="M28.6943 271.535C30.4277 271.181 32.3034 271.819 33.7402 272.812C35.2125 273.832 35.891 274.741 36.2993 276.457C37.2155 278.395 37.7815 280.144 37.7048 282.328C37.587 285.677 36.3082 289.486 33.7652 291.743C31.3123 293.918 27.6879 294.677 24.4699 294.48C21.4043 294.29 18.8074 293.058 16.7941 290.716C13.7379 287.163 13.9533 283.233 14.2472 278.866C15.6349 276.944 16.676 275.001 18.6112 273.515C21.507 271.296 25.1998 271.008 28.6943 271.535Z" fill="#0B1316"/>
<path d="M25.6362 275.503C27.2663 275.292 28.9566 275.498 30.4339 276.246C31.7721 276.914 32.7818 278.095 33.2318 279.522C33.8989 281.646 33.5609 284.358 32.4474 286.277C31.1939 288.436 29.3846 289.394 27.0802 290.055C25.2746 290.151 23.7544 289.884 22.1996 288.916C20.4682 287.847 19.2652 286.101 18.8841 284.104C18.5389 282.215 18.9781 280.268 20.1 278.711C21.4503 276.822 23.3998 275.885 25.6362 275.503Z" fill="#3B4244"/>
<path d="M25.6382 277.35C25.9715 277.331 25.9752 277.324 26.3622 277.343C27.6993 277.409 29.0995 277.894 29.9995 278.92C31.3973 280.512 31.2852 282.424 31.1767 284.388C29.7114 286.446 28.4315 287.51 26.0055 288.356C25.4057 288.387 24.764 288.445 24.1689 288.352C22.2416 288.047 21.1398 286.238 20.1423 284.756C20.0819 283.184 20.1545 281.81 20.9591 280.416C22.015 278.585 23.7074 277.915 25.6382 277.35Z" fill="#0B1316"/>
<path d="M418.97 271.399C425.357 270.197 431.505 274.411 432.688 280.8C433.869 287.189 429.639 293.325 423.248 294.49C416.88 295.65 410.774 291.441 409.595 285.077C408.416 278.714 412.609 272.594 418.97 271.399Z" fill="#0B1316"/>
<path d="M414.517 286.463C413.526 284.93 413.141 283.043 413.533 281.234C413.976 279.199 415.387 277.575 417.144 276.523C419.041 275.367 421.33 275.049 423.468 275.646C425.219 276.12 426.883 277.13 427.806 278.733C428.777 280.416 428.854 282.748 428.308 284.585C427.734 286.514 426.198 288.174 424.41 289.062C422.849 289.838 420.958 289.983 419.324 289.352C418.18 288.912 417.114 288.183 416.505 287.105C416.336 286.999 416.134 286.934 415.952 286.859C415.919 287.248 415.848 287.538 415.708 287.904C415.138 287.609 414.852 286.988 414.517 286.463Z" fill="#3B4244"/>
<path d="M417.227 279.218C418.309 278.107 419.484 277.263 421.101 277.273C422.383 277.28 423.571 277.896 424.41 278.85C425.446 280.029 425.866 281.648 425.69 283.198C425.549 284.447 425.006 285.523 424.007 286.298C422.692 287.323 421.211 287.205 419.636 287.212C418.391 286.601 417.405 285.86 416.788 284.569C415.919 282.741 416.556 280.966 417.227 279.218Z" fill="#0B1316"/>
<path d="M417.224 279.22C416.554 280.969 415.916 282.743 416.786 284.571C417.402 285.862 418.389 286.603 419.634 287.215C418.565 287.391 417.524 286.601 416.498 286.317L416.507 287.102C416.338 286.997 416.137 286.931 415.954 286.856C415.921 287.245 415.851 287.536 415.71 287.901C415.141 287.606 414.855 286.985 414.52 286.46C415.323 285.002 414.726 283.317 415.164 281.695C415.457 280.603 416.303 279.804 417.224 279.22Z" fill="#262829"/>
<path d="M420.149 6.86172C425.847 6.22141 431.092 10.0248 432.257 15.6379C433.42 21.2507 430.117 26.8265 424.637 28.5039C419.155 30.1811 413.298 27.4077 411.121 22.1045C408.946 16.8013 411.166 10.7134 416.245 8.05633C417.461 7.42024 418.785 7.015 420.149 6.86172Z" fill="#0B1316"/>
<path d="M414.299 17.6698C414.601 15.6009 415.309 13.8258 417.053 12.5468C418.68 11.3691 420.721 10.9202 422.692 11.3081C424.6 11.6726 426.564 12.7324 427.614 14.4136C428.467 15.7781 428.655 17.3698 428.221 18.9122C427.682 20.8392 426.135 22.8063 424.377 23.7668C422.912 24.5665 421.316 24.6492 419.694 24.4366C417.923 24.0262 416.055 22.2785 415.058 20.8071C414.414 19.8581 414.048 18.8126 414.299 17.6698Z" fill="#0B1316"/>
<path d="M414.297 17.6698C414.599 15.6009 415.307 13.8258 417.051 12.5468C418.677 11.3691 420.719 10.9202 422.69 11.3081C424.598 11.6726 426.562 12.7324 427.612 14.4136C428.465 15.7781 428.652 17.3698 428.219 18.9122C427.68 20.8392 426.133 22.8063 424.375 23.7668C422.91 24.5665 421.314 24.6492 419.692 24.4366L419.767 23.6395C420.85 23.3519 421.952 23.0791 422.861 22.3933C424.091 21.4671 425.104 19.9957 425.277 18.4418C425.446 16.8937 425.008 15.7087 424.091 14.4909C422.034 13.7681 420.438 13.4538 418.298 14.1227L417.721 13.7988C415.975 15.034 415.403 16.125 414.548 18.0382L414.297 17.6698Z" fill="#3B4244"/>
<path d="M417.721 13.7939C419.067 13.0566 420.702 12.4964 422.242 12.907C422.962 13.0985 423.527 13.4433 423.892 14.1035C423.963 14.2291 424.026 14.3585 424.091 14.486C422.034 13.7632 420.438 13.4489 418.298 14.1178L417.721 13.7939Z" fill="#262829"/>
<path d="M417.721 13.7964L418.298 14.1203C416.481 15.9972 416.045 17.087 416.088 19.7284C416.088 20.0022 416.097 20.2759 416.113 20.5492C416.866 21.861 417.606 23.1379 419.184 23.5337C419.404 23.589 419.528 23.6005 419.767 23.6371L419.692 24.4342C417.92 24.0238 416.052 22.2761 415.056 20.8047C414.412 19.8557 414.046 18.8101 414.297 17.6673L414.548 18.0358C415.403 16.1226 415.975 15.0315 417.721 13.7964Z" fill="#262829"/>
<path d="M14.4699 13.8587C14.4542 13.6817 14.416 13.3878 14.4441 13.2048C14.5634 12.429 15.2909 11.5604 15.7463 10.9163C18.1728 7.48367 19.9702 6.82789 24.0924 6.6664C30.3263 6.42195 36.5382 6.78804 42.7644 6.79062L101.943 6.73015L406.682 6.77281C408.475 6.75945 417.93 6.84407 418.991 6.18641C419.814 5.67547 420.36 5.60023 421.333 5.65555C422.043 5.69609 424.286 5.67078 424.694 6.13437C423.18 6.20234 421.422 6.035 420.147 6.86164C418.783 7.01492 417.458 7.42016 416.242 8.05625C413.041 8.0136 409.898 7.46375 406.708 7.39719C390.505 7.1525 374.303 7.06883 358.101 7.14594C350.706 7.16281 343.232 7.20664 335.84 7.38852C334.232 7.42789 332.701 7.95172 331.096 7.9311C327.646 7.8868 324.217 7.35781 320.758 7.31774C258.524 6.88649 196.288 6.84547 134.054 7.19445C129.94 7.21461 125.802 6.97508 121.678 6.9643C109.941 6.93336 98.2114 7.21578 86.4741 7.16117C74.3764 7.10492 62.2712 6.82719 50.1685 6.9936C43.6109 7.0836 37.1094 7.75602 30.5666 7.86805C26.2541 6.8668 22.7874 6.71164 18.8485 9.06852C16.722 10.3409 15.695 11.7399 14.4699 13.8587Z" fill="#3B4244"/>
<path d="M69.4551 256.31C69.66 256.059 69.9858 255.944 70.3026 256.005C70.6195 256.069 70.8761 256.301 70.9706 256.61C71.0648 256.919 70.9819 257.255 70.754 257.484C70.4243 257.815 69.8918 257.831 69.5447 257.517C69.1976 257.203 69.1579 256.671 69.4551 256.31Z" fill="#242D30"/>
<path d="M89.5928 232.512C89.7104 232.142 89.8377 231.776 89.9746 231.41C90.3013 230.564 90.7522 229.953 91.6157 229.61C92.7639 229.153 94.258 229.097 95.4869 229.055C104.776 228.722 114.095 228.905 123.389 228.912L167.323 228.921L305.854 228.919L335.322 228.917C340.204 228.917 345.454 228.532 350.287 229.036C351.688 229.181 352.773 229.538 354.044 230.107C354.51 230.412 354.85 230.644 355.211 231.078L356.153 232.406L355.448 232.533C355.124 233.26 355.164 233.745 355.241 234.528L354.498 235.61C357.543 248.325 360.763 261.014 363.606 273.776C364.827 279.256 366.447 284.956 366.965 290.538C367.162 292.662 367.005 294.464 366.426 296.529C360.273 297.033 353.929 296.731 347.755 296.728L314.88 296.714L158.78 296.726L107.633 296.731C99.0854 296.726 90.4089 296.398 81.8788 296.719C81.1047 296.747 80.6111 296.986 79.9319 297.352C79.3762 297.652 78.8345 297.659 78.2347 297.436C77.8785 297.303 77.8907 297.251 77.6017 296.967C77.009 296.29 76.5346 295.542 76.0405 294.792C76.858 287.578 79.0462 280.2 80.605 273.106L89.5928 232.512Z" fill="#262829"/>
<path d="M89.5881 232.514C89.7058 232.144 89.8331 231.778 89.9699 231.412C90.2966 230.566 90.7476 229.954 91.611 229.612C92.7592 229.155 94.2534 229.099 95.4822 229.057C104.771 228.724 114.09 228.907 123.384 228.914L167.318 228.923L305.849 228.921L335.317 228.919C340.199 228.919 345.449 228.534 350.282 229.038C351.684 229.183 352.769 229.54 354.039 230.109L353.929 230.512C353.845 230.543 353.755 230.566 353.676 230.606C352.633 231.147 352.173 232.483 351.266 233.14C348.039 232.083 332.017 232.715 327.489 232.715L280.909 232.713L162.695 232.72C141.696 232.713 120.622 232.35 99.6295 232.788C97.6509 232.828 95.7801 232.983 93.9845 233.918C93.8088 234.009 93.6351 234.105 93.4635 234.206L93.1141 234.15L93.2299 234.002C92.0303 233.447 90.8594 232.891 89.5881 232.514Z" fill="#5E5E5E"/>
<path d="M89.5904 232.514C90.8616 232.892 92.0325 233.447 93.2321 234.002L93.1163 234.15L93.4657 234.206C93.1278 234.727 92.8039 235.259 92.6185 235.856C92.0665 237.631 91.83 239.604 91.4642 241.43C90.9003 244.167 90.3017 246.898 89.6684 249.619C86.787 262.399 84.1221 275.21 81.1142 287.96C80.689 289.763 80.8022 293.229 80.2875 294.551C79.9343 295.456 78.6666 296.356 77.9161 296.92L77.5993 296.97C77.0065 296.292 76.5321 295.545 76.0381 294.795C76.8556 287.581 79.0437 280.202 80.6025 273.108L89.5904 232.514Z" fill="#3B4244"/>
<path d="M354.037 230.112C354.503 230.417 354.843 230.649 355.204 231.082C354.445 232.32 353.943 233.445 353.488 234.825C352.785 234.305 351.859 233.77 351.264 233.142C352.171 232.486 352.631 231.15 353.674 230.609C353.753 230.569 353.842 230.545 353.927 230.515L354.037 230.112Z" fill="#3B4244"/>
<path d="M327.203 268.301C333.991 267.391 340.239 272.13 341.198 278.909C342.156 285.689 337.466 291.973 330.693 292.98C323.849 294 317.486 289.249 316.518 282.398C315.548 275.548 320.345 269.219 327.203 268.301Z" fill="#0B1316"/>
<path d="M327.296 273.161C331.554 272.291 335.71 275.04 336.577 279.297C337.447 283.555 334.697 287.711 330.439 288.578C326.183 289.445 322.027 286.698 321.16 282.442C320.293 278.183 323.04 274.03 327.296 273.161Z" fill="#F6F3EA"/>
<path d="M283.321 264.007C285.838 263.791 288.508 264.53 290.678 265.812C293.287 267.356 295.251 269.855 295.942 272.824C296.645 275.845 295.818 279.148 294.112 281.698C292.108 284.695 289.33 286.083 285.887 286.788C283.108 286.997 280.417 286.446 278.064 284.897C275.338 283.101 273.873 280.498 273.198 277.366C272.598 274.594 272.523 271.069 274.194 268.659C276.297 265.626 279.913 264.665 283.321 264.007Z" fill="#0B1316"/>
<path d="M283.751 268.179C285.555 267.82 287.564 267.961 289.155 268.962C290.594 269.871 291.544 271.334 291.9 272.988C292.331 275.053 291.919 277.205 290.751 278.963C289.758 280.442 288.251 281.482 286.476 281.756C285.553 281.899 284.791 281.747 283.896 281.541L283.521 281.456L283.296 281.405C282.635 281.25 282.014 281.086 281.426 280.737C279.836 279.792 278.651 278.346 278.208 276.539C277.781 274.788 278.001 272.796 278.967 271.256C280.083 269.478 281.782 268.678 283.751 268.179Z" fill="#F6F3EA"/>
<path d="M284.455 268.179C286.259 267.82 288.268 267.961 289.859 268.962C291.298 269.871 292.248 271.334 292.604 272.988C293.035 275.053 292.623 277.205 291.455 278.963C290.462 280.442 288.955 281.482 287.18 281.756C286.257 281.899 285.495 281.747 284.6 281.541L284.225 281.456L284 281.405C285.228 281.154 286.559 280.868 287.698 280.334C289.327 279.572 290.818 278.33 291.42 276.586C291.92 275.133 291.702 273.551 290.963 272.222C289.517 269.628 287.087 268.953 284.455 268.179Z" fill="#92938F"/>
<path d="M151.446 279.696C150.317 276.354 150.607 272.89 152.167 269.723C153.059 267.912 155.036 265.244 157.007 264.534C159.758 263.545 164.972 264.464 167.487 265.755C169.961 267.016 171.826 269.215 172.665 271.861C173.62 274.912 173.449 278.583 171.949 281.421C170.719 283.746 168.541 285.621 165.993 286.334C162.937 287.189 159.292 286.774 156.567 285.157C155.62 284.594 154.831 283.924 154.067 283.137C153.96 283.16 153.855 283.193 153.746 283.207C153.231 283.266 152.799 283.125 152.425 282.757C151.609 281.955 151.408 280.791 151.446 279.696Z" fill="#0B1316"/>
<path d="M151.443 279.698C152.372 280.809 153.16 282.014 154.065 283.139C153.958 283.162 153.852 283.195 153.743 283.209C153.229 283.268 152.796 283.127 152.422 282.759C151.606 281.958 151.406 280.793 151.443 279.698Z" fill="#242D30"/>
<path d="M161.255 268.024C162.904 267.933 164.335 268.066 165.748 269.006C168.043 270.53 168.66 273.127 169.144 275.658C168.593 277.188 167.995 278.7 166.838 279.884C165.226 281.534 163.217 281.801 161.031 281.829C159.193 281.353 157.858 280.139 156.585 278.775L156.407 278.58L156.936 279.448C156.151 278.902 155.56 277.945 155.269 277.045C154.793 275.573 154.964 273.933 155.665 272.564C156.722 270.499 159.082 268.704 161.255 268.024Z" fill="#F6F3EA"/>
<path d="M218.017 260.77C217.605 260.365 216.958 260.041 216.487 259.673C214.263 257.946 212.538 256.005 211.97 253.146C211.403 250.287 212.2 247.108 213.846 244.727C215.499 242.339 218.28 240.874 221.12 240.459C223.968 240.042 227.003 240.621 229.305 242.407C231.327 243.977 233.186 247.036 233.479 249.64C233.516 249.989 233.528 250.188 233.643 250.537C233.671 250.624 233.709 250.708 233.741 250.795L234.138 250.737C235.049 252.757 235.038 254.641 234.187 256.715C233.156 259.235 231.191 261.255 228.653 262.247C225.836 263.346 221.784 263.315 219.023 262.019C218.554 261.799 218.17 261.534 217.759 261.22L217.764 260.925L218.017 260.77Z" fill="#0B1316"/>
<path d="M233.741 250.795L234.137 250.737C235.049 252.757 235.037 254.642 234.187 256.716C233.155 259.235 231.191 261.256 228.653 262.247C225.836 263.346 221.783 263.316 219.023 262.02C218.554 261.799 218.169 261.534 217.759 261.22L217.764 260.925L218.017 260.77C219.564 261.527 221.033 261.989 222.77 262.006C225.646 262.029 228.768 260.775 230.805 258.738C232.898 256.643 233.8 253.699 233.741 250.795Z" fill="#3B4244"/>
<path d="M215.836 249.474C215.934 249.291 216.034 249.108 216.129 248.925C216.305 248.578 216.466 248.229 216.657 247.889C217.581 246.244 219.365 244.887 221.202 244.442C223.574 243.867 225.726 244.777 227.699 246.042C228.182 246.312 228.531 246.495 228.705 247.057C228.995 248.002 229.084 249.019 229.359 249.98C229.769 251.426 229.67 252.851 228.904 254.168C228.013 255.701 226.338 256.856 224.62 257.248C222.623 257.702 220.563 257.084 218.88 255.989C217.246 254.927 216.159 253.331 215.785 251.407C215.66 250.76 215.739 250.12 215.836 249.474Z" fill="#242D30"/>
<path d="M218.835 248.407C221.191 247.341 223.605 246.385 226.171 247.416C227.387 247.903 228.133 248.66 228.948 249.659C227.69 252.214 226.649 254.391 224.622 256.451C223.354 256.491 222.13 256.566 220.872 256.744C220.241 255.945 219.149 253.852 218.409 253.374C218.357 253.228 218.303 253.083 218.254 252.935C217.677 251.229 218.041 249.964 218.835 248.407Z" fill="#0B1316"/>
<path d="M215.832 249.471C215.929 249.288 216.029 249.106 216.124 248.923C216.3 248.576 216.461 248.227 216.652 247.887C217.576 246.241 219.36 244.884 221.198 244.439C223.569 243.865 225.721 244.774 227.694 246.04C227.547 246.056 227.399 246.075 227.251 246.089C224.701 246.326 221.603 245.056 219.543 247.291C219.203 247.657 219.039 247.966 218.83 248.407C218.036 249.963 217.673 251.229 218.249 252.935C218.298 253.083 218.352 253.228 218.404 253.373C218.019 253.519 218.23 253.502 217.766 253.338C216.823 252.223 215.84 250.99 215.832 249.471Z" fill="#3B4244"/>
<path d="M116.735 273.956C120.978 272.867 125.303 275.414 126.406 279.654C127.51 283.892 124.978 288.225 120.743 289.345C116.486 290.471 112.126 287.92 111.017 283.662C109.908 279.401 112.471 275.051 116.735 273.956Z" fill="#F6F3EA"/>
<path d="M129.801 278.124C130.045 278.149 130.56 278.163 130.806 278.267C131.313 278.48 131.456 279.007 131.591 279.492C132.473 282.68 131.503 286.62 129.783 289.378C127.945 292.329 124.879 294.549 121.479 295.303C118.498 295.964 115.59 295.484 113.014 293.864C111.961 293.194 111.068 292.425 110.142 291.595C112.46 292.678 114.724 293.552 117.321 293.613C120.347 293.684 122.937 292.758 125.129 290.658C128.767 287.17 129.673 282.987 129.801 278.124Z" fill="#3B4244"/>
<path d="M6.14811 195.469C6.39481 195.72 6.40203 195.966 6.43057 196.327C6.62529 198.785 6.43592 201.408 6.43545 203.887L6.43568 219.497L6.46943 266.538C6.46803 267.124 6.57022 267.809 6.17864 268.256L5.65983 267.78C5.24539 267.363 4.509 266.705 4.39179 266.105C3.99837 264.091 4.22796 261.548 4.22804 259.486L4.2439 246.579L4.18969 197.655L6.14811 195.469Z" fill="#262829"/>
<path d="M440.767 197.278C441.362 197.724 441.866 198.434 442.356 199.001C442.565 211.629 442.345 224.297 442.349 236.928C442.349 244.983 442.773 253.617 442.246 261.612C442.152 263.039 441.918 264.185 441.355 265.514C441.152 265.868 441.29 265.683 440.903 266.035C440.345 264.91 440.545 204.467 440.767 197.278Z" fill="#262829"/>
<path d="M316.391 116.181C316.509 116.166 316.627 116.15 316.745 116.136C321.081 115.637 326.631 116.485 330.118 119.136C329.369 119.307 328.542 119.456 327.836 119.752C326.869 120.158 326.053 121.234 325.713 122.181C325.334 123.237 325.44 124.39 325.96 125.382C326.83 127.041 328.151 127.55 329.88 128.064C330.497 127.901 331.149 127.749 331.727 127.48C333.171 126.806 333.944 125.511 334.402 124.07C334.559 123.578 334.671 123.192 334.966 122.756C335.55 122.937 335.777 123.224 336.176 123.673C338.668 126.479 342.972 133.313 342.758 136.969C342.166 137.611 338.865 136.508 337.285 137.11C336.44 137.432 335.881 138.052 335.58 138.878C335.127 140.12 335.066 142.03 335.708 143.225C337.162 145.927 340.28 144.111 342.423 144.827C342.923 145.436 343.065 145.819 342.975 146.608C342.477 150.976 338.374 156.496 334.928 159.193C334.404 158.023 333.818 156.659 332.76 155.847C331.766 155.083 330.537 154.699 329.275 154.868C328.032 155.034 326.861 155.684 326.165 156.714C325.571 157.592 325.383 158.673 325.646 159.693C326.143 161.661 327.566 162.423 329.228 163.37C325.793 165.243 322.306 165.886 318.408 166C315.077 166.012 311.342 165.002 308.435 163.428C309.397 162.629 310.456 161.724 311.05 160.616C311.561 159.665 311.784 158.527 311.432 157.487C311.094 156.484 310.297 155.707 309.315 155.289C308.152 154.793 306.869 154.843 305.712 155.323C303.798 156.117 302.408 157.796 301.674 159.651C300.991 159.121 300.343 158.55 299.733 157.942C295.844 154.049 293.266 148.944 293.318 143.459C294.477 144.163 295.566 144.772 296.839 145.266C297.27 145.144 297.697 145.01 298.12 144.867C299.387 144.428 300.451 143.552 300.994 142.334C301.419 141.375 301.425 140.289 301.009 139.327C300.567 138.312 299.715 137.521 298.655 137.14C296.563 136.383 294.847 137.274 293 138.157C293.466 133.785 295.402 129.73 298.038 126.2C298.96 124.966 300.555 122.576 302.234 122.424C302.342 122.414 302.472 122.359 302.559 122.423C302.745 122.559 303.381 126.015 304.85 127.16C305.752 127.862 306.733 127.966 307.844 127.781C309.08 127.574 310.327 127.099 311.019 126.019C311.602 125.109 311.67 123.972 311.433 122.944C310.968 120.93 309.845 119.888 308.133 118.816C310.802 117.198 313.298 116.59 316.391 116.181Z" fill="#111111" class="reel-right"/>
<path d="M213.625 275.18H210.57V274.242C210.57 273.805 210.531 273.526 210.453 273.406C210.375 273.286 210.245 273.227 210.062 273.227C209.865 273.227 209.714 273.307 209.609 273.469C209.51 273.63 209.461 273.875 209.461 274.203C209.461 274.625 209.518 274.943 209.633 275.156C209.742 275.37 210.052 275.628 210.562 275.93C212.026 276.799 212.948 277.513 213.328 278.07C213.708 278.628 213.898 279.526 213.898 280.766C213.898 281.667 213.792 282.331 213.578 282.758C213.37 283.185 212.964 283.544 212.359 283.836C211.755 284.122 211.052 284.266 210.25 284.266C209.37 284.266 208.617 284.099 207.992 283.766C207.372 283.432 206.966 283.008 206.773 282.492C206.581 281.977 206.484 281.245 206.484 280.297V279.469H209.539V281.008C209.539 281.482 209.581 281.786 209.664 281.922C209.753 282.057 209.906 282.125 210.125 282.125C210.344 282.125 210.505 282.039 210.609 281.867C210.719 281.695 210.773 281.44 210.773 281.102C210.773 280.357 210.672 279.87 210.469 279.641C210.26 279.411 209.747 279.029 208.93 278.492C208.112 277.951 207.57 277.557 207.305 277.312C207.039 277.068 206.818 276.729 206.641 276.297C206.469 275.865 206.383 275.312 206.383 274.641C206.383 273.672 206.505 272.964 206.75 272.516C207 272.068 207.401 271.719 207.953 271.469C208.505 271.214 209.172 271.086 209.953 271.086C210.807 271.086 211.534 271.224 212.133 271.5C212.737 271.776 213.135 272.125 213.328 272.547C213.526 272.964 213.625 273.674 213.625 274.68V275.18ZM218.227 271.352V284H214.938V271.352H218.227ZM219.547 271.352H222.008C223.596 271.352 224.669 271.424 225.227 271.57C225.789 271.716 226.216 271.956 226.508 272.289C226.799 272.622 226.982 272.995 227.055 273.406C227.128 273.812 227.164 274.615 227.164 275.812V280.242C227.164 281.378 227.109 282.138 227 282.523C226.896 282.904 226.711 283.203 226.445 283.422C226.18 283.635 225.852 283.786 225.461 283.875C225.07 283.958 224.482 284 223.695 284H219.547V271.352ZM222.836 273.516V281.836C223.31 281.836 223.602 281.742 223.711 281.555C223.82 281.362 223.875 280.844 223.875 280V275.086C223.875 274.513 223.857 274.146 223.82 273.984C223.784 273.823 223.701 273.706 223.57 273.633C223.44 273.555 223.195 273.516 222.836 273.516ZM228.391 271.352H233.875V273.883H231.68V276.281H233.734V278.688H231.68V281.469H234.094V284H228.391V271.352Z" fill="white"/>
<path d="M54.3672 197.844V200H47.4219V198.195C49.4792 194.831 50.7005 192.75 51.0859 191.953C51.4766 191.151 51.6719 190.526 51.6719 190.078C51.6719 189.734 51.612 189.479 51.4922 189.312C51.3776 189.141 51.2005 189.055 50.9609 189.055C50.7214 189.055 50.5417 189.148 50.4219 189.336C50.3073 189.523 50.25 189.896 50.25 190.453V191.656H47.4219V191.195C47.4219 190.487 47.4583 189.93 47.5312 189.523C47.6042 189.112 47.7839 188.708 48.0703 188.312C48.3568 187.917 48.7292 187.617 49.1875 187.414C49.6458 187.211 50.1953 187.109 50.8359 187.109C52.0911 187.109 53.0391 187.422 53.6797 188.047C54.3255 188.667 54.6484 189.453 54.6484 190.406C54.6484 191.13 54.4661 191.896 54.1016 192.703C53.7422 193.51 52.6771 195.224 50.9062 197.844H54.3672ZM61.8438 189.633L60.5859 194.586L62.1094 200H59.0391C58.737 198.635 58.5078 197.461 58.3516 196.477C58.1432 197.706 57.9167 198.88 57.6719 200H55.0312L56.3906 194.586L55.0312 189.633H57.6719C58.0938 191.747 58.3203 192.948 58.3516 193.234C58.6536 191.469 58.8828 190.268 59.0391 189.633H61.8438Z" fill="black"/>
<path d="M332.703 199.801H336.648C336.648 200.536 336.658 201.002 336.678 201.197C336.697 201.386 336.775 201.546 336.912 201.676C337.055 201.806 337.247 201.871 337.488 201.871C337.69 201.871 337.856 201.809 337.986 201.686C338.117 201.562 338.188 201.402 338.201 201.207C338.221 201.012 338.23 200.618 338.23 200.025V197.506C338.035 197.929 337.742 198.248 337.352 198.463C336.961 198.671 336.476 198.775 335.896 198.775C335.174 198.775 334.536 198.58 333.982 198.189C333.429 197.799 333.077 197.33 332.928 196.783C332.778 196.236 332.703 195.497 332.703 194.566V193.307C332.703 192.2 332.745 191.376 332.83 190.836C332.921 190.296 333.149 189.798 333.514 189.342C333.878 188.88 334.383 188.521 335.027 188.268C335.672 188.014 336.421 187.887 337.273 187.887C338.328 187.887 339.194 188.033 339.871 188.326C340.548 188.619 341.072 189.042 341.443 189.596C341.814 190.143 342.029 190.719 342.088 191.324C342.146 191.93 342.176 193.102 342.176 194.84V197.037C342.176 198.919 342.15 200.178 342.098 200.816C342.046 201.448 341.818 202.047 341.414 202.613C341.017 203.18 340.477 203.606 339.793 203.893C339.109 204.173 338.318 204.312 337.42 204.312C336.307 204.312 335.395 204.133 334.686 203.775C333.982 203.417 333.475 202.913 333.162 202.262C332.856 201.611 332.703 200.79 332.703 199.801ZM336.648 194.869C336.648 195.533 336.733 195.943 336.902 196.1C337.078 196.256 337.257 196.334 337.439 196.334C337.713 196.334 337.911 196.236 338.035 196.041C338.165 195.839 338.23 195.449 338.23 194.869V192.008C338.23 191.311 338.169 190.855 338.045 190.641C337.928 190.426 337.729 190.318 337.449 190.318C337.28 190.318 337.104 190.403 336.922 190.572C336.74 190.735 336.648 191.181 336.648 191.91V194.869ZM352.85 193.541V198.814C352.85 200.012 352.785 200.885 352.654 201.432C352.524 201.979 352.254 202.49 351.844 202.965C351.434 203.44 350.939 203.782 350.359 203.99C349.78 204.199 349.132 204.303 348.416 204.303C347.472 204.303 346.688 204.195 346.062 203.98C345.438 203.759 344.939 203.417 344.568 202.955C344.197 202.493 343.934 202.008 343.777 201.5C343.621 200.986 343.543 200.172 343.543 199.059V193.541C343.543 192.089 343.667 191.002 343.914 190.279C344.168 189.557 344.666 188.977 345.408 188.541C346.157 188.105 347.062 187.887 348.123 187.887C348.989 187.887 349.764 188.04 350.447 188.346C351.131 188.645 351.642 189.013 351.98 189.449C352.319 189.885 352.547 190.377 352.664 190.924C352.788 191.471 352.85 192.343 352.85 193.541ZM348.904 192.213C348.904 191.373 348.862 190.849 348.777 190.641C348.699 190.426 348.51 190.318 348.211 190.318C347.918 190.318 347.723 190.432 347.625 190.66C347.534 190.882 347.488 191.399 347.488 192.213V199.928C347.488 200.846 347.531 201.399 347.615 201.588C347.706 201.777 347.898 201.871 348.191 201.871C348.484 201.871 348.676 201.76 348.768 201.539C348.859 201.318 348.904 200.82 348.904 200.045V192.213ZM362.322 195.182H358.826V194.479C358.826 193.88 358.79 193.502 358.719 193.346C358.654 193.183 358.484 193.102 358.211 193.102C357.99 193.102 357.824 193.176 357.713 193.326C357.602 193.469 357.547 193.688 357.547 193.98C357.547 194.378 357.573 194.671 357.625 194.859C357.684 195.042 357.85 195.243 358.123 195.465C358.403 195.686 358.973 196.008 359.832 196.432C360.978 196.992 361.73 197.519 362.088 198.014C362.446 198.508 362.625 199.228 362.625 200.172C362.625 201.227 362.488 202.024 362.215 202.564C361.941 203.098 361.482 203.512 360.838 203.805C360.2 204.091 359.428 204.234 358.523 204.234C357.521 204.234 356.661 204.078 355.945 203.766C355.236 203.453 354.747 203.03 354.48 202.496C354.214 201.962 354.08 201.155 354.08 200.074V199.449H357.576V200.27C357.576 200.966 357.618 201.419 357.703 201.627C357.794 201.835 357.97 201.939 358.23 201.939C358.51 201.939 358.706 201.871 358.816 201.734C358.927 201.591 358.982 201.295 358.982 200.846C358.982 200.227 358.911 199.84 358.768 199.684C358.618 199.527 357.853 199.065 356.473 198.297C355.314 197.646 354.607 197.057 354.354 196.529C354.1 195.995 353.973 195.364 353.973 194.635C353.973 193.6 354.109 192.838 354.383 192.35C354.656 191.855 355.118 191.474 355.77 191.207C356.427 190.94 357.189 190.807 358.055 190.807C358.914 190.807 359.643 190.917 360.242 191.139C360.848 191.354 361.31 191.64 361.629 191.998C361.954 192.356 362.15 192.688 362.215 192.994C362.286 193.3 362.322 193.779 362.322 194.43V195.182ZM367.332 188.189H370.242C372.182 188.189 373.494 188.264 374.178 188.414C374.868 188.564 375.428 188.948 375.857 189.566C376.294 190.178 376.512 191.158 376.512 192.506C376.512 193.736 376.359 194.563 376.053 194.986C375.747 195.41 375.145 195.663 374.246 195.748C375.06 195.95 375.607 196.22 375.887 196.559C376.167 196.897 376.339 197.21 376.404 197.496C376.476 197.776 376.512 198.554 376.512 199.83V204H372.693V198.746C372.693 197.9 372.625 197.376 372.488 197.174C372.358 196.972 372.01 196.871 371.443 196.871V204H367.332V188.189ZM371.443 190.895V194.41C371.906 194.41 372.228 194.348 372.41 194.225C372.599 194.094 372.693 193.681 372.693 192.984V192.115C372.693 191.614 372.602 191.285 372.42 191.129C372.244 190.973 371.919 190.895 371.443 190.895ZM388.543 197.994V200.66L387.43 201.363L388.816 204H385.174L384.695 203.121C383.471 203.928 382.312 204.332 381.219 204.332C380.073 204.332 379.191 203.951 378.572 203.189C377.954 202.428 377.645 201.51 377.645 200.436C377.645 199.576 377.827 198.902 378.191 198.414C378.556 197.926 379.103 197.529 379.832 197.223C378.79 196.474 378.27 195.462 378.27 194.186C378.27 193.085 378.641 192.2 379.383 191.529C380.125 190.859 381.147 190.523 382.449 190.523C383.621 190.523 384.542 190.852 385.213 191.51C385.89 192.167 386.229 193.004 386.229 194.02C386.229 195.087 385.818 196.035 384.998 196.861L386.395 199.381L388.543 197.994ZM382.459 195.221C382.902 194.641 383.123 194.088 383.123 193.561C383.123 193.333 383.058 193.124 382.928 192.936C382.798 192.747 382.615 192.652 382.381 192.652C382.166 192.652 382.003 192.724 381.893 192.867C381.782 193.01 381.727 193.229 381.727 193.521C381.727 194.133 381.971 194.7 382.459 195.221ZM383.348 201.334L382.068 199.205C381.58 199.648 381.336 200.126 381.336 200.641C381.336 201.012 381.411 201.292 381.561 201.48C381.717 201.663 381.945 201.754 382.244 201.754C382.563 201.754 382.931 201.614 383.348 201.334ZM389.637 188.189H393.738C395.034 188.189 396.014 188.29 396.678 188.492C397.348 188.694 397.889 189.104 398.299 189.723C398.709 190.335 398.914 191.324 398.914 192.691C398.914 193.616 398.768 194.26 398.475 194.625C398.188 194.99 397.618 195.27 396.766 195.465C397.716 195.68 398.361 196.038 398.699 196.539C399.038 197.034 399.207 197.796 399.207 198.824V200.289C399.207 201.357 399.083 202.148 398.836 202.662C398.595 203.176 398.208 203.528 397.674 203.717C397.14 203.906 396.046 204 394.393 204H389.637V188.189ZM393.748 190.895V194.41C393.924 194.404 394.061 194.4 394.158 194.4C394.562 194.4 394.819 194.303 394.93 194.107C395.04 193.906 395.096 193.336 395.096 192.398C395.096 191.904 395.05 191.559 394.959 191.363C394.868 191.161 394.747 191.035 394.598 190.982C394.454 190.93 394.171 190.901 393.748 190.895ZM393.748 196.871V201.295C394.327 201.275 394.695 201.184 394.852 201.021C395.014 200.859 395.096 200.458 395.096 199.82V198.346C395.096 197.669 395.024 197.258 394.881 197.115C394.738 196.972 394.36 196.891 393.748 196.871Z" fill="black"/>
  <!-- 2x5min -->
  <text x="86" y="196" text-anchor="middle" dominant-baseline="middle"
        font-family="Arial, sans-serif" font-size="20" font-weight="bold"
        fill="black">{{DURATION}}</text>
<path d="M54.3672 197.844V200H47.4219V198.195C49.4792 194.831 50.7005 192.75 51.0859 191.953C51.4766 191.151 51.6719 190.526 51.6719 190.078C51.6719 189.734 51.612 189.479 51.4922 189.312C51.3776 189.141 51.2005 189.055 50.9609 189.055C50.7214 189.055 50.5417 189.148 50.4219 189.336C50.3073 189.523 50.25 189.896 50.25 190.453V191.656H47.4219V191.195C47.4219 190.487 47.4583 189.93 47.5312 189.523C47.6042 189.112 47.7839 188.708 48.0703 188.312C48.3568 187.917 48.7292 187.617 49.1875 187.414C49.6458 187.211 50.1953 187.109 50.8359 187.109C52.0911 187.109 53.0391 187.422 53.6797 188.047C54.3255 188.667 54.6484 189.453 54.6484 190.406C54.6484 191.13 54.4661 191.896 54.1016 192.703C53.7422 193.51 52.6771 195.224 50.9062 197.844H54.3672ZM61.8438 189.633L60.5859 194.586L62.1094 200H59.0391C58.737 198.635 58.5078 197.461 58.3516 196.477C58.1432 197.706 57.9167 198.88 57.6719 200H55.0312L56.3906 194.586L55.0312 189.633H57.6719C58.0938 191.747 58.3203 192.948 58.3516 193.234C58.6536 191.469 58.8828 190.268 59.0391 189.633H61.8438Z" fill="black"/>
  <!-- 2x -->
  <text x="220" y="64" text-anchor="middle" dominant-baseline="middle"
        font-family="Arial, sans-serif" font-size="24" font-weight="bold"
        fill="black">{{TITLE}}</text>
<path d="M332.703 199.801H336.648C336.648 200.536 336.658 201.002 336.678 201.197C336.697 201.386 336.775 201.546 336.912 201.676C337.055 201.806 337.247 201.871 337.488 201.871C337.69 201.871 337.856 201.809 337.986 201.686C338.117 201.562 338.188 201.402 338.201 201.207C338.221 201.012 338.23 200.618 338.23 200.025V197.506C338.035 197.929 337.742 198.248 337.352 198.463C336.961 198.671 336.476 198.775 335.896 198.775C335.174 198.775 334.536 198.58 333.982 198.189C333.429 197.799 333.077 197.33 332.928 196.783C332.778 196.236 332.703 195.497 332.703 194.566V193.307C332.703 192.2 332.745 191.376 332.83 190.836C332.921 190.296 333.149 189.798 333.514 189.342C333.878 188.88 334.383 188.521 335.027 188.268C335.672 188.014 336.421 187.887 337.273 187.887C338.328 187.887 339.194 188.033 339.871 188.326C340.548 188.619 341.072 189.042 341.443 189.596C341.814 190.143 342.029 190.719 342.088 191.324C342.146 191.93 342.176 193.102 342.176 194.84V197.037C342.176 198.919 342.15 200.178 342.098 200.816C342.046 201.448 341.818 202.047 341.414 202.613C341.017 203.18 340.477 203.606 339.793 203.893C339.109 204.173 338.318 204.312 337.42 204.312C336.307 204.312 335.395 204.133 334.686 203.775C333.982 203.417 333.475 202.913 333.162 202.262C332.856 201.611 332.703 200.79 332.703 199.801ZM336.648 194.869C336.648 195.533 336.733 195.943 336.902 196.1C337.078 196.256 337.257 196.334 337.439 196.334C337.713 196.334 337.911 196.236 338.035 196.041C338.165 195.839 338.23 195.449 338.23 194.869V192.008C338.23 191.311 338.169 190.855 338.045 190.641C337.928 190.426 337.729 190.318 337.449 190.318C337.28 190.318 337.104 190.403 336.922 190.572C336.74 190.735 336.648 191.181 336.648 191.91V194.869ZM352.85 193.541V198.814C352.85 200.012 352.785 200.885 352.654 201.432C352.524 201.979 352.254 202.49 351.844 202.965C351.434 203.44 350.939 203.782 350.359 203.99C349.78 204.199 349.132 204.303 348.416 204.303C347.472 204.303 346.688 204.195 346.062 203.98C345.438 203.759 344.939 203.417 344.568 202.955C344.197 202.493 343.934 202.008 343.777 201.5C343.621 200.986 343.543 200.172 343.543 199.059V193.541C343.543 192.089 343.667 191.002 343.914 190.279C344.168 189.557 344.666 188.977 345.408 188.541C346.157 188.105 347.062 187.887 348.123 187.887C348.989 187.887 349.764 188.04 350.447 188.346C351.131 188.645 351.642 189.013 351.98 189.449C352.319 189.885 352.547 190.377 352.664 190.924C352.788 191.471 352.85 192.343 352.85 193.541ZM348.904 192.213C348.904 191.373 348.862 190.849 348.777 190.641C348.699 190.426 348.51 190.318 348.211 190.318C347.918 190.318 347.723 190.432 347.625 190.66C347.534 190.882 347.488 191.399 347.488 192.213V199.928C347.488 200.846 347.531 201.399 347.615 201.588C347.706 201.777 347.898 201.871 348.191 201.871C348.484 201.871 348.676 201.76 348.768 201.539C348.859 201.318 348.904 200.82 348.904 200.045V192.213ZM362.322 195.182H358.826V194.479C358.826 193.88 358.79 193.502 358.719 193.346C358.654 193.183 358.484 193.102 358.211 193.102C357.99 193.102 357.824 193.176 357.713 193.326C357.602 193.469 357.547 193.688 357.547 193.98C357.547 194.378 357.573 194.671 357.625 194.859C357.684 195.042 357.85 195.243 358.123 195.465C358.403 195.686 358.973 196.008 359.832 196.432C360.978 196.992 361.73 197.519 362.088 198.014C362.446 198.508 362.625 199.228 362.625 200.172C362.625 201.227 362.488 202.024 362.215 202.564C361.941 203.098 361.482 203.512 360.838 203.805C360.2 204.091 359.428 204.234 358.523 204.234C357.521 204.234 356.661 204.078 355.945 203.766C355.236 203.453 354.747 203.03 354.48 202.496C354.214 201.962 354.08 201.155 354.08 200.074V199.449H357.576V200.27C357.576 200.966 357.618 201.419 357.703 201.627C357.794 201.835 357.97 201.939 358.23 201.939C358.51 201.939 358.706 201.871 358.816 201.734C358.927 201.591 358.982 201.295 358.982 200.846C358.982 200.227 358.911 199.84 358.768 199.684C358.618 199.527 357.853 199.065 356.473 198.297C355.314 197.646 354.607 197.057 354.354 196.529C354.1 195.995 353.973 195.364 353.973 194.635C353.973 193.6 354.109 192.838 354.383 192.35C354.656 191.855 355.118 191.474 355.77 191.207C356.427 190.94 357.189 190.807 358.055 190.807C358.914 190.807 359.643 190.917 360.242 191.139C360.848 191.354 361.31 191.64 361.629 191.998C361.954 192.356 362.15 192.688 362.215 192.994C362.286 193.3 362.322 193.779 362.322 194.43V195.182ZM367.332 188.189H370.242C372.182 188.189 373.494 188.264 374.178 188.414C374.868 188.564 375.428 188.948 375.857 189.566C376.294 190.178 376.512 191.158 376.512 192.506C376.512 193.736 376.359 194.563 376.053 194.986C375.747 195.41 375.145 195.663 374.246 195.748C375.06 195.95 375.607 196.22 375.887 196.559C376.167 196.897 376.339 197.21 376.404 197.496C376.476 197.776 376.512 198.554 376.512 199.83V204H372.693V198.746C372.693 197.9 372.625 197.376 372.488 197.174C372.358 196.972 372.01 196.871 371.443 196.871V204H367.332V188.189ZM371.443 190.895V194.41C371.906 194.41 372.228 194.348 372.41 194.225C372.599 194.094 372.693 193.681 372.693 192.984V192.115C372.693 191.614 372.602 191.285 372.42 191.129C372.244 190.973 371.919 190.895 371.443 190.895ZM388.543 197.994V200.66L387.43 201.363L388.816 204H385.174L384.695 203.121C383.471 203.928 382.312 204.332 381.219 204.332C380.073 204.332 379.191 203.951 378.572 203.189C377.954 202.428 377.645 201.51 377.645 200.436C377.645 199.576 377.827 198.902 378.191 198.414C378.556 197.926 379.103 197.529 379.832 197.223C378.79 196.474 378.27 195.462 378.27 194.186C378.27 193.085 378.641 192.2 379.383 191.529C380.125 190.859 381.147 190.523 382.449 190.523C383.621 190.523 384.542 190.852 385.213 191.51C385.89 192.167 386.229 193.004 386.229 194.02C386.229 195.087 385.818 196.035 384.998 196.861L386.395 199.381L388.543 197.994ZM382.459 195.221C382.902 194.641 383.123 194.088 383.123 193.561C383.123 193.333 383.058 193.124 382.928 192.936C382.798 192.747 382.615 192.652 382.381 192.652C382.166 192.652 382.003 192.724 381.893 192.867C381.782 193.01 381.727 193.229 381.727 193.521C381.727 194.133 381.971 194.7 382.459 195.221ZM383.348 201.334L382.068 199.205C381.58 199.648 381.336 200.126 381.336 200.641C381.336 201.012 381.411 201.292 381.561 201.48C381.717 201.663 381.945 201.754 382.244 201.754C382.563 201.754 382.931 201.614 383.348 201.334ZM389.637 188.189H393.738C395.034 188.189 396.014 188.29 396.678 188.492C397.348 188.694 397.889 189.104 398.299 189.723C398.709 190.335 398.914 191.324 398.914 192.691C398.914 193.616 398.768 194.26 398.475 194.625C398.188 194.99 397.618 195.27 396.766 195.465C397.716 195.68 398.361 196.038 398.699 196.539C399.038 197.034 399.207 197.796 399.207 198.824V200.289C399.207 201.357 399.083 202.148 398.836 202.662C398.595 203.176 398.208 203.528 397.674 203.717C397.14 203.906 396.046 204 394.393 204H389.637V188.189ZM393.748 190.895V194.41C393.924 194.404 394.061 194.4 394.158 194.4C394.562 194.4 394.819 194.303 394.93 194.107C395.04 193.906 395.096 193.336 395.096 192.398C395.096 191.904 395.05 191.559 394.959 191.363C394.868 191.161 394.747 191.035 394.598 190.982C394.454 190.93 394.171 190.901 393.748 190.895ZM393.748 196.871V201.295C394.327 201.275 394.695 201.184 394.852 201.021C395.014 200.859 395.096 200.458 395.096 199.82V198.346C395.096 197.669 395.024 197.258 394.881 197.115C394.738 196.972 394.36 196.891 393.748 196.871Z" fill="black"/>
    <!-- SIDEA -->
    <text x="246" y="280" text-anchor="middle" dominant-baseline="middle"
        font-family="Arial, sans-serif" font-size="16" font-weight="bold"
        fill="white">{{SIDE_LETTER}}</text>
<path d="M213.625 275.18H210.57V274.242C210.57 273.805 210.531 273.526 210.453 273.406C210.375 273.286 210.245 273.227 210.062 273.227C209.865 273.227 209.714 273.307 209.609 273.469C209.51 273.63 209.461 273.875 209.461 274.203C209.461 274.625 209.518 274.943 209.633 275.156C209.742 275.37 210.052 275.628 210.562 275.93C212.026 276.799 212.948 277.513 213.328 278.07C213.708 278.628 213.898 279.526 213.898 280.766C213.898 281.667 213.792 282.331 213.578 282.758C213.37 283.185 212.964 283.544 212.359 283.836C211.755 284.122 211.052 284.266 210.25 284.266C209.37 284.266 208.617 284.099 207.992 283.766C207.372 283.432 206.966 283.008 206.773 282.492C206.581 281.977 206.484 281.245 206.484 280.297V279.469H209.539V281.008C209.539 281.482 209.581 281.786 209.664 281.922C209.753 282.057 209.906 282.125 210.125 282.125C210.344 282.125 210.505 282.039 210.609 281.867C210.719 281.695 210.773 281.44 210.773 281.102C210.773 280.357 210.672 279.87 210.469 279.641C210.26 279.411 209.747 279.029 208.93 278.492C208.112 277.951 207.57 277.557 207.305 277.312C207.039 277.068 206.818 276.729 206.641 276.297C206.469 275.865 206.383 275.312 206.383 274.641C206.383 273.672 206.505 272.964 206.75 272.516C207 272.068 207.401 271.719 207.953 271.469C208.505 271.214 209.172 271.086 209.953 271.086C210.807 271.086 211.534 271.224 212.133 271.5C212.737 271.776 213.135 272.125 213.328 272.547C213.526 272.964 213.625 273.674 213.625 274.68V275.18ZM218.227 271.352V284H214.938V271.352H218.227ZM219.547 271.352H222.008C223.596 271.352 224.669 271.424 225.227 271.57C225.789 271.716 226.216 271.956 226.508 272.289C226.799 272.622 226.982 272.995 227.055 273.406C227.128 273.812 227.164 274.615 227.164 275.812V280.242C227.164 281.378 227.109 282.138 227 282.523C226.896 282.904 226.711 283.203 226.445 283.422C226.18 283.635 225.852 283.786 225.461 283.875C225.07 283.958 224.482 284 223.695 284H219.547V271.352ZM222.836 273.516V281.836C223.31 281.836 223.602 281.742 223.711 281.555C223.82 281.362 223.875 280.844 223.875 280V275.086C223.875 274.513 223.857 274.146 223.82 273.984C223.784 273.823 223.701 273.706 223.57 273.633C223.44 273.555 223.195 273.516 222.836 273.516ZM228.391 271.352H233.875V273.883H231.68V276.281H233.734V278.688H231.68V281.469H234.094V284H228.391V271.352Z" fill="white"/>
<defs>
<linearGradient id="paint0_linear_154_179" x1="197.456" y1="139.492" x2="212.648" y2="142.787" gradientUnits="userSpaceOnUse">
<stop stop-color="#07080B"/>
<stop offset="1" stop-color="#35271C"/>
</linearGradient>
<linearGradient id="paint1_linear_154_179" x1="217.158" y1="149.045" x2="216.862" y2="100.041" gradientUnits="userSpaceOnUse">
<stop stop-color="#353D40"/>
<stop offset="1" stop-color="#636161"/>
</linearGradient>
</defs>
</svg>
