<svg width="447" height="304" viewBox="0 0 447 304" fill="none" xmlns="http://www.w3.org/2000/svg">
<style>
    .reel-left {
      transform-origin: 128px 140px;
    }
    .reel-right {
      transform-origin: 318px 140px;
    }
  </style>
<path d="M22.9966 0.354089C24.3707 0.154401 25.889 0.193771 27.2816 0.18674L295.715 0.202211L381.958 0.20573L408.906 0.200809C413.828 0.200575 418.956 -0.093806 423.85 0.380803C428.024 0.786272 431.931 2.61252 434.922 5.55346C437.973 8.61276 439.703 12.4525 440.315 16.7001C441.217 22.9591 440.709 29.7742 440.702 36.1047L440.697 70.7749L440.706 191.503C442.877 192.909 444.606 194.594 446.397 196.453L446.355 248.133L446.418 259.423C446.432 261.605 446.652 264.033 446.209 266.18C445.567 269.283 443.162 271.022 440.666 272.623C440.732 279.771 441.592 287.409 437.704 293.798C434.545 298.99 429.808 301.692 424.028 303.07C422.123 303.469 420.191 303.518 418.253 303.537L156.26 303.523H66.7002L38.7234 303.52C34.0891 303.52 29.1801 303.846 24.5704 303.422C20.1632 303.016 15.6993 301.151 12.5472 298.01C5.56595 291.049 6.50101 281.925 6.4689 272.873C4.0235 271.469 2.16929 269.967 0.369385 267.797L0.376158 195.663C2.17738 193.547 4.4293 191.911 6.42638 189.987L6.40881 73.6853L6.40824 36.9698C6.40803 30.6042 5.97629 23.8666 6.58702 17.5361C6.91562 14.129 7.83296 10.9371 9.83851 8.13182C13.0734 3.60745 17.5731 1.21987 22.9966 0.354089Z" fill="#0B1316"/>
<path d="M26.8814 4.14754C27.5452 4.02839 28.217 4.01741 28.8897 3.99638C37.0903 3.73821 45.3853 3.98072 53.5931 3.98096L102.089 3.98236L248.421 3.97769L360.934 3.98002L397.192 3.97769C404.531 3.97278 411.926 3.75667 419.253 4.15362C423.095 4.36155 428.724 4.76551 431.599 7.60561C432.571 8.56516 433.942 10.8602 434.061 12.2251C434.279 14.7458 434.014 17.6618 433.963 20.2113C433.872 24.8854 433.836 29.5605 433.853 34.2358L433.843 88.3098L433.858 201.478C433.855 225.073 433.506 248.722 433.85 272.31C433.9 275.725 434.204 279.137 434.286 282.552C434.371 286.134 433.872 288.893 431.214 291.55C429.422 293.314 427.165 294.536 424.705 295.078C419.37 296.26 410.117 295.743 404.453 295.729L375.532 295.757C375.335 287.087 372.364 278.408 370.557 269.957C369.388 264.256 367.865 258.574 366.572 252.894C365.072 246.308 363.575 238.332 361.215 232.066C360.093 229.089 357.986 227.117 355.085 225.851C352.698 224.806 350.165 224.507 347.58 224.421C334.977 223.996 322.249 224.379 309.628 224.381L237.9 224.365L153.492 224.356C138.099 224.351 122.632 224.059 107.247 224.426C103.308 224.519 94.3112 224.339 90.9966 225.72C88.6794 226.683 87.1735 227.895 86.0359 230.122C83.54 235.005 81.5326 247.135 80.1447 253.193C77.7739 263.541 75.1482 273.861 73.0436 284.267C72.3102 287.893 72.4315 291.996 70.964 295.407C70.9235 295.503 70.8811 295.594 70.8396 295.687C62.8553 296.078 54.7129 295.741 46.7084 295.746C41.3674 295.783 36.0262 295.786 30.6853 295.753C27.4953 295.757 23.6342 296.218 20.5443 295.339C16.0757 294.068 14.7753 289.856 13.1133 289.361L13.322 290.608L13.0437 290.526L13.323 290.61C13.1311 290.529 13.0685 290.517 12.8916 290.358C10.5606 288.262 10.425 284.153 10.3919 281.267C10.1733 262.235 10.3926 243.18 10.3922 224.148L10.3865 109.392L10.3825 47.7086L10.376 27.8501C10.3758 24.2593 10.1942 20.5578 10.4676 16.981C10.6576 14.4995 12.2088 9.82003 14.0001 8.08106C17.3501 4.82906 22.4259 4.1174 26.8814 4.14754Z" fill="#262829"/>
<path d="M48.962 21.669C49.236 21.6522 49.5104 21.6383 49.7847 21.628C58.6562 21.3594 67.6461 21.6721 76.5311 21.6814L128.379 21.6606L295.359 21.654L368.605 21.665L388.37 21.6348C391.647 21.6306 395.462 21.2556 398.671 21.8579C401.376 22.3656 404.929 23.7168 406.225 26.3047C406.858 27.5673 407.221 28.9708 408.053 30.13C409.307 31.8791 411.262 33.1635 412.802 34.6621C415.987 37.7668 416.031 42.2314 416.073 46.4005L416.071 154.915L416.064 188.836C416.064 194.449 416.57 200.534 415.891 206.088C415.466 209.569 413.891 213.579 411.381 216.059C407.465 219.928 402.466 219.464 397.431 219.429L154.85 219.141L77.4892 219.415L55.9396 219.429C51.9088 219.438 47.6617 219.706 43.6527 219.3C39.6536 218.897 35.5928 216.089 32.3851 213.844C30.7361 212.691 29.9844 210.638 29.7322 208.711C29.4264 206.374 29.6052 203.852 29.608 201.495L29.6125 189.007L29.6153 145.917L29.6158 76.5911L29.6066 54.205C29.6061 50.0361 29.4381 45.7761 29.6861 41.6179C29.849 38.8881 30.1567 36.3435 31.8615 34.1155C33.4508 32.0385 35.7742 30.6154 37.7629 28.9539C41.5051 25.8271 43.738 22.3424 48.962 21.669Z" fill="#0B1316"/>
<path d="M50.2288 28.0327C50.8256 28.0081 51.4226 27.9929 52.0199 27.987L283.642 27.9924L359.136 27.9978L382.624 27.9772C386.978 27.9718 391.494 27.7314 395.826 28.1325C398.715 28.4001 400.606 29.8264 402.593 31.8146C404.857 34.0773 410.073 38.6419 410.678 41.6313C411.395 45.1651 410.919 51.8113 410.914 55.6683L410.9 85.7041L410.914 204.937C410.91 207.826 410.771 210.539 408.545 212.657C405.349 215.698 401.342 215.878 397.213 215.829L161.692 215.825L84.1543 215.827L59.1185 215.843C54.6085 215.848 50.046 215.998 45.5423 215.794C44.0433 215.726 42.8038 215.396 41.4559 214.745C39.2254 213.672 37.2222 212.09 36.4941 209.611C35.7483 207.076 36.2207 199.293 36.2218 196.358L36.235 167.494L36.2568 85.4923C36.2596 72.0626 35.9812 58.583 36.2436 45.1606C36.2788 43.3573 36.3711 41.4584 37.2768 39.8524C38.1859 38.2403 45.618 30.8163 47.3386 29.4701C48.2553 28.7527 49.1063 28.3272 50.2288 28.0327Z" fill="#FFEEDC"/>
<path d="M36.011 112.781C36.1344 112.714 36.2579 112.671 36.3814 112.653L70.2443 112.633L86.2214 112.648C88.7044 112.657 91.1988 111.936 93.6798 112.58C93.8113 112.615 93.9048 112.453 94 113.773C94.0004 115.315 93.9783 115.876 93.9163 117.133C92.4488 117.508 90.9765 117.16 89.5086 117.157L80.8658 117.146L48.572 118.011C47.3891 118.188 36.1804 118.836 36.0346 117.952C36.0086 117.795 35.9941 117.397 35.9739 117.119C35.9598 115.374 35.9755 114.42 36.011 112.781Z" fill="#FF5843"/>
<path d="M36.0045 138.563C36.1087 138.495 36.2131 138.452 36.3174 138.435L64.9285 138.415L78.4278 138.429C80.5257 138.439 82.6332 137.718 84.7295 138.361C84.8405 138.396 84.9196 138.235 85 139.554C85.0003 141.096 84.9816 141.658 84.9293 142.914C83.6894 143.289 82.4454 142.941 81.2052 142.938L73.9028 142.928L46.6174 143.792C45.618 143.969 36.1476 144.618 36.0244 143.733C36.0024 143.576 35.9902 143.178 35.9731 142.901C35.9612 141.155 35.9744 140.201 36.0045 138.563Z" fill="#4DC1C5"/>
<path d="M36.011 162.938C36.1344 162.87 36.2579 162.827 36.3814 162.81L70.2443 162.79L86.2214 162.804C88.7044 162.814 91.1988 162.093 93.6798 162.736C93.8113 162.771 93.9048 162.61 94 163.929C94.0004 165.471 93.9783 166.033 93.9163 167.289C92.4488 167.664 90.9765 167.316 89.5086 167.313L80.8658 167.303L48.572 168.167C47.3891 168.344 36.1804 168.993 36.0346 168.108C36.0086 167.951 35.9941 167.553 35.9739 167.276C35.9598 165.53 35.9755 164.576 36.011 162.938Z" fill="#FE9900"/>
<path d="M352.043 112.781C352.17 112.714 352.296 112.671 352.423 112.653L387.106 112.633L403.47 112.648C406.014 112.657 408.568 111.936 411.11 112.58C411.244 112.615 411.34 112.453 411.437 113.773C411.438 115.315 411.415 115.876 411.352 117.133C409.849 117.508 408.341 117.16 406.837 117.157L397.985 117.146L364.909 118.011C363.697 118.188 352.217 118.836 352.067 117.952C352.041 117.795 352.026 117.397 352.005 117.119C351.991 115.374 352.007 114.42 352.043 112.781Z" fill="#FF5843"/>
<path d="M362.036 138.563C362.141 138.495 362.246 138.452 362.352 138.435L391.2 138.415L404.811 138.429C406.926 138.439 409.051 137.718 411.165 138.361C411.277 138.396 411.356 138.235 411.437 139.554C411.438 141.096 411.419 141.658 411.366 142.914C410.116 143.289 408.862 142.941 407.611 142.938L400.248 142.928L372.737 143.792C371.729 143.969 362.18 144.618 362.056 143.733C362.034 143.576 362.022 143.178 362.004 142.901C361.992 141.155 362.006 140.201 362.036 138.563Z" fill="#4DC1C5"/>
<path d="M352.043 162.938C352.17 162.87 352.296 162.827 352.423 162.81L387.106 162.79L403.47 162.804C406.014 162.814 408.568 162.093 411.11 162.736C411.244 162.771 411.34 162.61 411.437 163.929C411.438 165.471 411.415 166.033 411.352 167.289C409.849 167.664 408.341 167.316 406.837 167.313L397.985 167.303L364.909 168.167C363.697 168.344 352.217 168.993 352.067 168.108C352.041 167.951 352.026 167.553 352.005 167.276C351.991 165.53 352.007 164.576 352.043 162.938Z" fill="#FE9900"/>
<path d="M122.871 96.9468C126.587 96.6446 130.437 97.0421 134.172 97.0691L155.951 97.0855L231.749 97.0841L293.273 97.0874C300.379 97.0562 307.481 96.8136 314.594 96.8181C317.821 96.8202 321.126 96.707 324.339 97.0489C331.502 97.8111 338.655 100.648 344.505 104.827C354.353 111.864 360.388 122.368 362.308 134.226C364.047 145.412 361.23 156.827 354.487 165.919C347.277 175.824 337.073 181.685 325.082 183.549C319.645 183.799 314.16 183.661 308.716 183.661L280.924 183.663L195.813 183.659L146.066 183.663L131.592 183.659C128.256 183.656 124.823 183.802 121.512 183.352C113.811 182.32 106.53 179.231 100.439 174.408C91.5181 167.342 85.7949 156.999 84.5438 145.685C83.1462 133.701 86.6241 121.657 94.1951 112.263C101.374 103.394 111.602 98.1627 122.871 96.9468Z" fill="#262829"/>
<path d="M169.831 168.605C169.676 167.855 169.535 167.102 169.455 166.34C169.16 163.547 169.336 160.601 169.334 157.788L169.331 141.831L169.327 125.288C169.328 122.275 169.141 119.09 169.476 116.099C169.641 114.618 170.034 113.064 171.021 111.905C172.541 110.12 174.506 109.452 176.774 109.358C183.129 109.093 189.599 109.362 195.967 109.365L235.359 109.359L258.986 109.363C263.301 109.333 268.026 108.884 272.303 109.402C273.927 109.598 274.928 110.556 276.072 111.618C276.105 113.58 275.992 115.68 276.395 117.603C276.4 116.646 276.33 115.834 276.838 114.988C277.178 114.764 277.223 114.617 277.645 114.693C277.989 114.755 278.158 114.831 278.444 115.012C279.084 126.244 278.816 137.515 278.894 148.76C278.929 154.045 279.501 161.918 279.011 166.908C278.913 167.913 278.538 168.888 278.024 169.753C276.89 171.368 275.345 172.472 273.377 172.802C269.552 173.442 265.314 173.107 261.44 173.093L242.608 173.069H198.217C191.138 173.067 184.04 173.196 176.964 173.069C175.77 173.046 173.807 173.076 172.785 172.462C172.543 172.317 172.569 172.326 172.551 172.04C172.515 171.469 172.667 170.925 172.791 170.374C171.933 169.558 170.889 169.092 169.831 168.605Z" fill="#0B1316"/>
<path d="M276.065 166.198C276.428 166.158 276.677 166.026 276.988 166.27C277.802 166.903 277.945 168.523 278.013 169.484C278.02 169.573 278.017 169.662 278.022 169.751C276.888 171.366 275.343 172.469 273.374 172.8C269.549 173.44 265.312 173.105 261.438 173.091L242.606 173.067H198.214C191.136 173.065 184.038 173.194 176.961 173.067C175.767 173.044 173.805 173.074 172.783 172.46C172.541 172.315 172.566 172.324 172.549 172.038C172.513 171.466 172.665 170.923 172.789 170.372C177.5 171.321 182.705 170.911 187.507 170.909L208.793 170.901L248.385 170.906C255.309 170.904 262.309 171.134 269.224 170.848C270.595 170.791 271.956 170.667 273.217 170.081C274.926 169.284 275.502 167.885 276.065 166.198Z" fill="#5E5E5E"/>
<path d="M276.395 117.599C276.4 116.641 276.33 115.83 276.838 114.983C277.178 114.76 277.223 114.613 277.644 114.689C277.989 114.75 278.158 114.826 278.444 115.007C279.084 126.239 278.816 137.511 278.894 148.755C278.929 154.041 279.501 161.913 279.011 166.903C278.912 167.909 278.537 168.884 278.024 169.748C278.019 169.659 278.022 169.57 278.015 169.481C277.947 168.52 277.804 166.901 276.991 166.268C276.679 166.024 276.43 166.155 276.067 166.195C276.96 161.503 276.435 154.647 276.435 149.7L276.395 117.599Z" fill="#3B4244"/>
<path d="M202.518 114.515C204.211 114.435 205.636 114.164 207.101 115.174L207.179 114.903C208.476 116.845 209.342 119.704 210.008 121.934C213.169 132.522 212.945 142.835 210.816 153.57C209.807 158.658 208.165 163.484 205.726 168.066C204.846 168.106 203.96 168.091 203.078 168.098C196.157 167.754 189.058 168.089 182.119 168.106L175.128 168.082C176.177 165.933 177.259 163.786 178.212 161.592C183.72 148.918 184.573 133.452 179.5 120.515C178.584 118.902 178.584 116.373 177.791 114.561C186.033 114.608 194.276 114.593 202.518 114.515Z" fill="#463125"/>
<path d="M243.884 115.094C242.191 115.013 240.766 114.743 239.301 115.752L239.223 115.482C237.926 117.424 237.06 120.282 236.394 122.513C233.232 133.1 233.457 143.413 235.586 154.149C236.595 159.236 238.237 164.062 240.676 168.644C241.556 168.684 242.442 168.67 243.324 168.677C250.244 168.333 257.344 168.668 264.283 168.684L271.273 168.661C270.225 166.511 269.143 164.365 268.19 162.171C262.682 149.497 261.828 134.031 266.902 121.094C267.818 119.48 267.818 116.952 268.61 115.139C260.368 115.187 252.126 115.172 243.884 115.094Z" fill="#463125"/>
<path d="M202.513 114.517C204.206 114.437 205.631 114.166 207.096 115.176L207.174 114.906C208.471 116.847 209.337 119.706 210.003 121.937C213.165 132.524 212.94 142.837 210.811 153.573C209.802 158.66 208.16 163.486 205.722 168.068C204.841 168.108 203.955 168.094 203.074 168.101C203.788 166.266 203.63 164.403 204.127 162.532C204.742 160.217 205.756 158.002 206.382 155.68C208.497 147.831 209.421 138.767 208.265 130.722C207.905 128.209 207.179 121.987 205.135 120.446C204.163 118.518 203.357 116.504 202.513 114.517Z" fill="url(#paint0_linear_154_179)"/>
<path d="M177.789 114.563C186.031 114.61 194.274 114.595 202.515 114.517C203.359 116.504 204.166 118.518 205.138 120.446C198.426 120.776 191.702 120.531 184.986 120.71C183.141 120.548 181.349 120.473 179.497 120.517C178.582 118.904 178.581 116.375 177.789 114.563Z" fill="#262829"/>
<path d="M269.349 115.046C259.901 115.093 250.453 115.078 241.006 115C240.039 116.987 239.114 119.001 238 120.929C245.694 121.259 253.401 121.014 261.099 121.192C263.214 121.031 265.268 120.955 267.39 121C268.44 119.387 268.44 116.858 269.349 115.046Z" fill="#262829"/>
<path d="M207.177 114.908C207.222 114.892 207.267 114.876 207.311 114.859C207.591 114.749 207.716 114.683 207.99 114.614C210.459 114.002 219.859 114.428 223.026 114.427C228.454 114.424 233.997 114.15 239.408 114.385C239.807 114.402 240.034 114.507 240.376 114.694C240.119 116.217 239.23 117.529 238.595 118.92C237.7 120.88 236.901 122.92 236.458 125.034C232.223 138.197 234.618 155.904 240.822 168.07C236.465 168.225 232.066 168.101 227.701 168.103L205.724 168.07C208.162 163.488 209.805 158.662 210.814 153.575C212.942 142.839 213.167 132.526 210.006 121.939C209.34 119.708 208.473 116.849 207.177 114.908Z" fill="#DAD6CA"/>
<path d="M273.564 117.256C273.747 124.656 273.637 132.078 273.637 139.482C273.634 147.473 273.728 155.479 273.595 163.469C272.038 161.14 271.021 157.425 270.243 154.748C266.652 142.392 267.278 128.673 273.564 117.256Z" fill="#DAD6CA"/>
<path d="M172.861 117.612L172.849 117.334C172.828 116.716 172.75 116.244 173.119 115.71C174.601 116.397 176.203 121.325 176.762 122.855C181.353 135.476 180.724 149.407 175.012 161.562C174.347 162.975 173.629 164.386 172.865 165.748C172.859 164.21 172.824 162.668 172.849 161.131C172.7 146.66 172.536 132.078 172.861 117.612Z" fill="#5E5E5E"/>
<path d="M172.863 117.612L172.851 117.334C172.83 116.716 172.753 116.244 173.122 115.71C174.603 116.397 176.205 121.325 176.764 122.855C181.356 135.476 180.726 149.407 175.015 161.562C174.35 162.975 173.631 164.386 172.868 165.748C172.861 164.21 172.826 162.668 172.851 161.131C173.126 160.559 173.541 160.05 173.877 159.511C178.872 151.474 179.815 138.495 177.537 129.48C176.99 127.312 174.601 118.646 172.863 117.612Z" fill="#92938F"/>
<path d="M124.767 112.38C138.233 110.641 151.031 118.727 155.242 131.635C159.453 144.542 153.886 158.621 141.985 165.157C130.085 171.692 115.218 168.839 106.584 158.36C100.047 150.426 98.3363 139.567 102.117 130.008C105.897 120.448 114.572 113.697 124.767 112.38Z" fill="#F6F3EA"/>
<path d="M126.391 116.181C126.509 116.166 126.627 116.15 126.745 116.136C131.081 115.637 136.631 116.485 140.118 119.136C139.369 119.307 138.542 119.456 137.836 119.752C136.869 120.158 136.053 121.234 135.713 122.181C135.334 123.237 135.44 124.39 135.96 125.382C136.83 127.041 138.151 127.55 139.88 128.064C140.497 127.901 141.149 127.749 141.727 127.48C143.171 126.806 143.944 125.511 144.402 124.07C144.559 123.578 144.671 123.192 144.966 122.756C145.55 122.937 145.777 123.224 146.176 123.673C148.668 126.479 152.972 133.313 152.758 136.969C152.166 137.611 148.865 136.508 147.285 137.11C146.44 137.432 145.881 138.052 145.58 138.878C145.127 140.12 145.066 142.03 145.708 143.225C147.162 145.927 150.28 144.111 152.423 144.827C152.923 145.436 153.065 145.819 152.975 146.608C152.477 150.976 148.374 156.496 144.928 159.193C144.404 158.023 143.818 156.659 142.76 155.847C141.766 155.083 140.537 154.699 139.275 154.868C138.032 155.034 136.861 155.684 136.165 156.714C135.571 157.592 135.383 158.673 135.646 159.693C136.143 161.661 137.566 162.423 139.228 163.37C135.793 165.243 132.306 165.886 128.408 166C125.077 166.012 121.342 165.002 118.435 163.428C119.397 162.629 120.456 161.724 121.05 160.616C121.561 159.665 121.784 158.527 121.432 157.487C121.094 156.484 120.297 155.707 119.315 155.289C118.152 154.793 116.869 154.843 115.712 155.323C113.798 156.117 112.408 157.796 111.674 159.651C110.991 159.121 110.343 158.55 109.733 157.942C105.844 154.049 103.266 148.944 103.318 143.459C104.477 144.163 105.566 144.772 106.839 145.266C107.27 145.144 107.697 145.01 108.12 144.867C109.387 144.428 110.451 143.552 110.994 142.334C111.419 141.375 111.425 140.289 111.009 139.327C110.567 138.312 109.715 137.521 108.655 137.14C106.563 136.383 104.847 137.274 103 138.157C103.466 133.785 105.402 129.73 108.038 126.2C108.96 124.966 110.555 122.576 112.234 122.424C112.342 122.414 112.472 122.359 112.559 122.423C112.745 122.559 113.381 126.015 114.85 127.16C115.752 127.862 116.733 127.966 117.844 127.781C119.08 127.574 120.327 127.099 121.019 126.019C121.602 125.109 121.67 123.972 121.433 122.944C120.968 120.93 119.845 119.888 118.133 118.816C120.802 117.198 123.298 116.59 126.391 116.181Z" fill="#111111" class="reel-left" />
<path d="M296.957 158.756C296.003 157.842 295.136 156.75 294.393 155.659C290.355 149.728 289.183 142.196 290.547 135.206C292.005 127.786 296.371 121.257 302.671 117.075C307.417 113.917 314.641 111.358 320.385 112.52C328.218 113.283 335.158 116.466 340.19 122.625C344.917 128.414 347.172 136.246 346.408 143.674C345.613 150.931 341.985 157.582 336.313 162.178C330.346 167.065 322.64 169.303 314.983 168.377C308.252 167.583 301.23 164.093 296.957 158.756Z" fill="#F6F3EA"/>
<path d="M300.637 121.233C301.061 121.298 301.354 121.333 301.741 121.526C299.622 123.84 297.679 126.052 296.022 128.733C296.076 128.315 296.106 128.155 295.97 127.744C295.619 128.211 295.398 128.719 294.822 128.872C296.104 125.949 298.298 123.368 300.637 121.233Z" fill="#F9F6F6"/>
<path d="M125.241 100.453C127.525 100.122 130.102 100.316 132.417 100.323L145.003 100.364L188.813 100.351L275.988 100.352L304.963 100.337C310.398 100.335 315.869 100.201 321.299 100.397C324.51 100.513 328.019 101.048 331.042 102.154C334.359 103.367 344.207 107.779 345.648 110.874C345.47 111.645 344.964 111.833 344.35 112.309L343.987 112.259C343.809 111.934 343.607 111.494 343.361 111.211C342.859 110.627 341.741 110.103 341.069 109.693C336.548 106.927 331.848 104.678 326.561 103.885C322.056 103.209 317.308 103.541 312.763 103.578L294.967 103.609L223.586 103.585L151.466 103.598C146.37 103.616 141.273 103.598 136.177 103.546C131.036 103.478 125.718 103.083 120.64 104.015C114.44 105.202 108.688 108.074 104.013 112.315C96.7012 118.833 91.5984 127.303 91.1046 137.253C90.7783 143.824 92.0461 149.72 94.6781 155.731C95.1265 156.755 95.5976 158.177 96.3593 159C96.7357 159.408 96.5756 159.15 96.7882 159.72L96.5233 159.799C93.9609 157.612 93.1256 150.116 91.293 149.075C90.9084 149.411 90.4901 149.683 90.0679 149.969C89.7541 151.618 91.5194 153.55 91.815 155.204C92.7851 160.636 98.0503 165.232 101.53 169.17L101.363 169.263C101.207 169.144 101.053 169.022 100.901 168.898C94.0938 163.284 89.584 153.58 88.6898 144.91C87.5707 134.059 89.9262 123.241 96.9637 114.711C104.445 105.643 113.771 101.593 125.241 100.453Z" fill="url(#paint1_linear_154_179)"/>
<path d="M14.4724 13.8563C15.6974 11.7376 16.7245 10.3386 18.851 9.06616C22.7899 6.70929 26.2565 6.86444 30.569 7.86569C34.2846 9.86655 36.2962 12.3034 37.8021 16.2305C38.2715 16.4694 38.3181 16.5333 38.4869 17.0635C39.1992 19.2987 38.7435 22.2992 37.6078 24.316C36.1059 26.9827 33.3456 29.2526 30.3585 29.9724C27.1525 30.7447 22.9464 30.1672 20.1396 28.3885C19.8993 28.2364 19.7165 28.0616 19.5149 27.8628L19.5745 27.455C17.5485 25.7068 15.9482 23.6208 14.2971 21.5307C14.2666 21.2433 14.2413 20.9544 14.2063 20.6673C13.9085 18.2262 14.2399 16.2641 14.4724 13.8563Z" fill="#0B1316"/>
<path d="M37.802 16.2354C38.2715 16.4742 38.3181 16.5382 38.4868 17.0683C39.1991 19.3036 38.7435 22.304 37.6077 24.3208C36.1058 26.9875 33.3456 29.2575 30.3585 29.9772C27.1525 30.7495 22.9464 30.172 20.1395 28.3933C19.8993 28.2412 19.7165 28.0664 19.5149 27.8676L19.5744 27.4598C21.8324 28.6216 24.1365 29.3838 26.7151 29.2795C29.9727 29.1541 33.0332 27.6869 35.1709 25.2257C37.4638 22.5618 38.1191 19.6432 37.802 16.2354Z" fill="#3B4244"/>
<path d="M24.9524 11.1096C27.1349 10.9059 29.316 11.1203 31.037 12.6171C32.5571 13.9396 33.2603 15.8791 33.3212 17.8593C33.3774 19.6947 32.8801 21.5697 31.5803 22.9134C30.3036 24.2329 28.8624 24.6269 27.0814 24.7049C25.168 24.4303 23.1231 24.1167 21.4372 23.1178C20.0202 22.2782 18.962 20.9845 18.5785 19.3671C18.2005 17.7731 18.5518 16.1097 19.4115 14.7311C20.7268 12.6224 22.6321 11.6695 24.9524 11.1096Z" fill="#3B4244"/>
<path d="M21.4177 17.7767C21.4151 16.6531 21.4615 15.6151 22.1095 14.6574C23.1464 13.1256 24.8984 12.8157 26.5906 12.5474C26.8081 12.6346 27.0263 12.7203 27.241 12.8148C28.5457 13.3876 29.4267 13.8374 29.9543 15.2066C30.4256 17.1381 30.9441 18.9031 29.7509 20.7121C29.0759 21.7356 27.9835 22.3124 26.7902 22.487C25.3524 22.6998 23.8894 22.322 22.7339 21.4398C22.0486 20.9061 21.4418 20.0155 21.3429 19.1347C21.2878 18.6425 21.3401 18.2593 21.4177 17.7767Z" fill="#0B1316"/>
<path d="M21.42 17.7792C21.4174 16.6556 21.4638 15.6175 22.1119 14.6599C23.1488 13.128 24.9007 12.8182 26.5929 12.5498C26.8104 12.637 27.0286 12.7228 27.2433 12.8172C28.5481 13.39 29.4291 13.8398 29.9567 15.209C29.562 15.0225 29.168 14.8394 28.7789 14.6411C27.5196 13.9996 25.7845 13.5672 24.3884 13.995C23.2772 14.3353 22.522 15.2435 22.0442 16.2621C21.8114 16.758 21.6115 17.2661 21.42 17.7792Z" fill="#262829"/>
<path d="M28.6943 271.535C30.4277 271.181 32.3034 271.819 33.7402 272.812C35.2125 273.832 35.891 274.741 36.2993 276.457C37.2155 278.395 37.7815 280.144 37.7048 282.328C37.587 285.677 36.3082 289.486 33.7652 291.743C31.3123 293.918 27.6879 294.677 24.4699 294.48C21.4043 294.29 18.8074 293.058 16.7941 290.716C13.7379 287.163 13.9533 283.233 14.2472 278.866C15.6349 276.944 16.676 275.001 18.6112 273.515C21.507 271.296 25.1998 271.008 28.6943 271.535Z" fill="#0B1316"/>
<path d="M25.6362 275.503C27.2663 275.292 28.9566 275.498 30.4339 276.246C31.7721 276.914 32.7818 278.095 33.2318 279.522C33.8989 281.646 33.5609 284.358 32.4474 286.277C31.1939 288.436 29.3846 289.394 27.0802 290.055C25.2746 290.151 23.7544 289.884 22.1996 288.916C20.4682 287.847 19.2652 286.101 18.8841 284.104C18.5389 282.215 18.9781 280.268 20.1 278.711C21.4503 276.822 23.3998 275.885 25.6362 275.503Z" fill="#3B4244"/>
<path d="M25.6382 277.35C25.9715 277.331 25.9752 277.324 26.3622 277.343C27.6993 277.409 29.0995 277.894 29.9995 278.92C31.3973 280.512 31.2852 282.424 31.1767 284.388C29.7114 286.446 28.4315 287.51 26.0055 288.356C25.4057 288.387 24.764 288.445 24.1689 288.352C22.2416 288.047 21.1398 286.238 20.1423 284.756C20.0819 283.184 20.1545 281.81 20.9591 280.416C22.015 278.585 23.7074 277.915 25.6382 277.35Z" fill="#0B1316"/>
<path d="M418.97 271.399C425.357 270.197 431.505 274.411 432.688 280.8C433.869 287.189 429.639 293.325 423.248 294.49C416.88 295.65 410.774 291.441 409.595 285.077C408.416 278.714 412.609 272.594 418.97 271.399Z" fill="#0B1316"/>
<path d="M414.517 286.463C413.526 284.93 413.141 283.043 413.533 281.234C413.976 279.199 415.387 277.575 417.144 276.523C419.041 275.367 421.33 275.049 423.468 275.646C425.219 276.12 426.883 277.13 427.806 278.733C428.777 280.416 428.854 282.748 428.308 284.585C427.734 286.514 426.198 288.174 424.41 289.062C422.849 289.838 420.958 289.983 419.324 289.352C418.18 288.912 417.114 288.183 416.505 287.105C416.336 286.999 416.134 286.934 415.952 286.859C415.919 287.248 415.848 287.538 415.708 287.904C415.138 287.609 414.852 286.988 414.517 286.463Z" fill="#3B4244"/>
<path d="M417.227 279.218C418.309 278.107 419.484 277.263 421.101 277.273C422.383 277.28 423.571 277.896 424.41 278.85C425.446 280.029 425.866 281.648 425.69 283.198C425.549 284.447 425.006 285.523 424.007 286.298C422.692 287.323 421.211 287.205 419.636 287.212C418.391 286.601 417.405 285.86 416.788 284.569C415.919 282.741 416.556 280.966 417.227 279.218Z" fill="#0B1316"/>
<path d="M417.224 279.22C416.554 280.969 415.916 282.743 416.786 284.571C417.402 285.862 418.389 286.603 419.634 287.215C418.565 287.391 417.524 286.601 416.498 286.317L416.507 287.102C416.338 286.997 416.137 286.931 415.954 286.856C415.921 287.245 415.851 287.536 415.71 287.901C415.141 287.606 414.855 286.985 414.52 286.46C415.323 285.002 414.726 283.317 415.164 281.695C415.457 280.603 416.303 279.804 417.224 279.22Z" fill="#262829"/>
<path d="M420.149 6.86172C425.847 6.22141 431.092 10.0248 432.257 15.6379C433.42 21.2507 430.117 26.8265 424.637 28.5039C419.155 30.1811 413.298 27.4077 411.121 22.1045C408.946 16.8013 411.166 10.7134 416.245 8.05633C417.461 7.42024 418.785 7.015 420.149 6.86172Z" fill="#0B1316"/>
<path d="M414.299 17.6698C414.601 15.6009 415.309 13.8258 417.053 12.5468C418.68 11.3691 420.721 10.9202 422.692 11.3081C424.6 11.6726 426.564 12.7324 427.614 14.4136C428.467 15.7781 428.655 17.3698 428.221 18.9122C427.682 20.8392 426.135 22.8063 424.377 23.7668C422.912 24.5665 421.316 24.6492 419.694 24.4366C417.923 24.0262 416.055 22.2785 415.058 20.8071C414.414 19.8581 414.048 18.8126 414.299 17.6698Z" fill="#0B1316"/>
<path d="M414.297 17.6698C414.599 15.6009 415.307 13.8258 417.051 12.5468C418.677 11.3691 420.719 10.9202 422.69 11.3081C424.598 11.6726 426.562 12.7324 427.612 14.4136C428.465 15.7781 428.652 17.3698 428.219 18.9122C427.68 20.8392 426.133 22.8063 424.375 23.7668C422.91 24.5665 421.314 24.6492 419.692 24.4366L419.767 23.6395C420.85 23.3519 421.952 23.0791 422.861 22.3933C424.091 21.4671 425.104 19.9957 425.277 18.4418C425.446 16.8937 425.008 15.7087 424.091 14.4909C422.034 13.7681 420.438 13.4538 418.298 14.1227L417.721 13.7988C415.975 15.034 415.403 16.125 414.548 18.0382L414.297 17.6698Z" fill="#3B4244"/>
<path d="M417.721 13.7939C419.067 13.0566 420.702 12.4964 422.242 12.907C422.962 13.0985 423.527 13.4433 423.892 14.1035C423.963 14.2291 424.026 14.3585 424.091 14.486C422.034 13.7632 420.438 13.4489 418.298 14.1178L417.721 13.7939Z" fill="#262829"/>
<path d="M417.721 13.7964L418.298 14.1203C416.481 15.9972 416.045 17.087 416.088 19.7284C416.088 20.0022 416.097 20.2759 416.113 20.5492C416.866 21.861 417.606 23.1379 419.184 23.5337C419.404 23.589 419.528 23.6005 419.767 23.6371L419.692 24.4342C417.92 24.0238 416.052 22.2761 415.056 20.8047C414.412 19.8557 414.046 18.8101 414.297 17.6673L414.548 18.0358C415.403 16.1226 415.975 15.0315 417.721 13.7964Z" fill="#262829"/>
<path d="M14.4699 13.8587C14.4542 13.6817 14.416 13.3878 14.4441 13.2048C14.5634 12.429 15.2909 11.5604 15.7463 10.9163C18.1728 7.48367 19.9702 6.82789 24.0924 6.6664C30.3263 6.42195 36.5382 6.78804 42.7644 6.79062L101.943 6.73015L406.682 6.77281C408.475 6.75945 417.93 6.84407 418.991 6.18641C419.814 5.67547 420.36 5.60023 421.333 5.65555C422.043 5.69609 424.286 5.67078 424.694 6.13437C423.18 6.20234 421.422 6.035 420.147 6.86164C418.783 7.01492 417.458 7.42016 416.242 8.05625C413.041 8.0136 409.898 7.46375 406.708 7.39719C390.505 7.1525 374.303 7.06883 358.101 7.14594C350.706 7.16281 343.232 7.20664 335.84 7.38852C334.232 7.42789 332.701 7.95172 331.096 7.9311C327.646 7.8868 324.217 7.35781 320.758 7.31774C258.524 6.88649 196.288 6.84547 134.054 7.19445C129.94 7.21461 125.802 6.97508 121.678 6.9643C109.941 6.93336 98.2114 7.21578 86.4741 7.16117C74.3764 7.10492 62.2712 6.82719 50.1685 6.9936C43.6109 7.0836 37.1094 7.75602 30.5666 7.86805C26.2541 6.8668 22.7874 6.71164 18.8485 9.06852C16.722 10.3409 15.695 11.7399 14.4699 13.8587Z" fill="#3B4244"/>
<path d="M69.4551 256.31C69.66 256.059 69.9858 255.944 70.3026 256.005C70.6195 256.069 70.8761 256.301 70.9706 256.61C71.0648 256.919 70.9819 257.255 70.754 257.484C70.4243 257.815 69.8918 257.831 69.5447 257.517C69.1976 257.203 69.1579 256.671 69.4551 256.31Z" fill="#242D30"/>
<path d="M89.5928 232.512C89.7104 232.142 89.8377 231.776 89.9746 231.41C90.3013 230.564 90.7522 229.953 91.6157 229.61C92.7639 229.153 94.258 229.097 95.4869 229.055C104.776 228.722 114.095 228.905 123.389 228.912L167.323 228.921L305.854 228.919L335.322 228.917C340.204 228.917 345.454 228.532 350.287 229.036C351.688 229.181 352.773 229.538 354.044 230.107C354.51 230.412 354.85 230.644 355.211 231.078L356.153 232.406L355.448 232.533C355.124 233.26 355.164 233.745 355.241 234.528L354.498 235.61C357.543 248.325 360.763 261.014 363.606 273.776C364.827 279.256 366.447 284.956 366.965 290.538C367.162 292.662 367.005 294.464 366.426 296.529C360.273 297.033 353.929 296.731 347.755 296.728L314.88 296.714L158.78 296.726L107.633 296.731C99.0854 296.726 90.4089 296.398 81.8788 296.719C81.1047 296.747 80.6111 296.986 79.9319 297.352C79.3762 297.652 78.8345 297.659 78.2347 297.436C77.8785 297.303 77.8907 297.251 77.6017 296.967C77.009 296.29 76.5346 295.542 76.0405 294.792C76.858 287.578 79.0462 280.2 80.605 273.106L89.5928 232.512Z" fill="#262829"/>
<path d="M89.5881 232.514C89.7058 232.144 89.8331 231.778 89.9699 231.412C90.2966 230.566 90.7476 229.954 91.611 229.612C92.7592 229.155 94.2534 229.099 95.4822 229.057C104.771 228.724 114.09 228.907 123.384 228.914L167.318 228.923L305.849 228.921L335.317 228.919C340.199 228.919 345.449 228.534 350.282 229.038C351.684 229.183 352.769 229.54 354.039 230.109L353.929 230.512C353.845 230.543 353.755 230.566 353.676 230.606C352.633 231.147 352.173 232.483 351.266 233.14C348.039 232.083 332.017 232.715 327.489 232.715L280.909 232.713L162.695 232.72C141.696 232.713 120.622 232.35 99.6295 232.788C97.6509 232.828 95.7801 232.983 93.9845 233.918C93.8088 234.009 93.6351 234.105 93.4635 234.206L93.1141 234.15L93.2299 234.002C92.0303 233.447 90.8594 232.891 89.5881 232.514Z" fill="#5E5E5E"/>
<path d="M89.5904 232.514C90.8616 232.892 92.0325 233.447 93.2321 234.002L93.1163 234.15L93.4657 234.206C93.1278 234.727 92.8039 235.259 92.6185 235.856C92.0665 237.631 91.83 239.604 91.4642 241.43C90.9003 244.167 90.3017 246.898 89.6684 249.619C86.787 262.399 84.1221 275.21 81.1142 287.96C80.689 289.763 80.8022 293.229 80.2875 294.551C79.9343 295.456 78.6666 296.356 77.9161 296.92L77.5993 296.97C77.0065 296.292 76.5321 295.545 76.0381 294.795C76.8556 287.581 79.0437 280.202 80.6025 273.108L89.5904 232.514Z" fill="#3B4244"/>
<path d="M354.037 230.112C354.503 230.417 354.843 230.649 355.204 231.082C354.445 232.32 353.943 233.445 353.488 234.825C352.785 234.305 351.859 233.77 351.264 233.142C352.171 232.486 352.631 231.15 353.674 230.609C353.753 230.569 353.842 230.545 353.927 230.515L354.037 230.112Z" fill="#3B4244"/>
<path d="M327.203 268.301C333.991 267.391 340.239 272.13 341.198 278.909C342.156 285.689 337.466 291.973 330.693 292.98C323.849 294 317.486 289.249 316.518 282.398C315.548 275.548 320.345 269.219 327.203 268.301Z" fill="#0B1316"/>
<path d="M327.296 273.161C331.554 272.291 335.71 275.04 336.577 279.297C337.447 283.555 334.697 287.711 330.439 288.578C326.183 289.445 322.027 286.698 321.16 282.442C320.293 278.183 323.04 274.03 327.296 273.161Z" fill="#F6F3EA"/>
<path d="M283.321 264.007C285.838 263.791 288.508 264.53 290.678 265.812C293.287 267.356 295.251 269.855 295.942 272.824C296.645 275.845 295.818 279.148 294.112 281.698C292.108 284.695 289.33 286.083 285.887 286.788C283.108 286.997 280.417 286.446 278.064 284.897C275.338 283.101 273.873 280.498 273.198 277.366C272.598 274.594 272.523 271.069 274.194 268.659C276.297 265.626 279.913 264.665 283.321 264.007Z" fill="#0B1316"/>
<path d="M283.751 268.179C285.555 267.82 287.564 267.961 289.155 268.962C290.594 269.871 291.544 271.334 291.9 272.988C292.331 275.053 291.919 277.205 290.751 278.963C289.758 280.442 288.251 281.482 286.476 281.756C285.553 281.899 284.791 281.747 283.896 281.541L283.521 281.456L283.296 281.405C282.635 281.25 282.014 281.086 281.426 280.737C279.836 279.792 278.651 278.346 278.208 276.539C277.781 274.788 278.001 272.796 278.967 271.256C280.083 269.478 281.782 268.678 283.751 268.179Z" fill="#F6F3EA"/>
<path d="M284.455 268.179C286.259 267.82 288.268 267.961 289.859 268.962C291.298 269.871 292.248 271.334 292.604 272.988C293.035 275.053 292.623 277.205 291.455 278.963C290.462 280.442 288.955 281.482 287.18 281.756C286.257 281.899 285.495 281.747 284.6 281.541L284.225 281.456L284 281.405C285.228 281.154 286.559 280.868 287.698 280.334C289.327 279.572 290.818 278.33 291.42 276.586C291.92 275.133 291.702 273.551 290.963 272.222C289.517 269.628 287.087 268.953 284.455 268.179Z" fill="#92938F"/>
<path d="M151.446 279.696C150.317 276.354 150.607 272.89 152.167 269.723C153.059 267.912 155.036 265.244 157.007 264.534C159.758 263.545 164.972 264.464 167.487 265.755C169.961 267.016 171.826 269.215 172.665 271.861C173.62 274.912 173.449 278.583 171.949 281.421C170.719 283.746 168.541 285.621 165.993 286.334C162.937 287.189 159.292 286.774 156.567 285.157C155.62 284.594 154.831 283.924 154.067 283.137C153.96 283.16 153.855 283.193 153.746 283.207C153.231 283.266 152.799 283.125 152.425 282.757C151.609 281.955 151.408 280.791 151.446 279.696Z" fill="#0B1316"/>
<path d="M151.443 279.698C152.372 280.809 153.16 282.014 154.065 283.139C153.958 283.162 153.852 283.195 153.743 283.209C153.229 283.268 152.796 283.127 152.422 282.759C151.606 281.958 151.406 280.793 151.443 279.698Z" fill="#242D30"/>
<path d="M161.255 268.024C162.904 267.933 164.335 268.066 165.748 269.006C168.043 270.53 168.66 273.127 169.144 275.658C168.593 277.188 167.995 278.7 166.838 279.884C165.226 281.534 163.217 281.801 161.031 281.829C159.193 281.353 157.858 280.139 156.585 278.775L156.407 278.58L156.936 279.448C156.151 278.902 155.56 277.945 155.269 277.045C154.793 275.573 154.964 273.933 155.665 272.564C156.722 270.499 159.082 268.704 161.255 268.024Z" fill="#F6F3EA"/>
<path d="M218.017 260.77C217.605 260.365 216.958 260.041 216.487 259.673C214.263 257.946 212.538 256.005 211.97 253.146C211.403 250.287 212.2 247.108 213.846 244.727C215.499 242.339 218.28 240.874 221.12 240.459C223.968 240.042 227.003 240.621 229.305 242.407C231.327 243.977 233.186 247.036 233.479 249.64C233.516 249.989 233.528 250.188 233.643 250.537C233.671 250.624 233.709 250.708 233.741 250.795L234.138 250.737C235.049 252.757 235.038 254.641 234.187 256.715C233.156 259.235 231.191 261.255 228.653 262.247C225.836 263.346 221.784 263.315 219.023 262.019C218.554 261.799 218.17 261.534 217.759 261.22L217.764 260.925L218.017 260.77Z" fill="#0B1316"/>
<path d="M233.741 250.795L234.137 250.737C235.049 252.757 235.037 254.642 234.187 256.716C233.155 259.235 231.191 261.256 228.653 262.247C225.836 263.346 221.783 263.316 219.023 262.02C218.554 261.799 218.169 261.534 217.759 261.22L217.764 260.925L218.017 260.77C219.564 261.527 221.033 261.989 222.77 262.006C225.646 262.029 228.768 260.775 230.805 258.738C232.898 256.643 233.8 253.699 233.741 250.795Z" fill="#3B4244"/>
<path d="M215.836 249.474C215.934 249.291 216.034 249.108 216.129 248.925C216.305 248.578 216.466 248.229 216.657 247.889C217.581 246.244 219.365 244.887 221.202 244.442C223.574 243.867 225.726 244.777 227.699 246.042C228.182 246.312 228.531 246.495 228.705 247.057C228.995 248.002 229.084 249.019 229.359 249.98C229.769 251.426 229.67 252.851 228.904 254.168C228.013 255.701 226.338 256.856 224.62 257.248C222.623 257.702 220.563 257.084 218.88 255.989C217.246 254.927 216.159 253.331 215.785 251.407C215.66 250.76 215.739 250.12 215.836 249.474Z" fill="#242D30"/>
<path d="M218.835 248.407C221.191 247.341 223.605 246.385 226.171 247.416C227.387 247.903 228.133 248.66 228.948 249.659C227.69 252.214 226.649 254.391 224.622 256.451C223.354 256.491 222.13 256.566 220.872 256.744C220.241 255.945 219.149 253.852 218.409 253.374C218.357 253.228 218.303 253.083 218.254 252.935C217.677 251.229 218.041 249.964 218.835 248.407Z" fill="#0B1316"/>
<path d="M215.832 249.471C215.929 249.288 216.029 249.106 216.124 248.923C216.3 248.576 216.461 248.227 216.652 247.887C217.576 246.241 219.36 244.884 221.198 244.439C223.569 243.865 225.721 244.774 227.694 246.04C227.547 246.056 227.399 246.075 227.251 246.089C224.701 246.326 221.603 245.056 219.543 247.291C219.203 247.657 219.039 247.966 218.83 248.407C218.036 249.963 217.673 251.229 218.249 252.935C218.298 253.083 218.352 253.228 218.404 253.373C218.019 253.519 218.23 253.502 217.766 253.338C216.823 252.223 215.84 250.99 215.832 249.471Z" fill="#3B4244"/>
<path d="M116.735 273.956C120.978 272.867 125.303 275.414 126.406 279.654C127.51 283.892 124.978 288.225 120.743 289.345C116.486 290.471 112.126 287.92 111.017 283.662C109.908 279.401 112.471 275.051 116.735 273.956Z" fill="#F6F3EA"/>
<path d="M129.801 278.124C130.045 278.149 130.56 278.163 130.806 278.267C131.313 278.48 131.456 279.007 131.591 279.492C132.473 282.68 131.503 286.62 129.783 289.378C127.945 292.329 124.879 294.549 121.479 295.303C118.498 295.964 115.59 295.484 113.014 293.864C111.961 293.194 111.068 292.425 110.142 291.595C112.46 292.678 114.724 293.552 117.321 293.613C120.347 293.684 122.937 292.758 125.129 290.658C128.767 287.17 129.673 282.987 129.801 278.124Z" fill="#3B4244"/>
<path d="M6.14811 195.469C6.39481 195.72 6.40203 195.966 6.43057 196.327C6.62529 198.785 6.43592 201.408 6.43545 203.887L6.43568 219.497L6.46943 266.538C6.46803 267.124 6.57022 267.809 6.17864 268.256L5.65983 267.78C5.24539 267.363 4.509 266.705 4.39179 266.105C3.99837 264.091 4.22796 261.548 4.22804 259.486L4.2439 246.579L4.18969 197.655L6.14811 195.469Z" fill="#262829"/>
<path d="M440.767 197.278C441.362 197.724 441.866 198.434 442.356 199.001C442.565 211.629 442.345 224.297 442.349 236.928C442.349 244.983 442.773 253.617 442.246 261.612C442.152 263.039 441.918 264.185 441.355 265.514C441.152 265.868 441.29 265.683 440.903 266.035C440.345 264.91 440.545 204.467 440.767 197.278Z" fill="#262829"/>
<path d="M316.391 116.181C316.509 116.166 316.627 116.15 316.745 116.136C321.081 115.637 326.631 116.485 330.118 119.136C329.369 119.307 328.542 119.456 327.836 119.752C326.869 120.158 326.053 121.234 325.713 122.181C325.334 123.237 325.44 124.39 325.96 125.382C326.83 127.041 328.151 127.55 329.88 128.064C330.497 127.901 331.149 127.749 331.727 127.48C333.171 126.806 333.944 125.511 334.402 124.07C334.559 123.578 334.671 123.192 334.966 122.756C335.55 122.937 335.777 123.224 336.176 123.673C338.668 126.479 342.972 133.313 342.758 136.969C342.166 137.611 338.865 136.508 337.285 137.11C336.44 137.432 335.881 138.052 335.58 138.878C335.127 140.12 335.066 142.03 335.708 143.225C337.162 145.927 340.28 144.111 342.423 144.827C342.923 145.436 343.065 145.819 342.975 146.608C342.477 150.976 338.374 156.496 334.928 159.193C334.404 158.023 333.818 156.659 332.76 155.847C331.766 155.083 330.537 154.699 329.275 154.868C328.032 155.034 326.861 155.684 326.165 156.714C325.571 157.592 325.383 158.673 325.646 159.693C326.143 161.661 327.566 162.423 329.228 163.37C325.793 165.243 322.306 165.886 318.408 166C315.077 166.012 311.342 165.002 308.435 163.428C309.397 162.629 310.456 161.724 311.05 160.616C311.561 159.665 311.784 158.527 311.432 157.487C311.094 156.484 310.297 155.707 309.315 155.289C308.152 154.793 306.869 154.843 305.712 155.323C303.798 156.117 302.408 157.796 301.674 159.651C300.991 159.121 300.343 158.55 299.733 157.942C295.844 154.049 293.266 148.944 293.318 143.459C294.477 144.163 295.566 144.772 296.839 145.266C297.27 145.144 297.697 145.01 298.12 144.867C299.387 144.428 300.451 143.552 300.994 142.334C301.419 141.375 301.425 140.289 301.009 139.327C300.567 138.312 299.715 137.521 298.655 137.14C296.563 136.383 294.847 137.274 293 138.157C293.466 133.785 295.402 129.73 298.038 126.2C298.96 124.966 300.555 122.576 302.234 122.424C302.342 122.414 302.472 122.359 302.559 122.423C302.745 122.559 303.381 126.015 304.85 127.16C305.752 127.862 306.733 127.966 307.844 127.781C309.08 127.574 310.327 127.099 311.019 126.019C311.602 125.109 311.67 123.972 311.433 122.944C310.968 120.93 309.845 119.888 308.133 118.816C310.802 117.198 313.298 116.59 316.391 116.181Z" fill="#111111" class="reel-right" />
<!-- SIDE右侧的A字母 -->
    <text x="246" y="280" text-anchor="middle" dominant-baseline="middle"
        font-family="Arial, sans-serif" font-size="16" font-weight="bold"
        fill="#FFFFFF">{{SIDE_LETTER}}</text>
<path d="M213.625 275.18H210.57V274.242C210.57 273.805 210.531 273.526 210.453 273.406C210.375 273.286 210.245 273.227 210.062 273.227C209.865 273.227 209.714 273.307 209.609 273.469C209.51 273.63 209.461 273.875 209.461 274.203C209.461 274.625 209.518 274.943 209.633 275.156C209.742 275.37 210.052 275.628 210.562 275.93C212.026 276.799 212.948 277.513 213.328 278.07C213.708 278.628 213.898 279.526 213.898 280.766C213.898 281.667 213.792 282.331 213.578 282.758C213.37 283.185 212.964 283.544 212.359 283.836C211.755 284.122 211.052 284.266 210.25 284.266C209.37 284.266 208.617 284.099 207.992 283.766C207.372 283.432 206.966 283.008 206.773 282.492C206.581 281.977 206.484 281.245 206.484 280.297V279.469H209.539V281.008C209.539 281.482 209.581 281.786 209.664 281.922C209.753 282.057 209.906 282.125 210.125 282.125C210.344 282.125 210.505 282.039 210.609 281.867C210.719 281.695 210.773 281.44 210.773 281.102C210.773 280.357 210.672 279.87 210.469 279.641C210.26 279.411 209.747 279.029 208.93 278.492C208.112 277.951 207.57 277.557 207.305 277.312C207.039 277.068 206.818 276.729 206.641 276.297C206.469 275.865 206.383 275.312 206.383 274.641C206.383 273.672 206.505 272.964 206.75 272.516C207 272.068 207.401 271.719 207.953 271.469C208.505 271.214 209.172 271.086 209.953 271.086C210.807 271.086 211.534 271.224 212.133 271.5C212.737 271.776 213.135 272.125 213.328 272.547C213.526 272.964 213.625 273.674 213.625 274.68V275.18ZM218.227 271.352V284H214.938V271.352H218.227ZM219.547 271.352H222.008C223.596 271.352 224.669 271.424 225.227 271.57C225.789 271.716 226.216 271.956 226.508 272.289C226.799 272.622 226.982 272.995 227.055 273.406C227.128 273.812 227.164 274.615 227.164 275.812V280.242C227.164 281.378 227.109 282.138 227 282.523C226.896 282.904 226.711 283.203 226.445 283.422C226.18 283.635 225.852 283.786 225.461 283.875C225.07 283.958 224.482 284 223.695 284H219.547V271.352ZM222.836 273.516V281.836C223.31 281.836 223.602 281.742 223.711 281.555C223.82 281.362 223.875 280.844 223.875 280V275.086C223.875 274.513 223.857 274.146 223.82 273.984C223.784 273.823 223.701 273.706 223.57 273.633C223.44 273.555 223.195 273.516 222.836 273.516ZM228.391 271.352H233.875V273.883H231.68V276.281H233.734V278.688H231.68V281.469H234.094V284H228.391V271.352Z" fill="white"/>
<path d="M191.207 54.0273V73H186.895V60.1914L185.172 73H182.113L180.297 60.4844V73H175.984V54.0273H182.371C182.559 55.168 182.758 56.5117 182.969 58.0586L183.648 62.8867L184.773 54.0273H191.207ZM197.277 63.4727H192.836V62.4297C192.836 61.2266 192.973 60.3008 193.246 59.6523C193.527 58.9961 194.086 58.418 194.922 57.918C195.758 57.418 196.844 57.168 198.18 57.168C199.781 57.168 200.988 57.4531 201.801 58.0234C202.613 58.5859 203.102 59.2812 203.266 60.1094C203.43 60.9297 203.512 62.625 203.512 65.1953V73H198.906V71.6172C198.617 72.1719 198.242 72.5898 197.781 72.8711C197.328 73.1445 196.785 73.2812 196.152 73.2812C195.324 73.2812 194.562 73.0508 193.867 72.5898C193.18 72.1211 192.836 71.1016 192.836 69.5312V68.2539C192.836 67.0898 193.02 66.2969 193.387 65.875C193.754 65.4531 194.664 64.9609 196.117 64.3984C197.672 63.7891 198.504 63.3789 198.613 63.168C198.723 62.957 198.777 62.5273 198.777 61.8789C198.777 61.0664 198.715 60.5391 198.59 60.2969C198.473 60.0469 198.273 59.9219 197.992 59.9219C197.672 59.9219 197.473 60.0273 197.395 60.2383C197.316 60.4414 197.277 60.9766 197.277 61.8438V63.4727ZM198.777 65.6055C198.02 66.1602 197.578 66.625 197.453 67C197.336 67.375 197.277 67.9141 197.277 68.6172C197.277 69.4219 197.328 69.9414 197.43 70.1758C197.539 70.4102 197.75 70.5273 198.062 70.5273C198.359 70.5273 198.551 70.4375 198.637 70.2578C198.73 70.0703 198.777 69.5859 198.777 68.8047V65.6055ZM215.336 57.4492L213.414 63.6484L215.91 73H211.352L209.875 66.2266V73H205.141V54.0273H209.875V61.9961L211.352 57.4492H215.336ZM227.348 65.5H221.219V68.8633C221.219 69.5664 221.27 70.0195 221.371 70.2227C221.473 70.4258 221.668 70.5273 221.957 70.5273C222.316 70.5273 222.555 70.3945 222.672 70.1289C222.797 69.8555 222.859 69.332 222.859 68.5586V66.5078H227.348V67.6562C227.348 68.6172 227.285 69.3555 227.16 69.8711C227.043 70.3867 226.762 70.9375 226.316 71.5234C225.871 72.1094 225.305 72.5508 224.617 72.8477C223.938 73.1367 223.082 73.2812 222.051 73.2812C221.051 73.2812 220.168 73.1367 219.402 72.8477C218.637 72.5586 218.039 72.1641 217.609 71.6641C217.188 71.1562 216.895 70.6016 216.73 70C216.566 69.3906 216.484 68.5078 216.484 67.3516V62.8164C216.484 61.457 216.668 60.3867 217.035 59.6055C217.402 58.8164 218.004 58.2148 218.84 57.8008C219.676 57.3789 220.637 57.168 221.723 57.168C223.051 57.168 224.145 57.4219 225.004 57.9297C225.871 58.4297 226.477 59.0977 226.82 59.9336C227.172 60.7617 227.348 61.9297 227.348 63.4375V65.5ZM222.602 62.9688V61.832C222.602 61.0273 222.559 60.5078 222.473 60.2734C222.387 60.0391 222.211 59.9219 221.945 59.9219C221.617 59.9219 221.414 60.0234 221.336 60.2266C221.258 60.4219 221.219 60.957 221.219 61.832V62.9688H222.602ZM229.047 54.0273H232.539C234.867 54.0273 236.441 54.1172 237.262 54.2969C238.09 54.4766 238.762 54.9375 239.277 55.6797C239.801 56.4141 240.062 57.5898 240.062 59.207C240.062 60.6836 239.879 61.6758 239.512 62.1836C239.145 62.6914 238.422 62.9961 237.344 63.0977C238.32 63.3398 238.977 63.6641 239.312 64.0703C239.648 64.4766 239.855 64.8516 239.934 65.1953C240.02 65.5312 240.062 66.4648 240.062 67.9961V73H235.48V66.6953C235.48 65.6797 235.398 65.0508 235.234 64.8086C235.078 64.5664 234.66 64.4453 233.98 64.4453V73H229.047V54.0273ZM233.98 57.2734V61.4922C234.535 61.4922 234.922 61.418 235.141 61.2695C235.367 61.1133 235.48 60.6172 235.48 59.7812V58.7383C235.48 58.1367 235.371 57.7422 235.152 57.5547C234.941 57.3672 234.551 57.2734 233.98 57.2734ZM254.5 65.793V68.9922L253.164 69.8359L254.828 73H250.457L249.883 71.9453C248.414 72.9141 247.023 73.3984 245.711 73.3984C244.336 73.3984 243.277 72.9414 242.535 72.0273C241.793 71.1133 241.422 70.0117 241.422 68.7227C241.422 67.6914 241.641 66.8828 242.078 66.2969C242.516 65.7109 243.172 65.2344 244.047 64.8672C242.797 63.9688 242.172 62.7539 242.172 61.2227C242.172 59.9023 242.617 58.8398 243.508 58.0352C244.398 57.2305 245.625 56.8281 247.188 56.8281C248.594 56.8281 249.699 57.2227 250.504 58.0117C251.316 58.8008 251.723 59.8047 251.723 61.0234C251.723 62.3047 251.23 63.4414 250.246 64.4336L251.922 67.457L254.5 65.793ZM247.199 62.4648C247.73 61.7695 247.996 61.1055 247.996 60.4727C247.996 60.1992 247.918 59.9492 247.762 59.7227C247.605 59.4961 247.387 59.3828 247.105 59.3828C246.848 59.3828 246.652 59.4688 246.52 59.6406C246.387 59.8125 246.32 60.0742 246.32 60.4258C246.32 61.1602 246.613 61.8398 247.199 62.4648ZM248.266 69.8008L246.73 67.2461C246.145 67.7773 245.852 68.3516 245.852 68.9688C245.852 69.4141 245.941 69.75 246.121 69.9766C246.309 70.1953 246.582 70.3047 246.941 70.3047C247.324 70.3047 247.766 70.1367 248.266 69.8008ZM255.812 54.0273H260.734C262.289 54.0273 263.465 54.1484 264.262 54.3906C265.066 54.6328 265.715 55.125 266.207 55.8672C266.699 56.6016 266.945 57.7891 266.945 59.4297C266.945 60.5391 266.77 61.3125 266.418 61.75C266.074 62.1875 265.391 62.5234 264.367 62.7578C265.508 63.0156 266.281 63.4453 266.688 64.0469C267.094 64.6406 267.297 65.5547 267.297 66.7891V68.5469C267.297 69.8281 267.148 70.7773 266.852 71.3945C266.562 72.0117 266.098 72.4336 265.457 72.6602C264.816 72.8867 263.504 73 261.52 73H255.812V54.0273ZM260.746 57.2734V61.4922C260.957 61.4844 261.121 61.4805 261.238 61.4805C261.723 61.4805 262.031 61.3633 262.164 61.1289C262.297 60.8867 262.363 60.2031 262.363 59.0781C262.363 58.4844 262.309 58.0703 262.199 57.8359C262.09 57.5938 261.945 57.4414 261.766 57.3789C261.594 57.3164 261.254 57.2812 260.746 57.2734ZM260.746 64.4453V69.7539C261.441 69.7305 261.883 69.6211 262.07 69.4258C262.266 69.2305 262.363 68.75 262.363 67.9844V66.2148C262.363 65.4023 262.277 64.9102 262.105 64.7383C261.934 64.5664 261.48 64.4688 260.746 64.4453Z" fill="black"/>
<path d="M85.3359 198.867H82.0469V196.664C82.0469 196.023 82.0104 195.625 81.9375 195.469C81.8698 195.307 81.7161 195.227 81.4766 195.227C81.2057 195.227 81.0339 195.323 80.9609 195.516C80.888 195.708 80.8516 196.125 80.8516 196.766V202.641C80.8516 203.255 80.888 203.656 80.9609 203.844C81.0339 204.031 81.1979 204.125 81.4531 204.125C81.6979 204.125 81.8568 204.031 81.9297 203.844C82.0078 203.656 82.0469 203.216 82.0469 202.523V200.938H85.3359V201.43C85.3359 202.737 85.2422 203.664 85.0547 204.211C84.8724 204.758 84.4635 205.237 83.8281 205.648C83.1979 206.06 82.4193 206.266 81.4922 206.266C80.5286 206.266 79.7344 206.091 79.1094 205.742C78.4844 205.393 78.0703 204.911 77.8672 204.297C77.6641 203.677 77.5625 202.747 77.5625 201.508V197.812C77.5625 196.901 77.5938 196.219 77.6562 195.766C77.7188 195.307 77.9036 194.867 78.2109 194.445C78.5234 194.023 78.9531 193.693 79.5 193.453C80.0521 193.208 80.6849 193.086 81.3984 193.086C82.3672 193.086 83.1667 193.273 83.7969 193.648C84.4271 194.023 84.8411 194.492 85.0391 195.055C85.237 195.612 85.3359 196.482 85.3359 197.664V198.867ZM89.5781 195.633L89.4531 196.992C89.9115 196.018 90.5755 195.503 91.4453 195.445V199.094C90.8672 199.094 90.4427 199.172 90.1719 199.328C89.901 199.484 89.7344 199.703 89.6719 199.984C89.6094 200.26 89.5781 200.901 89.5781 201.906V206H86.4219V195.633H89.5781ZM99.3047 201H95.2188V203.242C95.2188 203.711 95.2526 204.013 95.3203 204.148C95.388 204.284 95.5182 204.352 95.7109 204.352C95.9505 204.352 96.1094 204.263 96.1875 204.086C96.2708 203.904 96.3125 203.555 96.3125 203.039V201.672H99.3047V202.438C99.3047 203.078 99.263 203.57 99.1797 203.914C99.1016 204.258 98.9141 204.625 98.6172 205.016C98.3203 205.406 97.9427 205.701 97.4844 205.898C97.0312 206.091 96.4609 206.188 95.7734 206.188C95.1068 206.188 94.5182 206.091 94.0078 205.898C93.4974 205.706 93.099 205.443 92.8125 205.109C92.5312 204.771 92.3359 204.401 92.2266 204C92.1172 203.594 92.0625 203.005 92.0625 202.234V199.211C92.0625 198.305 92.1849 197.591 92.4297 197.07C92.6745 196.544 93.0755 196.143 93.6328 195.867C94.1901 195.586 94.8307 195.445 95.5547 195.445C96.4401 195.445 97.1693 195.615 97.7422 195.953C98.3203 196.286 98.724 196.732 98.9531 197.289C99.1875 197.841 99.3047 198.62 99.3047 199.625V201ZM96.1406 199.312V198.555C96.1406 198.018 96.112 197.672 96.0547 197.516C95.9974 197.359 95.8802 197.281 95.7031 197.281C95.4844 197.281 95.349 197.349 95.2969 197.484C95.2448 197.615 95.2188 197.971 95.2188 198.555V199.312H96.1406ZM103.164 199.648H100.203V198.953C100.203 198.151 100.294 197.534 100.477 197.102C100.664 196.664 101.036 196.279 101.594 195.945C102.151 195.612 102.875 195.445 103.766 195.445C104.833 195.445 105.638 195.635 106.18 196.016C106.721 196.391 107.047 196.854 107.156 197.406C107.266 197.953 107.32 199.083 107.32 200.797V206H104.25V205.078C104.057 205.448 103.807 205.727 103.5 205.914C103.198 206.096 102.836 206.188 102.414 206.188C101.862 206.188 101.354 206.034 100.891 205.727C100.432 205.414 100.203 204.734 100.203 203.688V202.836C100.203 202.06 100.326 201.531 100.57 201.25C100.815 200.969 101.422 200.641 102.391 200.266C103.427 199.859 103.982 199.586 104.055 199.445C104.128 199.305 104.164 199.018 104.164 198.586C104.164 198.044 104.122 197.693 104.039 197.531C103.961 197.365 103.828 197.281 103.641 197.281C103.427 197.281 103.294 197.352 103.242 197.492C103.19 197.628 103.164 197.984 103.164 198.562V199.648ZM104.164 201.07C103.659 201.44 103.365 201.75 103.281 202C103.203 202.25 103.164 202.609 103.164 203.078C103.164 203.615 103.198 203.961 103.266 204.117C103.339 204.273 103.479 204.352 103.688 204.352C103.885 204.352 104.013 204.292 104.07 204.172C104.133 204.047 104.164 203.724 104.164 203.203V201.07ZM111.734 194.25V195.883H112.586V197.523H111.734V203.07C111.734 203.753 111.768 204.133 111.836 204.211C111.909 204.289 112.203 204.328 112.719 204.328V206H111.445C110.727 206 110.214 205.971 109.906 205.914C109.599 205.852 109.328 205.714 109.094 205.5C108.859 205.281 108.714 205.034 108.656 204.758C108.599 204.477 108.57 203.82 108.57 202.789V197.523H107.891V195.883H108.57V194.25H111.734ZM116.531 193.352V195H113.281V193.352H116.531ZM116.531 195.633V206H113.281V195.633H116.531ZM120.883 195.633L120.828 196.586C121.057 196.206 121.336 195.922 121.664 195.734C121.997 195.542 122.38 195.445 122.812 195.445C123.354 195.445 123.797 195.573 124.141 195.828C124.484 196.083 124.706 196.406 124.805 196.797C124.904 197.182 124.953 197.828 124.953 198.734V206H121.797V198.82C121.797 198.107 121.773 197.672 121.727 197.516C121.68 197.359 121.549 197.281 121.336 197.281C121.112 197.281 120.971 197.372 120.914 197.555C120.857 197.732 120.828 198.211 120.828 198.992V206H117.672V195.633H120.883ZM133.219 195.633V203.617C133.219 204.695 133.193 205.393 133.141 205.711C133.094 206.023 132.919 206.354 132.617 206.703C132.315 207.057 131.893 207.326 131.352 207.508C130.815 207.695 130.138 207.789 129.32 207.789C128.315 207.789 127.508 207.617 126.898 207.273C126.289 206.935 125.974 206.266 125.953 205.266H129.016C129.016 205.724 129.182 205.953 129.516 205.953C129.755 205.953 129.914 205.883 129.992 205.742C130.07 205.602 130.109 205.307 130.109 204.859V204.078C129.839 204.323 129.552 204.508 129.25 204.633C128.953 204.758 128.641 204.82 128.312 204.82C127.745 204.82 127.276 204.706 126.906 204.477C126.542 204.247 126.292 203.948 126.156 203.578C126.021 203.203 125.953 202.672 125.953 201.984V198.219C125.953 197.234 126.13 196.526 126.484 196.094C126.839 195.661 127.378 195.445 128.102 195.445C128.497 195.445 128.857 195.526 129.18 195.688C129.508 195.849 129.799 196.091 130.055 196.414L130.281 195.633H133.219ZM130.055 198.383C130.055 197.909 130.026 197.607 129.969 197.477C129.917 197.346 129.797 197.281 129.609 197.281C129.427 197.281 129.297 197.357 129.219 197.508C129.146 197.654 129.109 197.945 129.109 198.383V201.867C129.109 202.331 129.138 202.633 129.195 202.773C129.253 202.909 129.372 202.977 129.555 202.977C129.763 202.977 129.898 202.893 129.961 202.727C130.023 202.56 130.055 202.182 130.055 201.594V198.383ZM143.781 195.633L142.875 203.133C142.734 204.32 142.615 205.13 142.516 205.562C142.422 205.995 142.263 206.352 142.039 206.633C141.815 206.914 141.503 207.12 141.102 207.25C140.706 207.385 140.07 207.453 139.195 207.453H137.281V205.797C137.771 205.797 138.086 205.773 138.227 205.727C138.367 205.674 138.438 205.562 138.438 205.391C138.438 205.307 138.372 204.945 138.242 204.305L136.516 195.633H139.383L140.414 202.625L140.914 195.633H143.781ZM151.484 199.273V201.812C151.484 202.745 151.438 203.43 151.344 203.867C151.25 204.299 151.049 204.706 150.742 205.086C150.435 205.461 150.039 205.74 149.555 205.922C149.076 206.099 148.523 206.188 147.898 206.188C147.201 206.188 146.609 206.112 146.125 205.961C145.641 205.805 145.263 205.573 144.992 205.266C144.727 204.953 144.536 204.578 144.422 204.141C144.307 203.698 144.25 203.036 144.25 202.156V199.5C144.25 198.536 144.354 197.784 144.562 197.242C144.771 196.701 145.146 196.266 145.688 195.938C146.229 195.609 146.922 195.445 147.766 195.445C148.474 195.445 149.081 195.552 149.586 195.766C150.096 195.974 150.49 196.247 150.766 196.586C151.042 196.924 151.229 197.273 151.328 197.633C151.432 197.992 151.484 198.539 151.484 199.273ZM148.328 198.492C148.328 197.961 148.299 197.628 148.242 197.492C148.185 197.352 148.062 197.281 147.875 197.281C147.688 197.281 147.562 197.352 147.5 197.492C147.438 197.628 147.406 197.961 147.406 198.492V203.172C147.406 203.661 147.438 203.982 147.5 204.133C147.562 204.279 147.685 204.352 147.867 204.352C148.055 204.352 148.177 204.284 148.234 204.148C148.297 204.013 148.328 203.721 148.328 203.273V198.492ZM159.758 195.633V206H156.547L156.602 205.141C156.383 205.49 156.112 205.753 155.789 205.93C155.471 206.102 155.104 206.188 154.688 206.188C154.214 206.188 153.82 206.104 153.508 205.938C153.195 205.771 152.964 205.549 152.812 205.273C152.667 204.997 152.576 204.711 152.539 204.414C152.503 204.112 152.484 203.516 152.484 202.625V195.633H155.641V202.688C155.641 203.495 155.664 203.974 155.711 204.125C155.763 204.276 155.898 204.352 156.117 204.352C156.352 204.352 156.49 204.273 156.531 204.117C156.578 203.961 156.602 203.458 156.602 202.609V195.633H159.758ZM164.047 195.633L163.922 196.992C164.38 196.018 165.044 195.503 165.914 195.445V199.094C165.336 199.094 164.911 199.172 164.641 199.328C164.37 199.484 164.203 199.703 164.141 199.984C164.078 200.26 164.047 200.901 164.047 201.906V206H160.891V195.633H164.047ZM172.781 194.25V195.883H173.633V197.523H172.781V203.07C172.781 203.753 172.815 204.133 172.883 204.211C172.956 204.289 173.25 204.328 173.766 204.328V206H172.492C171.773 206 171.26 205.971 170.953 205.914C170.646 205.852 170.375 205.714 170.141 205.5C169.906 205.281 169.76 205.034 169.703 204.758C169.646 204.477 169.617 203.82 169.617 202.789V197.523H168.938V195.883H169.617V194.25H172.781ZM177.484 195.633L177.359 196.992C177.818 196.018 178.482 195.503 179.352 195.445V199.094C178.773 199.094 178.349 199.172 178.078 199.328C177.807 199.484 177.641 199.703 177.578 199.984C177.516 200.26 177.484 200.901 177.484 201.906V206H174.328V195.633H177.484ZM182.883 199.648H179.922V198.953C179.922 198.151 180.013 197.534 180.195 197.102C180.383 196.664 180.755 196.279 181.312 195.945C181.87 195.612 182.594 195.445 183.484 195.445C184.552 195.445 185.357 195.635 185.898 196.016C186.44 196.391 186.766 196.854 186.875 197.406C186.984 197.953 187.039 199.083 187.039 200.797V206H183.969V205.078C183.776 205.448 183.526 205.727 183.219 205.914C182.917 206.096 182.555 206.188 182.133 206.188C181.581 206.188 181.073 206.034 180.609 205.727C180.151 205.414 179.922 204.734 179.922 203.688V202.836C179.922 202.06 180.044 201.531 180.289 201.25C180.534 200.969 181.141 200.641 182.109 200.266C183.146 199.859 183.701 199.586 183.773 199.445C183.846 199.305 183.883 199.018 183.883 198.586C183.883 198.044 183.841 197.693 183.758 197.531C183.68 197.365 183.547 197.281 183.359 197.281C183.146 197.281 183.013 197.352 182.961 197.492C182.909 197.628 182.883 197.984 182.883 198.562V199.648ZM183.883 201.07C183.378 201.44 183.083 201.75 183 202C182.922 202.25 182.883 202.609 182.883 203.078C182.883 203.615 182.917 203.961 182.984 204.117C183.057 204.273 183.198 204.352 183.406 204.352C183.604 204.352 183.732 204.292 183.789 204.172C183.852 204.047 183.883 203.724 183.883 203.203V201.07ZM195.102 199.547H192.125V198.352C192.125 197.935 192.091 197.654 192.023 197.508C191.956 197.357 191.831 197.281 191.648 197.281C191.466 197.281 191.344 197.346 191.281 197.477C191.219 197.607 191.188 197.898 191.188 198.352V203.242C191.188 203.612 191.234 203.891 191.328 204.078C191.422 204.26 191.56 204.352 191.742 204.352C191.956 204.352 192.099 204.255 192.172 204.062C192.25 203.87 192.289 203.505 192.289 202.969V201.734H195.102C195.096 202.562 195.065 203.185 195.008 203.602C194.956 204.013 194.781 204.438 194.484 204.875C194.193 205.307 193.81 205.635 193.336 205.859C192.862 206.078 192.276 206.188 191.578 206.188C190.688 206.188 189.982 206.036 189.461 205.734C188.94 205.427 188.57 205 188.352 204.453C188.138 203.901 188.031 203.12 188.031 202.109V199.164C188.031 198.284 188.12 197.62 188.297 197.172C188.474 196.724 188.852 196.326 189.43 195.977C190.008 195.622 190.711 195.445 191.539 195.445C192.362 195.445 193.065 195.62 193.648 195.969C194.232 196.318 194.62 196.758 194.812 197.289C195.005 197.82 195.102 198.573 195.102 199.547ZM202.844 195.633L201.562 199.766L203.227 206H200.188L199.203 201.484V206H196.047V193.352H199.203V198.664L200.188 195.633H202.844ZM210.148 198.945H207.352V198.383C207.352 197.904 207.323 197.602 207.266 197.477C207.214 197.346 207.078 197.281 206.859 197.281C206.682 197.281 206.549 197.341 206.461 197.461C206.372 197.576 206.328 197.75 206.328 197.984C206.328 198.302 206.349 198.536 206.391 198.688C206.438 198.833 206.57 198.995 206.789 199.172C207.013 199.349 207.469 199.607 208.156 199.945C209.073 200.393 209.674 200.815 209.961 201.211C210.247 201.607 210.391 202.182 210.391 202.938C210.391 203.781 210.281 204.419 210.062 204.852C209.844 205.279 209.477 205.609 208.961 205.844C208.451 206.073 207.833 206.188 207.109 206.188C206.307 206.188 205.62 206.062 205.047 205.812C204.479 205.562 204.089 205.224 203.875 204.797C203.661 204.37 203.555 203.724 203.555 202.859V202.359H206.352V203.016C206.352 203.573 206.385 203.935 206.453 204.102C206.526 204.268 206.667 204.352 206.875 204.352C207.099 204.352 207.255 204.297 207.344 204.188C207.432 204.073 207.477 203.836 207.477 203.477C207.477 202.982 207.419 202.672 207.305 202.547C207.185 202.422 206.573 202.052 205.469 201.438C204.542 200.917 203.977 200.445 203.773 200.023C203.57 199.596 203.469 199.091 203.469 198.508C203.469 197.68 203.578 197.07 203.797 196.68C204.016 196.284 204.385 195.979 204.906 195.766C205.432 195.552 206.042 195.445 206.734 195.445C207.422 195.445 208.005 195.534 208.484 195.711C208.969 195.883 209.339 196.112 209.594 196.398C209.854 196.685 210.01 196.951 210.062 197.195C210.12 197.44 210.148 197.823 210.148 198.344V198.945ZM213.336 203.422V206H210.953V203.422H213.336ZM216.289 203.422V206H213.906V203.422H216.289ZM219.242 203.422V206H216.859V203.422H219.242ZM223.016 193.352H226.328C227.224 193.352 227.911 193.422 228.391 193.562C228.875 193.703 229.237 193.906 229.477 194.172C229.721 194.438 229.885 194.76 229.969 195.141C230.057 195.516 230.102 196.099 230.102 196.891V197.992C230.102 198.799 230.018 199.388 229.852 199.758C229.685 200.128 229.378 200.411 228.93 200.609C228.487 200.807 227.906 200.906 227.188 200.906H226.305V206H223.016V193.352ZM226.305 195.516V198.734C226.398 198.74 226.479 198.742 226.547 198.742C226.849 198.742 227.057 198.669 227.172 198.523C227.292 198.372 227.352 198.062 227.352 197.594V196.555C227.352 196.122 227.284 195.841 227.148 195.711C227.013 195.581 226.732 195.516 226.305 195.516ZM234.109 195.633L233.984 196.992C234.443 196.018 235.107 195.503 235.977 195.445V199.094C235.398 199.094 234.974 199.172 234.703 199.328C234.432 199.484 234.266 199.703 234.203 199.984C234.141 200.26 234.109 200.901 234.109 201.906V206H230.953V195.633H234.109ZM243.836 201H239.75V203.242C239.75 203.711 239.784 204.013 239.852 204.148C239.919 204.284 240.049 204.352 240.242 204.352C240.482 204.352 240.641 204.263 240.719 204.086C240.802 203.904 240.844 203.555 240.844 203.039V201.672H243.836V202.438C243.836 203.078 243.794 203.57 243.711 203.914C243.633 204.258 243.445 204.625 243.148 205.016C242.852 205.406 242.474 205.701 242.016 205.898C241.562 206.091 240.992 206.188 240.305 206.188C239.638 206.188 239.049 206.091 238.539 205.898C238.029 205.706 237.63 205.443 237.344 205.109C237.062 204.771 236.867 204.401 236.758 204C236.648 203.594 236.594 203.005 236.594 202.234V199.211C236.594 198.305 236.716 197.591 236.961 197.07C237.206 196.544 237.607 196.143 238.164 195.867C238.721 195.586 239.362 195.445 240.086 195.445C240.971 195.445 241.701 195.615 242.273 195.953C242.852 196.286 243.255 196.732 243.484 197.289C243.719 197.841 243.836 198.62 243.836 199.625V201ZM240.672 199.312V198.555C240.672 198.018 240.643 197.672 240.586 197.516C240.529 197.359 240.411 197.281 240.234 197.281C240.016 197.281 239.88 197.349 239.828 197.484C239.776 197.615 239.75 197.971 239.75 198.555V199.312H240.672ZM251.398 195.633L249.922 206H245.805L244.219 195.633H247.039L247.922 203.195C247.99 202.643 248.104 201.289 248.266 199.133C248.359 197.93 248.464 196.763 248.578 195.633H251.398ZM255.125 193.352V195H251.875V193.352H255.125ZM255.125 195.633V206H251.875V195.633H255.125ZM263.414 201H259.328V203.242C259.328 203.711 259.362 204.013 259.43 204.148C259.497 204.284 259.628 204.352 259.82 204.352C260.06 204.352 260.219 204.263 260.297 204.086C260.38 203.904 260.422 203.555 260.422 203.039V201.672H263.414V202.438C263.414 203.078 263.372 203.57 263.289 203.914C263.211 204.258 263.023 204.625 262.727 205.016C262.43 205.406 262.052 205.701 261.594 205.898C261.141 206.091 260.57 206.188 259.883 206.188C259.216 206.188 258.628 206.091 258.117 205.898C257.607 205.706 257.208 205.443 256.922 205.109C256.641 204.771 256.445 204.401 256.336 204C256.227 203.594 256.172 203.005 256.172 202.234V199.211C256.172 198.305 256.294 197.591 256.539 197.07C256.784 196.544 257.185 196.143 257.742 195.867C258.299 195.586 258.94 195.445 259.664 195.445C260.549 195.445 261.279 195.615 261.852 195.953C262.43 196.286 262.833 196.732 263.062 197.289C263.297 197.841 263.414 198.62 263.414 199.625V201ZM260.25 199.312V198.555C260.25 198.018 260.221 197.672 260.164 197.516C260.107 197.359 259.99 197.281 259.812 197.281C259.594 197.281 259.458 197.349 259.406 197.484C259.354 197.615 259.328 197.971 259.328 198.555V199.312H260.25ZM274.648 195.633L273.391 206H269.961C269.773 204.734 269.557 203.068 269.312 201C269.229 201.906 269.112 202.823 268.961 203.75L268.609 206H265.18L263.844 195.633H266.562C266.583 195.904 266.812 197.88 267.25 201.562C267.281 201.188 267.516 199.211 267.953 195.633H270.57L271.211 201.562C271.31 199.833 271.549 197.857 271.93 195.633H274.648ZM280.82 199.648H277.859V198.953C277.859 198.151 277.951 197.534 278.133 197.102C278.32 196.664 278.693 196.279 279.25 195.945C279.807 195.612 280.531 195.445 281.422 195.445C282.49 195.445 283.294 195.635 283.836 196.016C284.378 196.391 284.703 196.854 284.812 197.406C284.922 197.953 284.977 199.083 284.977 200.797V206H281.906V205.078C281.714 205.448 281.464 205.727 281.156 205.914C280.854 206.096 280.492 206.188 280.07 206.188C279.518 206.188 279.01 206.034 278.547 205.727C278.089 205.414 277.859 204.734 277.859 203.688V202.836C277.859 202.06 277.982 201.531 278.227 201.25C278.471 200.969 279.078 200.641 280.047 200.266C281.083 199.859 281.638 199.586 281.711 199.445C281.784 199.305 281.82 199.018 281.82 198.586C281.82 198.044 281.779 197.693 281.695 197.531C281.617 197.365 281.484 197.281 281.297 197.281C281.083 197.281 280.951 197.352 280.898 197.492C280.846 197.628 280.82 197.984 280.82 198.562V199.648ZM281.82 201.07C281.315 201.44 281.021 201.75 280.938 202C280.859 202.25 280.82 202.609 280.82 203.078C280.82 203.615 280.854 203.961 280.922 204.117C280.995 204.273 281.135 204.352 281.344 204.352C281.542 204.352 281.669 204.292 281.727 204.172C281.789 204.047 281.82 203.724 281.82 203.203V201.07ZM292.586 195.633L291.109 206H286.992L285.406 195.633H288.227L289.109 203.195C289.177 202.643 289.292 201.289 289.453 199.133C289.547 197.93 289.651 196.763 289.766 195.633H292.586ZM295.883 199.648H292.922V198.953C292.922 198.151 293.013 197.534 293.195 197.102C293.383 196.664 293.755 196.279 294.312 195.945C294.87 195.612 295.594 195.445 296.484 195.445C297.552 195.445 298.357 195.635 298.898 196.016C299.44 196.391 299.766 196.854 299.875 197.406C299.984 197.953 300.039 199.083 300.039 200.797V206H296.969V205.078C296.776 205.448 296.526 205.727 296.219 205.914C295.917 206.096 295.555 206.188 295.133 206.188C294.581 206.188 294.073 206.034 293.609 205.727C293.151 205.414 292.922 204.734 292.922 203.688V202.836C292.922 202.06 293.044 201.531 293.289 201.25C293.534 200.969 294.141 200.641 295.109 200.266C296.146 199.859 296.701 199.586 296.773 199.445C296.846 199.305 296.883 199.018 296.883 198.586C296.883 198.044 296.841 197.693 296.758 197.531C296.68 197.365 296.547 197.281 296.359 197.281C296.146 197.281 296.013 197.352 295.961 197.492C295.909 197.628 295.883 197.984 295.883 198.562V199.648ZM296.883 201.07C296.378 201.44 296.083 201.75 296 202C295.922 202.25 295.883 202.609 295.883 203.078C295.883 203.615 295.917 203.961 295.984 204.117C296.057 204.273 296.198 204.352 296.406 204.352C296.604 204.352 296.732 204.292 296.789 204.172C296.852 204.047 296.883 203.724 296.883 203.203V201.07ZM304.375 193.352V195H301.125V193.352H304.375ZM304.375 195.633V206H301.125V195.633H304.375ZM308.766 193.352V206H305.516V193.352H308.766ZM312.727 199.648H309.766V198.953C309.766 198.151 309.857 197.534 310.039 197.102C310.227 196.664 310.599 196.279 311.156 195.945C311.714 195.612 312.438 195.445 313.328 195.445C314.396 195.445 315.201 195.635 315.742 196.016C316.284 196.391 316.609 196.854 316.719 197.406C316.828 197.953 316.883 199.083 316.883 200.797V206H313.812V205.078C313.62 205.448 313.37 205.727 313.062 205.914C312.76 206.096 312.398 206.188 311.977 206.188C311.424 206.188 310.917 206.034 310.453 205.727C309.995 205.414 309.766 204.734 309.766 203.688V202.836C309.766 202.06 309.888 201.531 310.133 201.25C310.378 200.969 310.984 200.641 311.953 200.266C312.99 199.859 313.544 199.586 313.617 199.445C313.69 199.305 313.727 199.018 313.727 198.586C313.727 198.044 313.685 197.693 313.602 197.531C313.523 197.365 313.391 197.281 313.203 197.281C312.99 197.281 312.857 197.352 312.805 197.492C312.753 197.628 312.727 197.984 312.727 198.562V199.648ZM313.727 201.07C313.221 201.44 312.927 201.75 312.844 202C312.766 202.25 312.727 202.609 312.727 203.078C312.727 203.615 312.76 203.961 312.828 204.117C312.901 204.273 313.042 204.352 313.25 204.352C313.448 204.352 313.576 204.292 313.633 204.172C313.695 204.047 313.727 203.724 313.727 203.203V201.07ZM321.125 193.352V196.344C321.385 196.042 321.674 195.818 321.992 195.672C322.315 195.521 322.664 195.445 323.039 195.445C323.471 195.445 323.846 195.513 324.164 195.648C324.482 195.784 324.724 195.974 324.891 196.219C325.057 196.464 325.156 196.703 325.188 196.938C325.224 197.172 325.242 197.672 325.242 198.438V203.109C325.242 203.87 325.19 204.438 325.086 204.812C324.987 205.182 324.75 205.505 324.375 205.781C324 206.052 323.555 206.188 323.039 206.188C322.669 206.188 322.323 206.107 322 205.945C321.682 205.784 321.391 205.542 321.125 205.219L320.922 206H317.969V193.352H321.125ZM322.086 198.578C322.086 198.042 322.052 197.693 321.984 197.531C321.917 197.365 321.784 197.281 321.586 197.281C321.393 197.281 321.268 197.354 321.211 197.5C321.154 197.641 321.125 198 321.125 198.578V203.047C321.125 203.604 321.156 203.961 321.219 204.117C321.286 204.273 321.417 204.352 321.609 204.352C321.807 204.352 321.935 204.271 321.992 204.109C322.055 203.948 322.086 203.56 322.086 202.945V198.578ZM329.531 193.352V206H326.281V193.352H329.531ZM337.82 201H333.734V203.242C333.734 203.711 333.768 204.013 333.836 204.148C333.904 204.284 334.034 204.352 334.227 204.352C334.466 204.352 334.625 204.263 334.703 204.086C334.786 203.904 334.828 203.555 334.828 203.039V201.672H337.82V202.438C337.82 203.078 337.779 203.57 337.695 203.914C337.617 204.258 337.43 204.625 337.133 205.016C336.836 205.406 336.458 205.701 336 205.898C335.547 206.091 334.977 206.188 334.289 206.188C333.622 206.188 333.034 206.091 332.523 205.898C332.013 205.706 331.615 205.443 331.328 205.109C331.047 204.771 330.852 204.401 330.742 204C330.633 203.594 330.578 203.005 330.578 202.234V199.211C330.578 198.305 330.701 197.591 330.945 197.07C331.19 196.544 331.591 196.143 332.148 195.867C332.706 195.586 333.346 195.445 334.07 195.445C334.956 195.445 335.685 195.615 336.258 195.953C336.836 196.286 337.24 196.732 337.469 197.289C337.703 197.841 337.82 198.62 337.82 199.625V201ZM334.656 199.312V198.555C334.656 198.018 334.628 197.672 334.57 197.516C334.513 197.359 334.396 197.281 334.219 197.281C334 197.281 333.865 197.349 333.812 197.484C333.76 197.615 333.734 197.971 333.734 198.555V199.312H334.656ZM344.898 195.633L344.844 196.586C345.073 196.206 345.352 195.922 345.68 195.734C346.013 195.542 346.396 195.445 346.828 195.445C347.37 195.445 347.812 195.573 348.156 195.828C348.5 196.083 348.721 196.406 348.82 196.797C348.919 197.182 348.969 197.828 348.969 198.734V206H345.812V198.82C345.812 198.107 345.789 197.672 345.742 197.516C345.695 197.359 345.565 197.281 345.352 197.281C345.128 197.281 344.987 197.372 344.93 197.555C344.872 197.732 344.844 198.211 344.844 198.992V206H341.688V195.633H344.898ZM357.203 199.273V201.812C357.203 202.745 357.156 203.43 357.062 203.867C356.969 204.299 356.768 204.706 356.461 205.086C356.154 205.461 355.758 205.74 355.273 205.922C354.794 206.099 354.242 206.188 353.617 206.188C352.919 206.188 352.328 206.112 351.844 205.961C351.359 205.805 350.982 205.573 350.711 205.266C350.445 204.953 350.255 204.578 350.141 204.141C350.026 203.698 349.969 203.036 349.969 202.156V199.5C349.969 198.536 350.073 197.784 350.281 197.242C350.49 196.701 350.865 196.266 351.406 195.938C351.948 195.609 352.641 195.445 353.484 195.445C354.193 195.445 354.799 195.552 355.305 195.766C355.815 195.974 356.208 196.247 356.484 196.586C356.76 196.924 356.948 197.273 357.047 197.633C357.151 197.992 357.203 198.539 357.203 199.273ZM354.047 198.492C354.047 197.961 354.018 197.628 353.961 197.492C353.904 197.352 353.781 197.281 353.594 197.281C353.406 197.281 353.281 197.352 353.219 197.492C353.156 197.628 353.125 197.961 353.125 198.492V203.172C353.125 203.661 353.156 203.982 353.219 204.133C353.281 204.279 353.404 204.352 353.586 204.352C353.773 204.352 353.896 204.284 353.953 204.148C354.016 204.013 354.047 203.721 354.047 203.273V198.492ZM368.445 195.633L367.188 206H363.758C363.57 204.734 363.354 203.068 363.109 201C363.026 201.906 362.909 202.823 362.758 203.75L362.406 206H358.977L357.641 195.633H360.359C360.38 195.904 360.609 197.88 361.047 201.562C361.078 201.188 361.312 199.211 361.75 195.633H364.367L365.008 201.562C365.107 199.833 365.346 197.857 365.727 195.633H368.445Z" fill="black"/>
<defs>
<linearGradient id="paint0_linear_154_179" x1="197.456" y1="139.492" x2="212.648" y2="142.787" gradientUnits="userSpaceOnUse">
<stop stop-color="#07080B"/>
<stop offset="1" stop-color="#35271C"/>
</linearGradient>
<linearGradient id="paint1_linear_154_179" x1="217.158" y1="149.045" x2="216.862" y2="100.041" gradientUnits="userSpaceOnUse">
<stop stop-color="#353D40"/>
<stop offset="1" stop-color="#636161"/>
</linearGradient>
</defs>
</svg>
